<svg xmlns="http://www.w3.org/2000/svg" viewBox="0 0 297.63 290.27"><defs><style>.cls-1{fill:#2e3d4d;}.cls-2{fill:#ff764d;}.cls-3{fill:#ffdf80;}.cls-4{fill:#91eaf2;}.cls-5{fill:#73d2e6;}.cls-6{fill:#f2b63d;}.cls-7{fill:#ff916e;}.cls-8{fill:#ffa694;}.cls-9{fill:#fff;}</style></defs><g id="Layer_2" data-name="Layer 2"><g id="Layer_2-2" data-name="Layer 2"><rect class="cls-1" x="32.27" y="151.08" width="22.21" height="3.92"/><rect class="cls-1" x="46.91" y="205.72" width="22.21" height="3.92" transform="translate(-96.05 56.81) rotate(-29.99)"/><rect class="cls-1" x="86.91" y="245.72" width="22.21" height="3.92" transform="translate(-165.49 208.74) rotate(-60)"/><rect class="cls-1" x="150.69" y="251.21" width="3.92" height="22.21"/><rect class="cls-1" x="205.33" y="236.57" width="3.92" height="22.21" transform="translate(-96.05 136.79) rotate(-29.99)"/><rect class="cls-1" x="245.32" y="196.57" width="3.92" height="22.21" transform="translate(-56.2 318.03) rotate(-60.01)"/><rect class="cls-1" x="250.82" y="151.08" width="22.21" height="3.92"/><rect class="cls-1" x="236.18" y="96.45" width="22.21" height="3.92" transform="translate(-16.08 136.81) rotate(-30)"/><rect class="cls-1" x="196.18" y="56.45" width="22.21" height="3.92" transform="translate(53.08 208.74) rotate(-60.01)"/><rect class="cls-1" x="150.69" y="32.66" width="3.92" height="22.21"/><rect class="cls-1" x="96.05" y="47.3" width="3.92" height="22.21" transform="translate(-16.07 56.83) rotate(-30)"/><rect class="cls-1" x="56.06" y="87.3" width="3.92" height="22.21" transform="translate(-56.22 99.45) rotate(-60)"/><path class="cls-1" d="M157.66,20.82a5,5,0,1,1-5-5A5,5,0,0,1,157.66,20.82Z"/><path class="cls-1" d="M154.8,78.44a3,3,0,1,1,0-4.29A3.05,3.05,0,0,1,154.8,78.44Z"/><path class="cls-1" d="M117.2,87.36a3,3,0,1,1-2.14-3.72A3,3,0,0,1,117.2,87.36Z"/><path class="cls-1" d="M89.11,113.88a3,3,0,1,1-3.72-2.14A3,3,0,0,1,89.11,113.88Z"/><path class="cls-1" d="M78,150.9a3,3,0,1,1-4.29,0A3,3,0,0,1,78,150.9Z"/><path class="cls-1" d="M87,188.49a3,3,0,1,1-3.72,2.15A3,3,0,0,1,87,188.49Z"/><path class="cls-1" d="M113.49,216.58a3,3,0,1,1-2.15,3.72A3,3,0,0,1,113.49,216.58Z"/><path class="cls-1" d="M150.5,227.65a3,3,0,1,1,0,4.29A3.05,3.05,0,0,1,150.5,227.65Z"/><path class="cls-1" d="M188.1,218.73a3,3,0,1,1,2.14,3.71A3,3,0,0,1,188.1,218.73Z"/><path class="cls-1" d="M216.19,192.21a3,3,0,1,1,3.71,2.14A3,3,0,0,1,216.19,192.21Z"/><path class="cls-1" d="M227.26,155.19a3,3,0,1,1,4.29,0A3,3,0,0,1,227.26,155.19Z"/><path class="cls-1" d="M218.33,117.6a3,3,0,1,1,3.72-2.15A3,3,0,0,1,218.33,117.6Z"/><path class="cls-1" d="M191.81,89.5A3,3,0,1,1,194,85.79,3,3,0,0,1,191.81,89.5Z"/><path class="cls-1" d="M90.88,36A5,5,0,1,1,84,34.2,5,5,0,0,1,90.88,36Z"/><path class="cls-1" d="M40.65,82.6a5,5,0,1,1-6.84,1.83A5,5,0,0,1,40.65,82.6Z"/><path class="cls-1" d="M20.43,148a5,5,0,1,1-5,5A5,5,0,0,1,20.43,148Z"/><path class="cls-1" d="M35.64,214.82a5,5,0,1,1-1.83,6.84A5,5,0,0,1,35.64,214.82Z"/><path class="cls-1" d="M82.2,265.05A5,5,0,1,1,84,271.89,5,5,0,0,1,82.2,265.05Z"/><circle class="cls-1" cx="152.65" cy="285.27" r="5.01"/><path class="cls-1" d="M214.43,270.05a5,5,0,1,1,6.83,1.84A5,5,0,0,1,214.43,270.05Z"/><path class="cls-1" d="M264.65,223.49a5,5,0,1,1,6.84-1.83A5,5,0,0,1,264.65,223.49Z"/><path class="cls-1" d="M284.87,158.05a5,5,0,1,1,5-5A5,5,0,0,1,284.87,158.05Z"/><path class="cls-1" d="M269.66,91.27a5,5,0,1,1,1.83-6.84A5,5,0,0,1,269.66,91.27Z"/><path class="cls-1" d="M223.1,41a5,5,0,1,1-1.84-6.84A5,5,0,0,1,223.1,41Z"/><circle class="cls-1" cx="152.88" cy="150.51" r="91.31" transform="translate(-28.52 265.05) rotate(-76.82)"/><circle class="cls-2" cx="177.61" cy="8.01" r="8.01" transform="translate(46.36 127.94) rotate(-45)"/><path class="cls-3" d="M26.43,196.65a13.22,13.22,0,1,1-13.21-13.21A13.21,13.21,0,0,1,26.43,196.65Z"/><path class="cls-4" d="M297.63,177.55a10.41,10.41,0,1,1-10.41-10.42A10.41,10.41,0,0,1,297.63,177.55Z"/><path class="cls-4" d="M178.4,169.34c-7.48-4.28-9-11.52-9.09-16.43.08-4.91,1.61-12.15,9.09-16.42,12.11-6.92,34.58-7.78,48.41-30.26s8.65-51.86,8.65-51.86H72.16S67,83.76,80.81,106.23s36.31,23.34,48.41,30.26c7.48,4.27,9,11.51,9.09,16.42-.08,4.91-1.61,12.15-9.09,16.43-12.1,6.91-34.58,7.78-48.41,30.25s-8.65,51.87-8.65,51.87h163.3s5.18-29.39-8.65-51.87S190.51,176.25,178.4,169.34Z"/><path class="cls-5" d="M178.21,136.49c12.11-6.92,34.58-7.78,48.41-30.26s8.65-51.86,8.65-51.86H153.68V251.46h81.59s5.18-29.39-8.65-51.87-36.3-23.34-48.41-30.25c-7.48-4.28-9-11.52-9.09-16.43C169.2,148,170.73,140.76,178.21,136.49Z"/><path class="cls-3" d="M139.81,134.32c5.41,3.6,6.52,11.44,6.58,15.57s-1.17,16.5-6.58,20.1h28c-5-4.05-6-16.11-6.08-20.1s1.17-12,6.58-15.57c8.76-5.81,26.09-5.7,42.39-23.68,1.25-1.38,1.61-47.51,2.24-49.22H76.6c.23.64.32,12.33,2.16,21.07,3.55,16.9,7.38,20.61,14.32,28.32C107.62,127,131.05,128.51,139.81,134.32Z"/><path class="cls-6" d="M153.74,170h14.17c-5-4.05-6-16.11-6.08-20.1s1-12.31,6.58-15.57c9-5.21,26.21-8,44-21.79,10.29-8,14.07-18.38,16.94-35.32a144.35,144.35,0,0,0,.86-15.72H153.74Z"/><path class="cls-6" d="M169.36,175.49a15.29,15.29,0,1,1-15.28-15.29A15.28,15.28,0,0,1,169.36,175.49Z"/><path class="cls-3" d="M165.28,175.49a11.21,11.21,0,1,1-11.2-11.21A11.2,11.2,0,0,1,165.28,175.49Z"/><path class="cls-6" d="M169.36,210.34a15.29,15.29,0,1,1-15.28-15.29A15.28,15.28,0,0,1,169.36,210.34Z"/><path class="cls-3" d="M165.28,210.34a11.21,11.21,0,1,1-11.2-11.21A11.19,11.19,0,0,1,165.28,210.34Z"/><path class="cls-6" d="M131.06,179.25a15.28,15.28,0,1,1-20.88,5.59A15.29,15.29,0,0,1,131.06,179.25Z"/><path class="cls-3" d="M129,182.78a11.21,11.21,0,1,1-15.31,4.1A11.2,11.2,0,0,1,129,182.78Z"/><path class="cls-6" d="M115.16,214.3a15.28,15.28,0,1,1-5.59,20.88A15.29,15.29,0,0,1,115.16,214.3Z"/><path class="cls-3" d="M117.2,217.83a11.21,11.21,0,1,1-4.1,15.31A11.2,11.2,0,0,1,117.2,217.83Z"/><path class="cls-6" d="M137.57,245.59a15.29,15.29,0,1,1,15.28,15.29A15.28,15.28,0,0,1,137.57,245.59Z"/><path class="cls-3" d="M141.64,245.59a11.21,11.21,0,1,1,11.21,11.21A11.21,11.21,0,0,1,141.64,245.59Z"/><path class="cls-6" d="M175.87,241.83a15.28,15.28,0,1,1,20.88-5.59A15.29,15.29,0,0,1,175.87,241.83Z"/><path class="cls-3" d="M177.91,238.3a11.21,11.21,0,1,1,15.31-4.1A11.2,11.2,0,0,1,177.91,238.3Z"/><path class="cls-6" d="M158.35,248.17a3.54,3.54,0,0,1-1.28,2.84,6.36,6.36,0,0,1-3.57,1.28v2.27H152v-2.23a12.36,12.36,0,0,1-4.75-1v-2.93a14.34,14.34,0,0,0,4.75,1.27v-3.44l-.75-.28a8.32,8.32,0,0,1-3.11-1.89,3.59,3.59,0,0,1-.91-2.51,3.27,3.27,0,0,1,1.26-2.64A6.35,6.35,0,0,1,152,237.7V236h1.52v1.65a12.87,12.87,0,0,1,4.59,1l-1,2.6a12.38,12.38,0,0,0-3.55-.87v3.28a16.64,16.64,0,0,1,3.08,1.44,4.27,4.27,0,0,1,1.34,1.34A3.39,3.39,0,0,1,158.35,248.17Zm-7.8-6.57a1,1,0,0,0,.34.81,4.18,4.18,0,0,0,1.09.65v-2.61C151,240.59,150.55,241,150.55,241.6Zm4.46,6.74a1,1,0,0,0-.38-.79,4.78,4.78,0,0,0-1.13-.67v2.77C154.5,249.48,155,249,155,248.34Z"/><path class="cls-6" d="M191.77,206.78a15.28,15.28,0,1,1,5.59-20.88A15.29,15.29,0,0,1,191.77,206.78Z"/><path class="cls-3" d="M189.73,203.25a11.21,11.21,0,1,1,4.1-15.31A11.2,11.2,0,0,1,189.73,203.25Z"/><rect class="cls-2" x="61.56" y="29.81" width="182.19" height="25.68"/><rect class="cls-7" x="61.56" y="29.81" width="182.19" height="18.34"/><rect class="cls-8" x="61.56" y="30.19" width="182.19" height="8.34"/><rect class="cls-2" x="61.56" y="250.33" width="182.19" height="25.68"/><rect class="cls-7" x="61.56" y="257.67" width="182.19" height="18.34"/><path class="cls-6" d="M160,177.86a3.54,3.54,0,0,1-1.28,2.84,6.36,6.36,0,0,1-3.57,1.28v2.27h-1.52V182a12.18,12.18,0,0,1-4.75-1v-2.93a12.37,12.37,0,0,0,2.32.84,12.58,12.58,0,0,0,2.43.44V176l-.75-.29a8.45,8.45,0,0,1-3.11-1.88,3.63,3.63,0,0,1-.91-2.52,3.27,3.27,0,0,1,1.26-2.64,6.43,6.43,0,0,1,3.51-1.26v-1.7h1.52v1.66a12.65,12.65,0,0,1,4.59,1l-1,2.6a12,12,0,0,0-3.55-.86v3.27a16.64,16.64,0,0,1,3.08,1.44,4.37,4.37,0,0,1,1.34,1.34A3.29,3.29,0,0,1,160,177.86Zm-7.8-6.57a1,1,0,0,0,.34.81,4.18,4.18,0,0,0,1.09.65v-2.61C152.71,170.28,152.23,170.67,152.23,171.29Zm4.46,6.74a1,1,0,0,0-.38-.79,5.15,5.15,0,0,0-1.13-.67v2.77C156.18,179.17,156.69,178.73,156.69,178Z"/><path class="cls-6" d="M129.15,195a3.53,3.53,0,0,1-1.27,2.84,6.44,6.44,0,0,1-3.58,1.28v2.27h-1.52v-2.23a12.35,12.35,0,0,1-4.74-.95v-2.93a12.12,12.12,0,0,0,2.32.84,11.7,11.7,0,0,0,2.42.43v-3.44l-.74-.28a8.45,8.45,0,0,1-3.11-1.88,3.64,3.64,0,0,1-.92-2.52,3.27,3.27,0,0,1,1.26-2.64,6.35,6.35,0,0,1,3.51-1.26v-1.7h1.52v1.65a12.87,12.87,0,0,1,4.6,1l-1.05,2.6a11.91,11.91,0,0,0-3.55-.87v3.28a16.33,16.33,0,0,1,3.08,1.44,4.31,4.31,0,0,1,1.35,1.34A3.39,3.39,0,0,1,129.15,195Zm-7.8-6.57a1.08,1.08,0,0,0,.34.81,4.37,4.37,0,0,0,1.09.65v-2.61C121.83,187.4,121.35,187.78,121.35,188.41Zm4.46,6.74a1,1,0,0,0-.37-.79,4.88,4.88,0,0,0-1.14-.67v2.77C125.31,196.28,125.81,195.85,125.81,195.15Z"/><path class="cls-6" d="M159.72,213.32a3.53,3.53,0,0,1-1.27,2.84,6.42,6.42,0,0,1-3.58,1.28v2.27h-1.52v-2.23a12.44,12.44,0,0,1-4.75-.95V213.6a12.49,12.49,0,0,0,2.33.84,11.58,11.58,0,0,0,2.42.43v-3.43l-.74-.29a8.45,8.45,0,0,1-3.11-1.88,3.64,3.64,0,0,1-.92-2.52,3.27,3.27,0,0,1,1.26-2.64,6.43,6.43,0,0,1,3.51-1.26v-1.7h1.52v1.65a12.67,12.67,0,0,1,4.6,1l-1.05,2.59a11.9,11.9,0,0,0-3.55-.86v3.27a16.33,16.33,0,0,1,3.08,1.44,4.16,4.16,0,0,1,1.34,1.34A3.29,3.29,0,0,1,159.72,213.32Zm-7.8-6.57a1.08,1.08,0,0,0,.34.81,4.08,4.08,0,0,0,1.09.65V205.6C152.4,205.74,151.92,206.12,151.92,206.75Zm4.46,6.74a1,1,0,0,0-.38-.79,4.92,4.92,0,0,0-1.13-.67v2.77C155.88,214.63,156.38,214.19,156.38,213.49Z"/><path class="cls-6" d="M190.14,196.2a3.54,3.54,0,0,1-1.28,2.84,6.36,6.36,0,0,1-3.57,1.28v2.27h-1.52v-2.23a12.18,12.18,0,0,1-4.75-1v-2.93a12.23,12.23,0,0,0,2.33.84,12.36,12.36,0,0,0,2.42.44v-3.44L183,194a8.29,8.29,0,0,1-3.12-1.88,3.62,3.62,0,0,1-.91-2.51,3.27,3.27,0,0,1,1.26-2.65,6.43,6.43,0,0,1,3.51-1.26V184h1.52v1.66a12.45,12.45,0,0,1,4.59,1l-1,2.59a12,12,0,0,0-3.55-.86v3.27a18.08,18.08,0,0,1,3.08,1.44,4.26,4.26,0,0,1,1.34,1.34A3.29,3.29,0,0,1,190.14,196.2Zm-7.8-6.56a1,1,0,0,0,.34.8,3.92,3.92,0,0,0,1.09.65v-2.61C182.81,188.62,182.34,189,182.34,189.64Zm4.46,6.73a1,1,0,0,0-.38-.79,5.18,5.18,0,0,0-1.13-.66v2.76C186.29,197.51,186.8,197.07,186.8,196.37Z"/><path class="cls-6" d="M189.37,231.51a3.53,3.53,0,0,1-1.27,2.84,6.36,6.36,0,0,1-3.58,1.28v2.27H183v-2.23a12.36,12.36,0,0,1-4.75-.95v-2.93a14.34,14.34,0,0,0,4.75,1.27v-3.44l-.75-.28a8.32,8.32,0,0,1-3.11-1.89,3.6,3.6,0,0,1-.92-2.51,3.27,3.27,0,0,1,1.26-2.64A6.36,6.36,0,0,1,183,221v-1.7h1.51V221a12.87,12.87,0,0,1,4.6,1l-1,2.6a12.37,12.37,0,0,0-3.56-.87V227a16.33,16.33,0,0,1,3.08,1.44A4.31,4.31,0,0,1,189,229.8,3.39,3.39,0,0,1,189.37,231.51Zm-7.8-6.57a1.08,1.08,0,0,0,.34.81,4.28,4.28,0,0,0,1.1.65v-2.61C182.05,223.93,181.57,224.31,181.57,224.94Zm4.46,6.74a1,1,0,0,0-.37-.79,5.26,5.26,0,0,0-1.14-.67V233C185.53,232.82,186,232.38,186,231.68Z"/><path class="cls-6" d="M128.24,230.13A3.52,3.52,0,0,1,127,233a6.36,6.36,0,0,1-3.57,1.28v2.27h-1.52v-2.23a12.18,12.18,0,0,1-4.75-.95v-2.93a13.09,13.09,0,0,0,2.32.85,13.3,13.3,0,0,0,2.43.43v-3.44l-.75-.29a8.32,8.32,0,0,1-3.11-1.88,3.61,3.61,0,0,1-.91-2.51,3.27,3.27,0,0,1,1.26-2.65,6.4,6.4,0,0,1,3.51-1.26V218h1.52v1.66a12.45,12.45,0,0,1,4.59,1l-1,2.59a12,12,0,0,0-3.55-.86v3.27a18.08,18.08,0,0,1,3.08,1.44,4.29,4.29,0,0,1,1.34,1.35A3.33,3.33,0,0,1,128.24,230.13Zm-7.8-6.56a1.06,1.06,0,0,0,.33.8,4,4,0,0,0,1.1.65v-2.61C120.91,222.55,120.44,222.94,120.44,223.57Zm4.46,6.73a1,1,0,0,0-.38-.79,5.18,5.18,0,0,0-1.13-.66v2.76C124.39,231.44,124.9,231,124.9,230.3Z"/><rect class="cls-9" x="98.08" y="71.77" width="11" height="26.29"/><rect class="cls-9" x="78.67" y="33.64" width="78.26" height="4.89"/><circle class="cls-2" cx="153.18" cy="98.04" r="33.47" transform="translate(-26.13 67.62) rotate(-22.99)"/><circle class="cls-7" cx="153.18" cy="98.04" r="32.07" transform="translate(32.09 233.74) rotate(-80.87)"/><path class="cls-2" d="M182.07,98a28.89,28.89,0,1,1-28.89-28.89A28.89,28.89,0,0,1,182.07,98Z"/><path class="cls-1" d="M180.25,98A27.07,27.07,0,1,1,153.18,71,27.07,27.07,0,0,1,180.25,98Z"/><polygon class="cls-9" points="153.18 100.15 140.42 92.79 141.61 90.74 153.19 97.42 169.95 87.39 171.13 89.44 153.18 100.15"/><path class="cls-2" d="M156.42,98a3.24,3.24,0,1,1-3.24-3.24A3.23,3.23,0,0,1,156.42,98Z"/><path class="cls-9" d="M154.22,75.47a1,1,0,1,1-2.07,0,1,1,0,0,1,2.07,0Z"/><path class="cls-9" d="M142.8,78a1,1,0,1,1-1.42-.38A1,1,0,0,1,142.8,78Z"/><path class="cls-9" d="M134.16,85.86a1,1,0,1,1-1.42.38A1,1,0,0,1,134.16,85.86Z"/><path class="cls-9" d="M130.62,97a1,1,0,1,1-1,1A1,1,0,0,1,130.62,97Z"/><path class="cls-9" d="M133.12,108.43a1,1,0,0,1,1.42.37,1.05,1.05,0,0,1-.38,1.42,1,1,0,1,1-1-1.79Z"/><path class="cls-9" d="M141,117.06a1,1,0,1,1,.38,1.42A1.05,1.05,0,0,1,141,117.06Z"/><path class="cls-9" d="M152.15,120.61a1,1,0,1,1,1,1A1,1,0,0,1,152.15,120.61Z"/><path class="cls-9" d="M163.57,118.1a1,1,0,0,1,1.79-1,1,1,0,1,1-1.79,1Z"/><path class="cls-9" d="M172.21,110.22a1,1,0,1,1,1.41-.38A1,1,0,0,1,172.21,110.22Z"/><path class="cls-9" d="M175.75,99.07a1,1,0,0,1,0-2.07,1,1,0,1,1,0,2.07Z"/><path class="cls-9" d="M173.25,87.65a1,1,0,0,1-1.42-.38,1,1,0,1,1,1.42.38Z"/><path class="cls-9" d="M165.36,79a1,1,0,1,1-1.79-1,1,1,0,1,1,1.79,1Z"/><rect class="cls-8" x="61.56" y="267.94" width="182.19" height="8.34"/><rect class="cls-9" x="75.01" y="263" width="114.33" height="4.89"/></g></g></svg>