<svg width="298" height="291" viewBox="0 0 298 291" fill="none" xmlns="http://www.w3.org/2000/svg">
<g clip-path="url(#clip0_70_832)">
<path d="M54.48 151.08H32.27V155H54.48V151.08Z" fill="#2E3D4D"/>
<path d="M66.6446 200.437L47.4082 211.539L49.3676 214.934L68.604 203.832L66.6446 200.437Z" fill="#2E3D4D"/>
<path d="M101.87 237.099L90.7646 256.334L94.1595 258.294L105.264 239.059L101.87 237.099Z" fill="#2E3D4D"/>
<path d="M154.61 251.21H150.69V273.42H154.61V251.21Z" fill="#2E3D4D"/>
<path d="M203.433 237.093L200.038 239.052L211.14 258.289L214.535 256.329L203.433 237.093Z" fill="#2E3D4D"/>
<path d="M238.634 200.415L236.675 203.811L255.911 214.912L257.871 211.517L238.634 200.415Z" fill="#2E3D4D"/>
<path d="M273.03 151.08H250.82V155H273.03V151.08Z" fill="#2E3D4D"/>
<path d="M255.917 91.1432L236.683 102.248L238.643 105.643L257.877 94.538L255.917 91.1432Z" fill="#2E3D4D"/>
<path d="M211.134 47.8061L200.032 67.0425L203.428 69.0019L214.529 49.7655L211.134 47.8061Z" fill="#2E3D4D"/>
<path d="M154.61 32.66H150.69V54.87H154.61V32.66Z" fill="#2E3D4D"/>
<path d="M94.1565 47.808L90.7617 49.768L101.867 69.0024L105.262 67.0424L94.1565 47.808Z" fill="#2E3D4D"/>
<path d="M49.3741 91.1558L47.4141 94.5506L66.6485 105.656L68.6085 102.261L49.3741 91.1558Z" fill="#2E3D4D"/>
<path d="M157.66 20.82C157.66 21.8089 157.367 22.7756 156.817 23.5979C156.268 24.4201 155.487 25.061 154.573 25.4394C153.66 25.8178 152.654 25.9169 151.684 25.7239C150.715 25.531 149.824 25.0548 149.124 24.3555C148.425 23.6563 147.949 22.7654 147.756 21.7955C147.563 20.8256 147.662 19.8202 148.041 18.9066C148.419 17.993 149.06 17.2121 149.882 16.6627C150.704 16.1133 151.671 15.82 152.66 15.82C153.986 15.82 155.258 16.3468 156.195 17.2845C157.133 18.2222 157.66 19.4939 157.66 20.82V20.82Z" fill="#2E3D4D"/>
<path d="M154.8 78.44C154.378 78.8528 153.843 79.1318 153.263 79.2422C152.683 79.3525 152.083 79.2892 151.539 79.0601C150.995 78.8311 150.53 78.4466 150.204 77.9547C149.877 77.4628 149.703 76.8855 149.703 76.295C149.703 75.7045 149.877 75.1272 150.204 74.6353C150.53 74.1434 150.995 73.7589 151.539 73.5298C152.083 73.3008 152.683 73.2375 153.263 73.3478C153.843 73.4581 154.378 73.7372 154.8 74.15C155.365 74.721 155.682 75.4918 155.682 76.295C155.682 77.0982 155.365 77.869 154.8 78.44Z" fill="#2E3D4D"/>
<path d="M117.2 87.36C117.04 87.9282 116.715 88.4364 116.268 88.8211C115.82 89.2058 115.268 89.4498 114.682 89.5226C114.097 89.5953 113.502 89.4936 112.974 89.2301C112.446 88.9666 112.007 88.5531 111.712 88.0414C111.418 87.5296 111.281 86.9424 111.319 86.3532C111.357 85.7641 111.568 85.1991 111.925 84.7292C112.282 84.2593 112.77 83.9053 113.328 83.7116C113.886 83.5178 114.488 83.4929 115.06 83.64C115.447 83.7396 115.811 83.9156 116.129 84.1576C116.447 84.3997 116.714 84.7029 116.913 85.0495C117.113 85.396 117.241 85.779 117.29 86.1758C117.339 86.5725 117.309 86.9752 117.2 87.36V87.36Z" fill="#2E3D4D"/>
<path d="M89.11 113.88C89.2571 114.452 89.2322 115.054 89.0384 115.612C88.8447 116.17 88.4907 116.658 88.0208 117.015C87.5509 117.372 86.986 117.583 86.3968 117.621C85.8076 117.659 85.2204 117.522 84.7087 117.228C84.1969 116.933 83.7834 116.494 83.5199 115.966C83.2564 115.438 83.1547 114.843 83.2275 114.258C83.3002 113.672 83.5442 113.12 83.9289 112.672C84.3136 112.225 84.8218 111.9 85.39 111.74C85.7748 111.631 86.1775 111.601 86.5742 111.65C86.971 111.699 87.354 111.827 87.7005 112.027C88.0471 112.226 88.3503 112.493 88.5924 112.811C88.8344 113.129 89.0104 113.493 89.11 113.88V113.88Z" fill="#2E3D4D"/>
<path d="M78 150.9C78.4128 151.322 78.6918 151.857 78.8022 152.437C78.9125 153.017 78.8492 153.617 78.6201 154.161C78.3911 154.705 78.0066 155.17 77.5147 155.496C77.0228 155.823 76.4455 155.997 75.855 155.997C75.2645 155.997 74.6872 155.823 74.1953 155.496C73.7034 155.17 73.3189 154.705 73.0898 154.161C72.8608 153.617 72.7975 153.017 72.9078 152.437C73.0181 151.857 73.2972 151.322 73.71 150.9C73.9894 150.614 74.323 150.387 74.6914 150.232C75.0597 150.077 75.4554 149.997 75.855 149.997C76.2546 149.997 76.6502 150.077 77.0186 150.232C77.3869 150.387 77.7206 150.614 78 150.9Z" fill="#2E3D4D"/>
<path d="M86.9999 188.49C87.568 188.65 88.0763 188.973 88.4613 189.421C88.8462 189.868 89.0908 190.419 89.1644 191.004C89.2379 191.59 89.1371 192.184 88.8747 192.712C88.6123 193.241 88.1998 193.68 87.6889 193.975C87.178 194.271 86.5914 194.409 86.0025 194.372C85.4135 194.336 84.8484 194.126 84.3778 193.77C83.9072 193.414 83.5521 192.928 83.3568 192.371C83.1615 191.814 83.1348 191.212 83.2799 190.64C83.3784 190.252 83.5536 189.887 83.7952 189.568C84.0368 189.249 84.3399 188.981 84.6866 188.781C85.0333 188.58 85.4166 188.451 85.8139 188.401C86.2112 188.351 86.6144 188.382 86.9999 188.49Z" fill="#2E3D4D"/>
<path d="M113.49 216.58C114.062 216.435 114.664 216.462 115.221 216.657C115.778 216.852 116.265 217.207 116.621 217.678C116.977 218.148 117.186 218.714 117.222 219.303C117.259 219.891 117.121 220.478 116.825 220.989C116.53 221.5 116.091 221.912 115.562 222.175C115.034 222.437 114.44 222.538 113.854 222.464C113.269 222.391 112.718 222.146 112.271 221.761C111.824 221.376 111.5 220.868 111.34 220.3C111.232 219.914 111.202 219.511 111.251 219.114C111.301 218.717 111.43 218.333 111.631 217.987C111.831 217.64 112.099 217.337 112.418 217.095C112.737 216.854 113.102 216.678 113.49 216.58V216.58Z" fill="#2E3D4D"/>
<path d="M150.5 227.65C150.922 227.237 151.457 226.958 152.037 226.848C152.617 226.737 153.217 226.801 153.761 227.03C154.305 227.259 154.77 227.643 155.096 228.135C155.423 228.627 155.597 229.205 155.597 229.795C155.597 230.385 155.423 230.963 155.096 231.455C154.77 231.947 154.305 232.331 153.761 232.56C153.217 232.789 152.617 232.852 152.037 232.742C151.457 232.632 150.922 232.353 150.5 231.94C149.935 231.369 149.618 230.598 149.618 229.795C149.618 228.992 149.935 228.221 150.5 227.65Z" fill="#2E3D4D"/>
<path d="M188.1 218.73C188.259 218.161 188.582 217.651 189.029 217.265C189.476 216.879 190.028 216.633 190.614 216.559C191.2 216.485 191.795 216.585 192.324 216.848C192.854 217.111 193.293 217.524 193.589 218.036C193.884 218.548 194.021 219.136 193.984 219.725C193.946 220.315 193.736 220.881 193.378 221.351C193.02 221.821 192.532 222.176 191.973 222.369C191.415 222.563 190.812 222.588 190.24 222.44C189.854 222.34 189.492 222.165 189.174 221.923C188.857 221.682 188.591 221.38 188.391 221.034C188.192 220.689 188.064 220.307 188.014 219.911C187.964 219.516 187.993 219.114 188.1 218.73V218.73Z" fill="#2E3D4D"/>
<path d="M216.19 192.21C216.042 191.638 216.067 191.035 216.261 190.477C216.454 189.918 216.809 189.43 217.279 189.072C217.749 188.714 218.315 188.504 218.904 188.466C219.494 188.429 220.082 188.566 220.594 188.861C221.106 189.157 221.519 189.596 221.782 190.126C222.044 190.655 222.145 191.25 222.071 191.836C221.997 192.423 221.751 192.974 221.365 193.421C220.979 193.868 220.469 194.191 219.9 194.35C219.516 194.457 219.114 194.486 218.719 194.436C218.323 194.386 217.941 194.258 217.596 194.059C217.25 193.86 216.948 193.593 216.707 193.276C216.465 192.958 216.29 192.596 216.19 192.21V192.21Z" fill="#2E3D4D"/>
<path d="M227.26 155.19C226.847 154.768 226.568 154.233 226.458 153.653C226.348 153.073 226.411 152.473 226.64 151.929C226.869 151.385 227.253 150.92 227.745 150.594C228.237 150.267 228.815 150.093 229.405 150.093C229.996 150.093 230.573 150.267 231.065 150.594C231.557 150.92 231.941 151.385 232.17 151.929C232.399 152.473 232.463 153.073 232.352 153.653C232.242 154.233 231.963 154.768 231.55 155.19C231.271 155.476 230.937 155.703 230.569 155.858C230.2 156.013 229.805 156.093 229.405 156.093C229.005 156.093 228.61 156.013 228.241 155.858C227.873 155.703 227.539 155.476 227.26 155.19V155.19Z" fill="#2E3D4D"/>
<path d="M218.33 117.6C217.762 117.44 217.254 117.117 216.869 116.669C216.484 116.222 216.239 115.671 216.165 115.086C216.092 114.5 216.193 113.906 216.455 113.378C216.718 112.849 217.13 112.41 217.641 112.115C218.152 111.819 218.738 111.681 219.327 111.718C219.916 111.754 220.481 111.964 220.952 112.32C221.423 112.676 221.778 113.162 221.973 113.719C222.168 114.276 222.195 114.878 222.05 115.45C221.951 115.838 221.776 116.203 221.535 116.522C221.293 116.841 220.99 117.109 220.643 117.309C220.297 117.51 219.913 117.639 219.516 117.689C219.119 117.739 218.715 117.708 218.33 117.6Z" fill="#2E3D4D"/>
<path d="M191.81 89.5C191.237 89.6381 190.636 89.6044 190.082 89.4031C189.528 89.2018 189.046 88.8418 188.695 88.3681C188.345 87.8943 188.142 87.3278 188.111 86.7392C188.08 86.1506 188.224 85.5661 188.523 85.0585C188.823 84.551 189.266 84.143 189.796 83.8853C190.326 83.6277 190.92 83.5319 191.504 83.61C192.088 83.688 192.637 83.9363 193.08 84.3241C193.524 84.7118 193.844 85.2216 194 85.79C194.106 86.1775 194.134 86.5824 194.081 86.9807C194.027 87.379 193.895 87.7625 193.69 88.1086C193.486 88.4546 193.214 88.7561 192.891 88.9951C192.568 89.2341 192.201 89.4058 191.81 89.5Z" fill="#2E3D4D"/>
<path d="M90.88 36C91.3734 36.8542 91.6031 37.8353 91.5401 38.8197C91.4772 39.8042 91.1244 40.748 90.5263 41.5324C89.9281 42.3169 89.1113 42.9068 88.1786 43.2281C87.246 43.5494 86.2391 43.5875 85.2848 43.3379C84.3304 43.0882 83.4713 42.5618 82.8154 41.8249C82.1596 41.0881 81.7363 40.1737 81.599 39.1968C81.4617 38.2199 81.6163 37.2243 82.0436 36.3352C82.4708 35.446 83.1515 34.7031 84 34.2C84.569 33.8626 85.1992 33.6415 85.8542 33.5494C86.5092 33.4573 87.1759 33.4961 87.8158 33.6635C88.4557 33.8309 89.0561 34.1236 89.582 34.5247C90.108 34.9258 90.5492 35.4272 90.88 36Z" fill="#2E3D4D"/>
<path d="M40.65 82.6C41.5051 83.0956 42.1941 83.8335 42.63 84.7206C43.0659 85.6076 43.2292 86.6039 43.0991 87.5836C42.9691 88.5634 42.5516 89.4826 41.8994 90.2252C41.2472 90.9678 40.3896 91.5005 39.4348 91.7559C38.4801 92.0113 37.4711 91.9781 36.5352 91.6604C35.5993 91.3426 34.7786 90.7547 34.1767 89.9708C33.5748 89.1868 33.2188 88.2421 33.1535 87.2559C33.0882 86.2698 33.3167 85.2864 33.81 84.43C34.1384 83.86 34.5759 83.3605 35.0976 82.9599C35.6193 82.5593 36.2149 82.2657 36.8503 82.0957C37.4857 81.9257 38.1484 81.8827 38.8004 81.9692C39.4524 82.0558 40.081 82.2701 40.65 82.6Z" fill="#2E3D4D"/>
<path d="M20.4299 148C21.4188 148 22.3855 148.293 23.2078 148.843C24.03 149.392 24.6709 150.173 25.0493 151.087C25.4278 152 25.5268 153.006 25.3339 153.975C25.1409 154.945 24.6647 155.836 23.9655 156.536C23.2662 157.235 22.3753 157.711 21.4054 157.904C20.4355 158.097 19.4301 157.998 18.5165 157.619C17.6029 157.241 16.822 156.6 16.2726 155.778C15.7232 154.956 15.4299 153.989 15.4299 153C15.4299 151.674 15.9567 150.402 16.8944 149.464C17.8321 148.527 19.1038 148 20.4299 148V148Z" fill="#2E3D4D"/>
<path d="M35.6399 214.82C36.4963 214.327 37.4797 214.098 38.4659 214.163C39.4521 214.229 40.3968 214.585 41.1807 215.187C41.9646 215.789 42.5526 216.609 42.8703 217.545C43.1881 218.481 43.2213 219.49 42.9659 220.445C42.7104 221.4 42.1778 222.257 41.4352 222.909C40.6926 223.562 39.7733 223.979 38.7936 224.109C37.8138 224.239 36.8175 224.076 35.9305 223.64C35.0435 223.204 34.3056 222.515 33.8099 221.66C33.4801 221.091 33.2657 220.462 33.1792 219.81C33.0927 219.158 33.1356 218.496 33.3056 217.86C33.4756 217.225 33.7693 216.629 34.1699 216.108C34.5704 215.586 35.07 215.148 35.6399 214.82V214.82Z" fill="#2E3D4D"/>
<path d="M82.2001 265.05C82.6985 264.196 83.439 263.509 84.3278 263.076C85.2167 262.643 86.214 262.483 87.1938 262.616C88.1735 262.75 89.0916 263.171 89.8321 263.826C90.5725 264.482 91.102 265.342 91.3537 266.298C91.6053 267.254 91.5678 268.264 91.2458 269.198C90.9239 270.133 90.3319 270.952 89.5448 271.55C88.7578 272.149 87.8109 272.501 86.824 272.561C85.837 272.622 84.8543 272.388 84.0001 271.89C83.4326 271.559 82.9359 271.12 82.5383 270.597C82.1408 270.074 81.8501 269.478 81.6829 268.843C81.5158 268.208 81.4754 267.546 81.5641 266.895C81.6529 266.244 81.869 265.617 82.2001 265.05V265.05Z" fill="#2E3D4D"/>
<path d="M152.65 290.28C155.417 290.28 157.66 288.037 157.66 285.27C157.66 282.503 155.417 280.26 152.65 280.26C149.883 280.26 147.64 282.503 147.64 285.27C147.64 288.037 149.883 290.28 152.65 290.28Z" fill="#2E3D4D"/>
<path d="M214.43 270.05C213.937 269.193 213.709 268.209 213.776 267.222C213.842 266.236 214.199 265.291 214.802 264.508C215.405 263.724 216.227 263.137 217.164 262.82C218.101 262.504 219.11 262.472 220.065 262.73C221.02 262.987 221.877 263.521 222.528 264.265C223.179 265.01 223.594 265.93 223.722 266.911C223.85 267.891 223.685 268.887 223.246 269.774C222.808 270.66 222.117 271.397 221.26 271.89C220.691 272.218 220.063 272.43 219.411 272.515C218.76 272.6 218.098 272.556 217.464 272.385C216.83 272.214 216.235 271.92 215.715 271.519C215.194 271.119 214.758 270.619 214.43 270.05Z" fill="#2E3D4D"/>
<path d="M264.65 223.49C263.795 222.994 263.106 222.256 262.67 221.369C262.234 220.482 262.071 219.486 262.201 218.506C262.331 217.527 262.748 216.607 263.401 215.865C264.053 215.122 264.91 214.59 265.865 214.334C266.82 214.079 267.829 214.112 268.765 214.43C269.701 214.747 270.521 215.335 271.123 216.119C271.725 216.903 272.081 217.848 272.147 218.834C272.212 219.82 271.983 220.804 271.49 221.66C271.162 222.23 270.724 222.729 270.202 223.13C269.681 223.531 269.085 223.824 268.45 223.994C267.814 224.164 267.152 224.207 266.5 224.121C265.848 224.034 265.219 223.82 264.65 223.49V223.49Z" fill="#2E3D4D"/>
<path d="M284.87 158.05C283.881 158.05 282.915 157.757 282.092 157.207C281.27 156.658 280.629 155.877 280.251 154.963C279.872 154.05 279.773 153.044 279.966 152.075C280.159 151.105 280.635 150.214 281.335 149.514C282.034 148.815 282.925 148.339 283.895 148.146C284.865 147.953 285.87 148.052 286.784 148.431C287.697 148.809 288.478 149.45 289.027 150.272C289.577 151.094 289.87 152.061 289.87 153.05C289.87 154.376 289.343 155.648 288.406 156.586C287.468 157.523 286.196 158.05 284.87 158.05V158.05Z" fill="#2E3D4D"/>
<path d="M269.66 91.27C268.803 91.7633 267.82 91.9918 266.834 91.9265C265.848 91.8613 264.903 91.5052 264.119 90.9033C263.335 90.3014 262.747 89.4807 262.429 88.5448C262.112 87.609 262.079 86.5999 262.334 85.6452C262.589 84.6904 263.122 83.8328 263.865 83.1806C264.607 82.5284 265.526 82.1109 266.506 81.9809C267.486 81.8509 268.482 82.0141 269.369 82.45C270.256 82.8859 270.994 83.5749 271.49 84.43C271.82 84.999 272.034 85.6276 272.121 86.2796C272.207 86.9316 272.164 87.5943 271.994 88.2297C271.824 88.8651 271.531 89.4607 271.13 89.9824C270.729 90.5041 270.23 90.9417 269.66 91.27V91.27Z" fill="#2E3D4D"/>
<path d="M223.1 41C222.605 41.8554 221.868 42.5451 220.982 42.9819C220.095 43.4186 219.099 43.583 218.12 43.4541C217.14 43.3253 216.22 42.909 215.477 42.2579C214.734 41.6067 214.2 40.7499 213.943 39.7957C213.687 38.8414 213.718 37.8325 214.035 36.8963C214.351 35.9601 214.938 35.1387 215.721 34.5357C216.503 33.9327 217.447 33.5752 218.433 33.5083C219.419 33.4414 220.403 33.6682 221.26 34.16C221.831 34.4875 222.331 34.9244 222.733 35.4457C223.134 35.967 223.429 36.5625 223.6 37.198C223.771 37.8334 223.815 38.4964 223.729 39.1488C223.643 39.8012 223.429 40.4303 223.1 41V41Z" fill="#2E3D4D"/>
<path d="M241.788 171.335C253.287 122.234 222.804 73.1087 173.703 61.6103C124.603 50.1119 75.4773 80.5946 63.9789 129.695C52.4805 178.796 82.9632 227.921 132.064 239.42C181.165 250.918 230.29 220.435 241.788 171.335Z" fill="#2E3D4D"/>
<path d="M183.277 13.6786C186.405 10.5505 186.405 5.47883 183.277 2.35073C180.149 -0.777368 175.077 -0.777373 171.949 2.35073C168.821 5.47883 168.821 10.5505 171.949 13.6786C175.077 16.8067 180.149 16.8067 183.277 13.6786Z" fill="#FF764D"/>
<path d="M26.43 196.65C26.432 199.266 25.6581 201.823 24.2062 203.998C22.7543 206.174 20.6897 207.87 18.2737 208.872C15.8576 209.874 13.1987 210.136 10.6334 209.626C8.06799 209.117 5.7115 207.857 3.86204 206.008C2.01259 204.159 0.753305 201.802 0.243528 199.237C-0.26625 196.671 -0.00360751 194.012 0.998222 191.596C2.00005 189.18 3.69604 187.116 5.87159 185.664C8.04714 184.212 10.6045 183.438 13.22 183.44C16.7235 183.44 20.0835 184.832 22.5609 187.309C25.0382 189.786 26.43 193.146 26.43 196.65Z" fill="#FFDF80"/>
<path d="M297.63 177.55C297.628 179.608 297.016 181.62 295.871 183.331C294.726 185.041 293.099 186.374 291.197 187.16C289.295 187.947 287.202 188.152 285.183 187.749C283.164 187.346 281.31 186.354 279.856 184.897C278.401 183.441 277.41 181.586 277.009 179.567C276.609 177.548 276.815 175.456 277.603 173.554C278.392 171.652 279.726 170.027 281.438 168.884C283.149 167.74 285.162 167.13 287.22 167.13C288.588 167.13 289.942 167.4 291.206 167.923C292.47 168.447 293.618 169.215 294.585 170.183C295.551 171.15 296.318 172.299 296.841 173.563C297.363 174.827 297.631 176.182 297.63 177.55Z" fill="#91EAF2"/>
<path d="M178.4 169.34C170.92 165.06 169.4 157.82 169.31 152.91C169.39 148 170.92 140.76 178.4 136.49C190.51 129.57 212.98 128.71 226.81 106.23C240.64 83.75 235.46 54.37 235.46 54.37H72.1601C72.1601 54.37 67.0001 83.76 80.8101 106.23C94.6201 128.7 117.12 129.57 129.22 136.49C136.7 140.76 138.22 148 138.31 152.91C138.23 157.82 136.7 165.06 129.22 169.34C117.12 176.25 94.6401 177.12 80.8101 199.59C66.9801 222.06 72.1601 251.46 72.1601 251.46H235.46C235.46 251.46 240.64 222.07 226.81 199.59C212.98 177.11 190.51 176.25 178.4 169.34Z" fill="#91EAF2"/>
<path d="M178.21 136.49C190.32 129.57 212.79 128.71 226.62 106.23C240.45 83.75 235.27 54.37 235.27 54.37H153.68V251.46H235.27C235.27 251.46 240.45 222.07 226.62 199.59C212.79 177.11 190.32 176.25 178.21 169.34C170.73 165.06 169.21 157.82 169.12 152.91C169.2 148 170.73 140.76 178.21 136.49Z" fill="#73D2E6"/>
<path d="M139.81 134.32C145.22 137.92 146.33 145.76 146.39 149.89C146.45 154.02 145.22 166.39 139.81 169.99H167.81C162.81 165.94 161.81 153.88 161.73 149.89C161.65 145.9 162.9 137.89 168.31 134.32C177.07 128.51 194.4 128.62 210.7 110.64C211.95 109.26 212.31 63.13 212.94 61.42H76.6001C76.8301 62.06 76.9201 73.75 78.7601 82.49C82.3101 99.39 86.1401 103.1 93.0801 110.81C107.62 127 131.05 128.51 139.81 134.32Z" fill="#FFDF80"/>
<path d="M153.74 170H167.91C162.91 165.95 161.91 153.89 161.83 149.9C161.75 145.91 162.83 137.59 168.41 134.33C177.41 129.12 194.62 126.33 212.41 112.54C222.7 104.54 226.48 94.16 229.35 77.22C229.922 71.9995 230.21 66.7517 230.21 61.5H153.74V170Z" fill="#F2B63D"/>
<path d="M169.36 175.49C169.36 178.514 168.463 181.471 166.783 183.986C165.102 186.5 162.713 188.46 159.919 189.617C157.124 190.774 154.05 191.076 151.083 190.485C148.117 189.895 145.393 188.437 143.255 186.298C141.117 184.159 139.661 181.433 139.073 178.467C138.484 175.5 138.788 172.426 139.947 169.632C141.106 166.838 143.067 164.451 145.583 162.772C148.098 161.093 151.056 160.198 154.08 160.2C156.087 160.2 158.075 160.596 159.93 161.364C161.784 162.133 163.469 163.259 164.888 164.679C166.307 166.099 167.432 167.784 168.2 169.639C168.967 171.494 169.361 173.483 169.36 175.49V175.49Z" fill="#F2B63D"/>
<path d="M165.28 175.49C165.28 177.708 164.622 179.875 163.39 181.719C162.158 183.563 160.406 184.999 158.357 185.848C156.309 186.696 154.054 186.917 151.879 186.484C149.704 186.05 147.707 184.982 146.14 183.413C144.572 181.844 143.505 179.846 143.074 177.671C142.643 175.496 142.866 173.241 143.716 171.193C144.566 169.145 146.004 167.395 147.849 166.164C149.694 164.934 151.862 164.278 154.08 164.28C155.552 164.28 157.009 164.57 158.368 165.133C159.728 165.697 160.963 166.523 162.003 167.564C163.043 168.605 163.868 169.841 164.43 171.201C164.992 172.561 165.281 174.018 165.28 175.49V175.49Z" fill="#FFDF80"/>
<path d="M169.36 210.34C169.36 213.364 168.463 216.321 166.783 218.836C165.102 221.35 162.713 223.31 159.919 224.467C157.124 225.624 154.05 225.926 151.083 225.335C148.117 224.745 145.393 223.287 143.255 221.148C141.117 219.009 139.661 216.283 139.073 213.317C138.484 210.35 138.788 207.276 139.947 204.482C141.106 201.688 143.067 199.301 145.583 197.622C148.098 195.943 151.056 195.048 154.08 195.05C156.087 195.05 158.075 195.446 159.93 196.214C161.784 196.983 163.469 198.109 164.888 199.529C166.307 200.949 167.432 202.635 168.2 204.49C168.967 206.345 169.361 208.333 169.36 210.34V210.34Z" fill="#F2B63D"/>
<path d="M165.28 210.34C165.28 212.558 164.622 214.725 163.39 216.569C162.158 218.413 160.406 219.849 158.357 220.698C156.309 221.546 154.054 221.767 151.879 221.334C149.704 220.901 147.707 219.832 146.14 218.263C144.572 216.694 143.505 214.696 143.074 212.521C142.643 210.346 142.866 208.091 143.716 206.043C144.566 203.995 146.004 202.245 147.849 201.014C149.694 199.784 151.862 199.128 154.08 199.13C155.552 199.129 157.01 199.418 158.37 199.981C159.73 200.544 160.966 201.37 162.006 202.411C163.046 203.452 163.871 204.689 164.433 206.049C164.995 207.41 165.283 208.868 165.28 210.34V210.34Z" fill="#FFDF80"/>
<path d="M131.06 179.25C133.676 180.762 135.785 183.016 137.12 185.727C138.456 188.437 138.957 191.483 138.562 194.479C138.166 197.475 136.892 200.286 134.899 202.557C132.906 204.828 130.284 206.458 127.365 207.239C124.446 208.021 121.361 207.919 118.5 206.947C115.638 205.976 113.13 204.177 111.29 201.78C109.451 199.383 108.364 196.494 108.166 193.478C107.968 190.463 108.669 187.457 110.18 184.84C112.209 181.331 115.547 178.771 119.463 177.723C123.378 176.675 127.549 177.224 131.06 179.25Z" fill="#F2B63D"/>
<path d="M129 182.78C130.92 183.888 132.469 185.542 133.45 187.53C134.431 189.519 134.8 191.754 134.51 193.952C134.221 196.15 133.286 198.214 131.824 199.881C130.361 201.548 128.438 202.744 126.296 203.317C124.154 203.891 121.89 203.816 119.791 203.103C117.691 202.39 115.85 201.07 114.501 199.311C113.151 197.551 112.354 195.431 112.21 193.218C112.065 191.006 112.581 188.8 113.69 186.88C114.425 185.605 115.405 184.487 116.573 183.591C117.74 182.694 119.073 182.037 120.495 181.656C121.917 181.275 123.4 181.179 124.859 181.372C126.319 181.564 127.726 182.043 129 182.78V182.78Z" fill="#FFDF80"/>
<path d="M115.16 214.3C117.777 212.789 120.783 212.089 123.798 212.286C126.814 212.484 129.703 213.571 132.1 215.41C134.498 217.25 136.296 219.759 137.267 222.62C138.239 225.481 138.341 228.566 137.559 231.485C136.778 234.404 135.148 237.026 132.877 239.019C130.606 241.012 127.795 242.287 124.799 242.682C121.803 243.077 118.757 242.576 116.047 241.241C113.336 239.905 111.082 237.796 109.57 235.18C107.544 231.67 106.995 227.498 108.043 223.583C109.091 219.668 111.651 216.329 115.16 214.3V214.3Z" fill="#F2B63D"/>
<path d="M117.2 217.83C119.12 216.721 121.326 216.205 123.538 216.35C125.751 216.494 127.871 217.291 129.631 218.641C131.39 219.99 132.71 221.831 133.423 223.931C134.136 226.03 134.211 228.294 133.637 230.436C133.063 232.578 131.868 234.501 130.201 235.964C128.534 237.426 126.47 238.361 124.272 238.65C122.074 238.94 119.839 238.571 117.85 237.59C115.862 236.609 114.208 235.06 113.1 233.14C112.363 231.866 111.884 230.459 111.691 228.999C111.499 227.54 111.595 226.057 111.976 224.635C112.357 223.213 113.014 221.88 113.911 220.713C114.807 219.545 115.925 218.565 117.2 217.83V217.83Z" fill="#FFDF80"/>
<path d="M137.57 245.59C137.57 242.565 138.467 239.609 140.148 237.094C141.828 234.58 144.217 232.62 147.011 231.463C149.806 230.306 152.88 230.004 155.847 230.595C158.813 231.185 161.537 232.643 163.675 234.782C165.813 236.921 167.269 239.647 167.857 242.613C168.446 245.58 168.142 248.654 166.983 251.448C165.825 254.242 163.863 256.629 161.347 258.308C158.832 259.987 155.875 260.882 152.85 260.88C150.843 260.88 148.855 260.484 147 259.716C145.146 258.947 143.461 257.821 142.042 256.401C140.623 254.981 139.498 253.295 138.73 251.44C137.963 249.585 137.569 247.597 137.57 245.59V245.59Z" fill="#F2B63D"/>
<path d="M141.64 245.59C141.64 243.373 142.297 241.206 143.529 239.362C144.761 237.519 146.512 236.082 148.56 235.233C150.608 234.385 152.862 234.163 155.037 234.595C157.211 235.028 159.209 236.096 160.777 237.663C162.344 239.231 163.412 241.229 163.844 243.403C164.277 245.578 164.055 247.832 163.207 249.88C162.358 251.928 160.921 253.679 159.078 254.911C157.234 256.143 155.067 256.8 152.85 256.8C149.877 256.8 147.026 255.619 144.923 253.517C142.821 251.414 141.64 248.563 141.64 245.59V245.59Z" fill="#FFDF80"/>
<path d="M175.87 241.83C173.254 240.318 171.145 238.064 169.809 235.353C168.474 232.643 167.973 229.597 168.368 226.601C168.763 223.605 170.038 220.794 172.031 218.523C174.024 216.252 176.646 214.622 179.565 213.841C182.484 213.059 185.569 213.161 188.43 214.133C191.291 215.104 193.8 216.902 195.64 219.3C197.479 221.697 198.566 224.586 198.764 227.602C198.961 230.617 198.261 233.623 196.75 236.24C194.721 239.749 191.382 242.309 187.467 243.357C183.552 244.405 179.38 243.856 175.87 241.83Z" fill="#F2B63D"/>
<path d="M177.91 238.3C175.99 237.192 174.441 235.538 173.46 233.55C172.479 231.561 172.11 229.326 172.4 227.128C172.689 224.929 173.624 222.866 175.086 221.199C176.549 219.532 178.472 218.336 180.614 217.763C182.756 217.189 185.02 217.264 187.119 217.977C189.219 218.69 191.06 220.01 192.409 221.769C193.759 223.529 194.556 225.649 194.7 227.862C194.845 230.074 194.329 232.28 193.22 234.2C192.485 235.475 191.505 236.593 190.337 237.489C189.17 238.386 187.837 239.043 186.415 239.424C184.993 239.805 183.51 239.901 182.051 239.708C180.591 239.516 179.184 239.037 177.91 238.3V238.3Z" fill="#FFDF80"/>
<path d="M158.35 248.17C158.367 248.71 158.261 249.246 158.039 249.738C157.817 250.231 157.486 250.666 157.07 251.01C156.038 251.79 154.792 252.236 153.5 252.29V254.56H152V252.33C150.366 252.314 148.752 251.974 147.25 251.33V248.4C148.748 249.094 150.355 249.523 152 249.67V246.23L151.25 245.95C150.087 245.557 149.025 244.912 148.14 244.06C147.525 243.371 147.199 242.473 147.23 241.55C147.221 241.042 147.33 240.539 147.548 240.081C147.767 239.623 148.089 239.222 148.49 238.91C149.513 238.166 150.736 237.745 152 237.7V236H153.52V237.65C155.098 237.699 156.654 238.038 158.11 238.65L157.11 241.25C155.976 240.786 154.78 240.493 153.56 240.38V243.66C154.633 244.034 155.665 244.516 156.64 245.1C157.181 245.441 157.639 245.899 157.98 246.44C158.254 246.974 158.382 247.571 158.35 248.17V248.17ZM150.55 241.6C150.541 241.752 150.567 241.904 150.626 242.044C150.685 242.185 150.775 242.31 150.89 242.41C151.218 242.681 151.586 242.9 151.98 243.06V240.45C151 240.59 150.55 241 150.55 241.6V241.6ZM155.01 248.34C155.011 248.188 154.977 248.038 154.911 247.901C154.845 247.764 154.749 247.644 154.63 247.55C154.286 247.276 153.906 247.05 153.5 246.88V249.65C154.5 249.48 155 249 155 248.34H155.01Z" fill="#F2B63D"/>
<path d="M191.77 206.78C189.153 208.291 186.147 208.992 183.131 208.794C180.116 208.596 177.227 207.509 174.83 205.67C172.432 203.83 170.634 201.321 169.662 198.46C168.691 195.599 168.589 192.514 169.371 189.595C170.152 186.676 171.781 184.054 174.053 182.061C176.324 180.068 179.135 178.794 182.131 178.398C185.127 178.003 188.172 178.504 190.883 179.84C193.594 181.175 195.848 183.284 197.36 185.9C199.386 189.411 199.935 193.582 198.887 197.497C197.839 201.412 195.279 204.751 191.77 206.78Z" fill="#F2B63D"/>
<path d="M189.73 203.25C187.81 204.359 185.604 204.875 183.392 204.73C181.179 204.586 179.059 203.789 177.299 202.439C175.54 201.09 174.22 199.249 173.507 197.149C172.794 195.05 172.719 192.786 173.293 190.644C173.867 188.502 175.062 186.579 176.729 185.116C178.396 183.654 180.46 182.719 182.658 182.43C184.856 182.14 187.091 182.509 189.08 183.49C191.069 184.471 192.722 186.02 193.83 187.94C194.567 189.214 195.046 190.621 195.239 192.081C195.431 193.54 195.335 195.023 194.954 196.445C194.573 197.867 193.916 199.2 193.019 200.367C192.123 201.535 191.005 202.515 189.73 203.25Z" fill="#FFDF80"/>
<path d="M243.75 29.81H61.5601V55.49H243.75V29.81Z" fill="#FF764D"/>
<path d="M243.75 29.81H61.5601V48.15H243.75V29.81Z" fill="#FF916E"/>
<path d="M243.75 30.19H61.5601V38.53H243.75V30.19Z" fill="#FFA694"/>
<path d="M243.75 250.33H61.5601V276.01H243.75V250.33Z" fill="#FF764D"/>
<path d="M243.75 257.67H61.5601V276.01H243.75V257.67Z" fill="#FF916E"/>
<path d="M160 177.86C160.017 178.4 159.911 178.936 159.689 179.428C159.467 179.921 159.136 180.356 158.72 180.7C157.688 181.48 156.442 181.926 155.15 181.98V184.25H153.63V182C151.996 181.989 150.38 181.649 148.88 181V178.07C149.623 178.427 150.401 178.708 151.2 178.91C151.994 179.136 152.807 179.283 153.63 179.35V176L152.88 175.71C151.719 175.316 150.658 174.675 149.77 173.83C149.156 173.137 148.831 172.235 148.86 171.31C148.851 170.802 148.96 170.299 149.178 169.841C149.397 169.383 149.719 168.982 150.12 168.67C151.14 167.912 152.361 167.474 153.63 167.41V165.71H155.15V167.37C156.729 167.414 158.286 167.753 159.74 168.37L158.74 170.97C157.607 170.504 156.41 170.214 155.19 170.11V173.38C156.263 173.754 157.295 174.236 158.27 174.82C158.809 175.163 159.267 175.621 159.61 176.16C159.891 176.681 160.025 177.269 160 177.86ZM152.2 171.29C152.191 171.442 152.217 171.594 152.276 171.734C152.335 171.875 152.425 172 152.54 172.1C152.868 172.371 153.236 172.59 153.63 172.75V170.14C152.71 170.28 152.23 170.67 152.23 171.29H152.2ZM156.66 178.03C156.661 177.878 156.627 177.728 156.561 177.591C156.495 177.454 156.399 177.334 156.28 177.24C155.933 176.969 155.554 176.744 155.15 176.57V179.34C156.18 179.17 156.69 178.73 156.69 178L156.66 178.03Z" fill="#F2B63D"/>
<path d="M129.15 195C129.169 195.539 129.065 196.075 128.845 196.567C128.624 197.06 128.294 197.495 127.88 197.84C126.843 198.617 125.595 199.063 124.3 199.12V201.39H122.78V199.16C121.153 199.159 119.542 198.836 118.04 198.21V195.28C118.783 195.638 119.56 195.92 120.36 196.12C121.149 196.348 121.96 196.492 122.78 196.55V193.11L122.04 192.83C120.879 192.436 119.818 191.795 118.93 190.95C118.314 190.258 117.985 189.356 118.01 188.43C118.001 187.922 118.11 187.419 118.328 186.961C118.547 186.503 118.869 186.102 119.27 185.79C120.287 185.028 121.51 184.589 122.78 184.53V182.83H124.3V184.48C125.882 184.528 127.441 184.867 128.9 185.48L127.85 188.08C126.718 187.609 125.521 187.316 124.3 187.21V190.49C125.374 190.861 126.406 191.344 127.38 191.93C127.924 192.271 128.385 192.728 128.73 193.27C129.022 193.799 129.167 194.396 129.15 195V195ZM121.35 188.43C121.347 188.581 121.375 188.732 121.434 188.871C121.492 189.011 121.58 189.136 121.69 189.24C122.02 189.509 122.387 189.727 122.78 189.89V187.28C121.83 187.4 121.35 187.78 121.35 188.41V188.43ZM125.81 195.17C125.812 195.019 125.78 194.869 125.716 194.732C125.652 194.596 125.557 194.475 125.44 194.38C125.092 194.106 124.709 193.881 124.3 193.71V196.48C125.31 196.28 125.81 195.85 125.81 195.15V195.17Z" fill="#F2B63D"/>
<path d="M159.72 213.32C159.739 213.859 159.635 214.395 159.415 214.887C159.195 215.38 158.865 215.815 158.45 216.16C157.413 216.938 156.165 217.385 154.87 217.44V219.71H153.35V217.48C151.72 217.478 150.106 217.155 148.6 216.53V213.6C149.347 213.956 150.127 214.238 150.93 214.44C151.719 214.669 152.53 214.813 153.35 214.87V211.44L152.61 211.15C151.449 210.756 150.388 210.115 149.5 209.27C148.884 208.578 148.555 207.676 148.58 206.75C148.571 206.242 148.68 205.739 148.898 205.281C149.117 204.823 149.439 204.422 149.84 204.11C150.86 203.352 152.081 202.914 153.35 202.85V201.15H154.87V202.8C156.452 202.843 158.013 203.182 159.47 203.8L158.42 206.39C157.288 205.922 156.091 205.632 154.87 205.53V208.8C155.944 209.171 156.976 209.654 157.95 210.24C158.494 210.578 158.952 211.036 159.29 211.58C159.592 212.109 159.74 212.711 159.72 213.32V213.32ZM151.92 206.75C151.917 206.901 151.945 207.052 152.004 207.191C152.062 207.331 152.15 207.456 152.26 207.56C152.587 207.832 152.955 208.051 153.35 208.21V205.6C152.4 205.74 151.92 206.12 151.92 206.75ZM156.38 213.49C156.381 213.338 156.347 213.188 156.281 213.051C156.215 212.914 156.119 212.794 156 212.7C155.655 212.427 155.275 212.202 154.87 212.03V214.8C155.88 214.63 156.38 214.19 156.38 213.49Z" fill="#F2B63D"/>
<path d="M190.14 196.2C190.157 196.74 190.051 197.276 189.829 197.768C189.607 198.261 189.276 198.696 188.86 199.04C187.828 199.82 186.582 200.266 185.29 200.32V202.59H183.77V200.36C182.135 200.349 180.52 200.009 179.02 199.36V196.43C179.766 196.788 180.547 197.07 181.35 197.27C182.14 197.497 182.951 197.644 183.77 197.71V194.27L183 194C181.833 193.612 180.768 192.97 179.88 192.12C179.268 191.43 178.942 190.532 178.97 189.61C178.959 189.101 179.067 188.596 179.286 188.136C179.505 187.676 179.828 187.273 180.23 186.96C181.25 186.202 182.471 185.764 183.74 185.7V184H185.26V185.66C186.839 185.699 188.397 186.038 189.85 186.66L188.85 189.25C187.717 188.784 186.52 188.494 185.3 188.39V191.66C186.37 192.042 187.401 192.524 188.38 193.1C188.921 193.44 189.379 193.898 189.72 194.44C190.022 194.976 190.167 195.586 190.14 196.2V196.2ZM182.34 189.64C182.333 189.79 182.36 189.94 182.418 190.079C182.477 190.217 182.567 190.341 182.68 190.44C183.005 190.714 183.374 190.934 183.77 191.09V188.48C182.81 188.62 182.34 189 182.34 189.64V189.64ZM186.8 196.37C186.801 196.218 186.767 196.068 186.701 195.931C186.635 195.794 186.539 195.674 186.42 195.58C186.073 195.313 185.693 195.091 185.29 194.92V197.68C186.29 197.51 186.8 197.07 186.8 196.37V196.37Z" fill="#F2B63D"/>
<path d="M189.37 231.51C189.389 232.049 189.285 232.585 189.065 233.077C188.845 233.57 188.515 234.005 188.1 234.35C187.065 235.132 185.816 235.578 184.52 235.63V237.9H183V235.67C181.37 235.67 179.755 235.347 178.25 234.72V231.79C179.748 232.484 181.355 232.913 183 233.06V229.62L182.25 229.34C181.087 228.947 180.025 228.302 179.14 227.45C178.523 226.762 178.193 225.864 178.22 224.94C178.211 224.432 178.32 223.929 178.538 223.471C178.757 223.013 179.079 222.612 179.48 222.3C180.496 221.523 181.723 221.069 183 221V219.3H184.51V221C186.092 221.048 187.651 221.387 189.11 222L188.11 224.6C186.973 224.135 185.773 223.842 184.55 223.73V227C185.624 227.372 186.656 227.854 187.63 228.44C188.184 228.784 188.652 229.249 189 229.8C189.271 230.328 189.398 230.917 189.37 231.51V231.51ZM181.57 224.94C181.567 225.091 181.595 225.242 181.654 225.381C181.713 225.521 181.8 225.646 181.91 225.75C182.242 226.02 182.613 226.24 183.01 226.4V223.79C182.05 223.93 181.57 224.31 181.57 224.94ZM186.03 231.68C186.032 231.529 186 231.379 185.936 231.243C185.872 231.106 185.777 230.985 185.66 230.89C185.31 230.62 184.927 230.394 184.52 230.22V233C185.53 232.82 186 232.38 186 231.68H186.03Z" fill="#F2B63D"/>
<path d="M128.24 230.13C128.268 230.672 128.171 231.212 127.956 231.71C127.741 232.208 127.414 232.649 127 233C125.968 233.78 124.722 234.226 123.43 234.28V236.55H121.91V234.32C120.279 234.325 118.664 234.001 117.16 233.37V230.44C117.905 230.796 118.682 231.08 119.48 231.29C120.275 231.508 121.088 231.652 121.91 231.72V228.28L121.16 227.99C119.997 227.6 118.935 226.958 118.05 226.11C117.437 225.42 117.111 224.522 117.14 223.6C117.129 223.091 117.237 222.586 117.456 222.126C117.675 221.666 117.998 221.263 118.4 220.95C119.419 220.191 120.641 219.752 121.91 219.69V218H123.43V219.66C125.01 219.699 126.567 220.038 128.02 220.66L127.02 223.25C125.887 222.784 124.69 222.494 123.47 222.39V225.66C124.54 226.042 125.571 226.524 126.55 227.1C127.092 227.444 127.55 227.905 127.89 228.45C128.151 228.97 128.272 229.549 128.24 230.13V230.13ZM120.44 223.57C120.436 223.719 120.463 223.867 120.52 224.005C120.576 224.143 120.662 224.267 120.77 224.37C121.099 224.644 121.471 224.864 121.87 225.02V222.41C120.91 222.55 120.44 222.94 120.44 223.57V223.57ZM124.9 230.3C124.901 230.148 124.867 229.998 124.801 229.861C124.735 229.724 124.639 229.604 124.52 229.51C124.173 229.243 123.793 229.021 123.39 228.85V231.61C124.39 231.44 124.9 231 124.9 230.3V230.3Z" fill="#F2B63D"/>
<path d="M109.08 71.77H98.0801V98.06H109.08V71.77Z" fill="white"/>
<path d="M156.93 33.64H78.6699V38.53H156.93V33.64Z" fill="white"/>
<path d="M166.247 128.857C183.264 121.637 191.206 101.99 183.987 84.973C176.767 67.9562 157.119 60.0141 140.103 67.2338C123.086 74.4535 115.144 94.101 122.363 111.118C129.583 128.135 149.231 136.077 166.247 128.857Z" fill="#FF764D"/>
<path d="M184.858 103.146C187.668 85.6585 175.77 69.2039 158.283 66.3934C140.795 63.583 124.341 75.4811 121.53 92.9684C118.72 110.456 130.618 126.91 148.105 129.721C165.592 132.531 182.047 120.633 184.858 103.146Z" fill="#FF916E"/>
<path d="M182.07 98C182.07 103.714 180.376 109.299 177.201 114.05C174.027 118.801 169.515 122.504 164.236 124.691C158.957 126.877 153.148 127.45 147.544 126.335C141.94 125.22 136.792 122.469 132.752 118.428C128.711 114.388 125.96 109.24 124.845 103.636C123.73 98.032 124.303 92.2232 126.489 86.9443C128.676 81.6653 132.379 77.1533 137.13 73.9788C141.881 70.8044 147.466 69.11 153.18 69.11C160.842 69.11 168.19 72.1537 173.608 77.5717C179.026 82.9896 182.07 90.3379 182.07 98V98Z" fill="#FF764D"/>
<path d="M180.25 98C180.264 103.357 178.688 108.597 175.722 113.058C172.756 117.519 168.533 121 163.588 123.059C158.643 125.119 153.198 125.665 147.942 124.628C142.686 123.592 137.856 121.019 134.064 117.236C130.271 113.453 127.686 108.63 126.635 103.377C125.585 98.1239 126.117 92.6775 128.164 87.727C130.211 82.7765 133.68 78.5446 138.133 75.567C142.587 72.5894 147.823 71 153.18 71C160.347 71 167.222 73.8424 172.297 78.9039C177.371 83.9653 180.231 90.8327 180.25 98V98Z" fill="#2E3D4D"/>
<path d="M153.18 100.15L140.42 92.79L141.61 90.74L153.19 97.42L169.95 87.39L171.13 89.44L153.18 100.15Z" fill="white"/>
<path d="M156.42 98C156.42 98.6408 156.23 99.2672 155.874 99.8C155.518 100.333 155.012 100.748 154.42 100.993C153.828 101.239 153.176 101.303 152.548 101.178C151.919 101.053 151.342 100.744 150.889 100.291C150.436 99.8379 150.127 99.2606 150.002 98.6321C149.877 98.0036 149.941 97.3521 150.187 96.7601C150.432 96.168 150.847 95.662 151.38 95.306C151.913 94.95 152.539 94.76 153.18 94.76C153.606 94.7586 154.028 94.8415 154.421 95.0039C154.815 95.1663 155.173 95.4049 155.474 95.706C155.775 96.0071 156.014 96.3648 156.176 96.7585C156.338 97.1522 156.421 97.5741 156.42 98V98Z" fill="#FF764D"/>
<path d="M154.22 75.47C154.22 75.7445 154.111 76.0078 153.917 76.2019C153.723 76.396 153.459 76.505 153.185 76.505C152.91 76.505 152.647 76.396 152.453 76.2019C152.259 76.0078 152.15 75.7445 152.15 75.47C152.15 75.1955 152.259 74.9322 152.453 74.7381C152.647 74.544 152.91 74.435 153.185 74.435C153.459 74.435 153.723 74.544 153.917 74.7381C154.111 74.9322 154.22 75.1955 154.22 75.47Z" fill="white"/>
<path d="M142.8 78C142.89 78.1721 142.929 78.3667 142.91 78.5602C142.892 78.7537 142.817 78.9376 142.696 79.0894C142.575 79.2412 142.412 79.3544 142.227 79.415C142.042 79.4757 141.844 79.4813 141.656 79.431C141.469 79.3808 141.3 79.2769 141.17 79.1321C141.04 78.9874 140.956 78.8079 140.926 78.6158C140.897 78.4237 140.924 78.2272 141.005 78.0503C141.085 77.8734 141.216 77.7239 141.38 77.62C141.497 77.5462 141.628 77.4973 141.764 77.4765C141.901 77.4556 142.04 77.4633 142.173 77.499C142.307 77.5347 142.431 77.5977 142.539 77.6839C142.647 77.7701 142.736 77.8777 142.8 78Z" fill="white"/>
<path d="M134.16 85.86C134.324 85.9639 134.455 86.1134 134.535 86.2903C134.616 86.4671 134.643 86.6636 134.614 86.8558C134.585 87.0479 134.5 87.2273 134.37 87.3721C134.241 87.5169 134.071 87.6208 133.884 87.671C133.696 87.7213 133.498 87.7157 133.313 87.655C133.128 87.5944 132.965 87.4812 132.844 87.3294C132.723 87.1775 132.648 86.9937 132.63 86.8002C132.611 86.6067 132.65 86.412 132.74 86.24C132.804 86.1177 132.893 86.0101 133.001 85.9239C133.109 85.8376 133.233 85.7747 133.367 85.739C133.5 85.7033 133.639 85.6956 133.776 85.7164C133.913 85.7373 134.043 85.7861 134.16 85.86Z" fill="white"/>
<path d="M130.62 97C130.818 97 131.011 97.0587 131.176 97.1685C131.34 97.2784 131.468 97.4346 131.544 97.6173C131.62 97.8 131.639 98.0011 131.601 98.1951C131.562 98.3891 131.467 98.5673 131.327 98.7071C131.187 98.847 131.009 98.9422 130.815 98.9808C130.621 99.0194 130.42 98.9996 130.237 98.9239C130.055 98.8482 129.899 98.72 129.789 98.5556C129.679 98.3911 129.62 98.1978 129.62 98C129.62 97.7348 129.725 97.4804 129.913 97.2929C130.101 97.1054 130.355 97 130.62 97Z" fill="white"/>
<path d="M133.12 108.43C133.236 108.356 133.366 108.306 133.502 108.285C133.638 108.263 133.777 108.27 133.911 108.305C134.044 108.34 134.169 108.401 134.277 108.487C134.385 108.572 134.475 108.679 134.54 108.8C134.675 109.039 134.711 109.322 134.64 109.588C134.569 109.853 134.397 110.08 134.16 110.22C134.042 110.286 133.913 110.328 133.779 110.343C133.646 110.359 133.51 110.348 133.381 110.311C133.251 110.275 133.13 110.213 133.024 110.129C132.919 110.046 132.831 109.943 132.765 109.825C132.699 109.707 132.657 109.578 132.642 109.444C132.626 109.311 132.637 109.175 132.674 109.046C132.71 108.916 132.772 108.795 132.856 108.689C132.939 108.584 133.042 108.496 133.16 108.43H133.12Z" fill="white"/>
<path d="M141 117.06C141.104 116.896 141.253 116.765 141.43 116.685C141.607 116.604 141.804 116.577 141.996 116.606C142.188 116.635 142.367 116.72 142.512 116.85C142.657 116.979 142.761 117.148 142.811 117.336C142.861 117.524 142.856 117.722 142.795 117.907C142.734 118.092 142.621 118.255 142.469 118.376C142.317 118.497 142.134 118.572 141.94 118.59C141.747 118.609 141.552 118.57 141.38 118.48C141.143 118.34 140.971 118.113 140.9 117.848C140.829 117.582 140.865 117.299 141 117.06V117.06Z" fill="white"/>
<path d="M152.15 120.61C152.15 120.412 152.209 120.219 152.318 120.054C152.428 119.89 152.585 119.762 152.767 119.686C152.95 119.61 153.151 119.591 153.345 119.629C153.539 119.668 153.717 119.763 153.857 119.903C153.997 120.043 154.092 120.221 154.131 120.415C154.169 120.609 154.149 120.81 154.074 120.993C153.998 121.175 153.87 121.332 153.705 121.441C153.541 121.551 153.348 121.61 153.15 121.61C152.885 121.61 152.63 121.505 152.443 121.317C152.255 121.13 152.15 120.875 152.15 120.61Z" fill="white"/>
<path d="M163.57 118.1C163.504 117.982 163.462 117.853 163.447 117.719C163.431 117.586 163.442 117.45 163.478 117.321C163.515 117.191 163.577 117.07 163.66 116.964C163.744 116.859 163.847 116.771 163.965 116.705C164.082 116.639 164.212 116.597 164.345 116.582C164.479 116.566 164.615 116.577 164.744 116.614C164.874 116.65 164.995 116.712 165.1 116.796C165.206 116.879 165.294 116.982 165.36 117.1C165.492 117.337 165.525 117.618 165.451 117.879C165.377 118.141 165.202 118.362 164.965 118.495C164.728 118.628 164.447 118.66 164.186 118.586C163.924 118.512 163.703 118.337 163.57 118.1V118.1Z" fill="white"/>
<path d="M172.21 110.22C172.044 110.117 171.912 109.968 171.83 109.791C171.748 109.615 171.72 109.418 171.748 109.225C171.776 109.032 171.86 108.851 171.99 108.706C172.12 108.56 172.289 108.455 172.477 108.405C172.665 108.354 172.864 108.359 173.05 108.42C173.235 108.481 173.398 108.595 173.52 108.747C173.641 108.9 173.715 109.084 173.733 109.279C173.751 109.473 173.712 109.668 173.62 109.84C173.556 109.961 173.467 110.067 173.36 110.152C173.253 110.238 173.13 110.3 172.998 110.336C172.865 110.371 172.727 110.38 172.592 110.36C172.456 110.34 172.326 110.292 172.21 110.22Z" fill="white"/>
<path d="M175.75 99.07C175.476 99.07 175.212 98.961 175.018 98.7669C174.824 98.5728 174.715 98.3095 174.715 98.035C174.715 97.7605 174.824 97.4972 175.018 97.3031C175.212 97.109 175.476 97 175.75 97C176.025 97 176.288 97.109 176.482 97.3031C176.676 97.4972 176.785 97.7605 176.785 98.035C176.785 98.3095 176.676 98.5728 176.482 98.7669C176.288 98.961 176.025 99.07 175.75 99.07Z" fill="white"/>
<path d="M173.25 87.65C173.133 87.7238 173.003 87.7727 172.866 87.7935C172.73 87.8143 172.59 87.8066 172.457 87.7709C172.323 87.7352 172.199 87.6723 172.091 87.5861C171.983 87.4999 171.894 87.3922 171.83 87.27C171.74 87.0979 171.701 86.9032 171.72 86.7098C171.738 86.5163 171.813 86.3324 171.934 86.1806C172.056 86.0288 172.218 85.9156 172.403 85.8549C172.588 85.7942 172.786 85.7887 172.974 85.8389C173.162 85.8892 173.331 85.993 173.46 86.1378C173.59 86.2826 173.675 86.462 173.704 86.6542C173.733 86.8463 173.706 87.0428 173.625 87.2197C173.545 87.3965 173.414 87.546 173.25 87.65V87.65Z" fill="white"/>
<path d="M165.36 79C165.227 79.2374 165.006 79.4123 164.744 79.4864C164.483 79.5605 164.202 79.5276 163.965 79.395C163.728 79.2624 163.553 79.0409 163.478 78.7793C163.404 78.5177 163.437 78.2374 163.57 78C163.636 77.8825 163.724 77.779 163.829 77.6955C163.935 77.6121 164.056 77.5503 164.186 77.5136C164.315 77.4769 164.451 77.4661 164.584 77.4818C164.718 77.4975 164.847 77.5393 164.965 77.605C165.082 77.6706 165.186 77.7588 165.269 77.8645C165.353 77.9701 165.415 78.0911 165.451 78.2207C165.488 78.3502 165.499 78.4857 165.483 78.6194C165.467 78.7531 165.426 78.8825 165.36 79V79Z" fill="white"/>
<path d="M243.75 267.94H61.5601V276.28H243.75V267.94Z" fill="#FFA694"/>
<path d="M189.34 263H75.01V267.89H189.34V263Z" fill="white"/>
</g>
<defs>
<clipPath id="clip0_70_832">
<rect width="297.63" height="290.27" fill="white"/>
</clipPath>
</defs>
</svg>
