<svg width="399" height="371" viewBox="0 0 399 371" fill="none" xmlns="http://www.w3.org/2000/svg">
<path d="M59.3285 332.062H24.1786V332.318H59.3285V332.062Z" fill="#E6E6E6"/>
<path d="M76.5662 332.062H66.0621V332.318H76.5662V332.062Z" fill="#E6E6E6"/>
<path d="M128.392 327.045H108.61V327.3H128.392V327.045Z" fill="#E6E6E6"/>
<path d="M382.984 337.733H338.852V337.988H382.984V337.733Z" fill="#E6E6E6"/>
<path d="M398.556 337.733H392.088V337.988H398.556V337.733Z" fill="#E6E6E6"/>
<path d="M350.021 328.762H254.298V329.017H350.021V328.762Z" fill="#E6E6E6"/>
<path d="M371.141 184.606H299.544V323.867H371.141V184.606Z" fill="#F5F5F5"/>
<path d="M371.141 184.606H365.235V323.867H371.141V184.606Z" fill="#F0F0F0"/>
<path d="M140.214 218.663L305.061 218.663V188.581L140.214 188.581V218.663Z" fill="#E0E0E0"/>
<path d="M208.951 323.969H138.273C138.002 323.969 137.742 323.862 137.55 323.67C137.359 323.478 137.251 323.219 137.251 322.948C137.251 322.677 137.359 322.417 137.55 322.225C137.742 322.033 138.002 321.926 138.273 321.926H208.951C219.169 321.926 220.528 318.942 220.528 307.11V157.927C220.528 157.656 220.635 157.396 220.827 157.204C221.019 157.013 221.278 156.905 221.549 156.905C221.82 156.905 222.08 157.013 222.272 157.204C222.464 157.396 222.571 157.656 222.571 157.927V307.11C222.571 319.76 220.609 323.969 208.951 323.969Z" fill="#E0E0E0"/>
<path d="M146.549 195.59L369.527 195.59V185.148L146.549 185.148V195.59Z" fill="#F0F0F0"/>
<path d="M148.164 184.606H76.5663V323.867H148.164V184.606Z" fill="#F5F5F5"/>
<path d="M148.154 184.606H142.248V323.867H148.154V184.606Z" fill="#F0F0F0"/>
<path d="M97.4621 323.867L97.4621 75.8763H36.0213L36.0213 323.867H97.4621Z" fill="#FAFAFA"/>
<path d="M94.0902 137.818V83.1208H39.3932V137.818H94.0902Z" fill="#F5F5F5"/>
<path d="M54.6281 82.3851H78.8857C78.8857 83.8892 78.2882 85.3316 77.2247 86.3951C76.1612 87.4586 74.7187 88.0561 73.2147 88.0561H60.34C59.5918 88.0615 58.85 87.9188 58.1573 87.6362C57.4645 87.3536 56.8345 86.9368 56.3036 86.4096C55.7726 85.8825 55.3512 85.2555 55.0637 84.5648C54.7762 83.8741 54.6281 83.1333 54.6281 82.3851V82.3851Z" fill="#E0E0E0"/>
<path d="M94.0799 197.42V142.723H39.3829V197.42H94.0799Z" fill="#F5F5F5"/>
<path d="M94.0902 257.021V202.324H39.3932V257.021H94.0902Z" fill="#F5F5F5"/>
<path d="M94.0902 316.633V261.936H39.3932V316.633H94.0902Z" fill="#F5F5F5"/>
<path d="M54.6281 141.997H78.8857C78.883 143.5 78.2846 144.941 77.2217 146.004C76.1588 147.067 74.7179 147.665 73.2147 147.668H60.34C59.5922 147.672 58.851 147.528 58.1588 147.245C57.4667 146.962 56.8372 146.545 56.3066 146.018C55.7759 145.492 55.3545 144.865 55.0664 144.175C54.7784 143.485 54.6295 142.745 54.6281 141.997Z" fill="#E0E0E0"/>
<path d="M54.6281 201.599H78.8857C78.8857 203.103 78.2882 204.545 77.2247 205.609C76.1612 206.672 74.7187 207.27 73.2147 207.27H60.34C59.5918 207.275 58.85 207.132 58.1573 206.85C57.4645 206.567 56.8345 206.15 56.3036 205.623C55.7726 205.096 55.3512 204.469 55.0637 203.778C54.7762 203.088 54.6281 202.347 54.6281 201.599V201.599Z" fill="#E0E0E0"/>
<path d="M54.6281 261.2H78.8857C78.8857 262.704 78.2882 264.147 77.2247 265.21C76.1612 266.274 74.7187 266.871 73.2147 266.871H60.34C59.5918 266.877 58.85 266.734 58.1573 266.451C57.4645 266.169 56.8345 265.752 56.3036 265.225C55.7726 264.698 55.3512 264.071 55.0637 263.38C54.7762 262.689 54.6281 261.948 54.6281 261.2V261.2Z" fill="#E0E0E0"/>
<path d="M36.0212 323.867L36.0212 75.8763H5.33654L5.33654 323.867H36.0212Z" fill="#F0F0F0"/>
<path d="M213.14 184.606H197.701L201.451 154.545H216.9L213.14 184.606Z" fill="#F0F0F0"/>
<path d="M216.563 184.606H201.113L204.874 154.545H220.313L216.563 184.606Z" fill="#F5F5F5"/>
<path d="M249.69 184.606H238.522L236.386 181.203H247.544L249.69 184.606Z" fill="#F0F0F0"/>
<path d="M309.527 184.606H241.934L239.799 181.203H300.412L309.527 184.606Z" fill="#FAFAFA"/>
<path d="M164.165 175.982H169.049C171.337 175.982 173.53 176.891 175.147 178.508C176.765 180.125 177.673 182.319 177.673 184.606H155.521C155.521 183.472 155.744 182.349 156.179 181.301C156.614 180.253 157.251 179.302 158.054 178.501C158.857 177.7 159.81 177.065 160.859 176.633C161.907 176.2 163.031 175.979 164.165 175.982V175.982Z" fill="#F0F0F0"/>
<path d="M218.433 169.575H202.994L204.874 154.545H220.313L218.433 169.575Z" fill="#F0F0F0"/>
<path d="M161.652 165.979H270.984C271.199 165.979 271.412 165.933 271.608 165.845C271.804 165.756 271.979 165.627 272.122 165.466C272.264 165.304 272.37 165.114 272.433 164.908C272.496 164.702 272.514 164.486 272.486 164.272L264.067 96.9151C264.022 96.5485 263.844 96.2109 263.567 95.9662C263.291 95.7215 262.934 95.5865 262.565 95.5868H153.263C153.048 95.5866 152.837 95.632 152.641 95.7199C152.446 95.8077 152.271 95.9361 152.129 96.0965C151.987 96.2568 151.881 96.4456 151.818 96.6501C151.754 96.8546 151.735 97.0704 151.761 97.283L160.18 164.65C160.224 165.012 160.398 165.345 160.668 165.589C160.938 165.833 161.288 165.971 161.652 165.979V165.979Z" fill="#F0F0F0"/>
<path d="M163.307 165.979H272.568C272.783 165.979 272.996 165.933 273.192 165.845C273.388 165.756 273.563 165.627 273.705 165.466C273.848 165.304 273.954 165.114 274.017 164.908C274.079 164.702 274.098 164.486 274.07 164.272L265.65 96.9151C265.603 96.5493 265.425 96.2131 265.149 95.9688C264.873 95.7245 264.517 95.5887 264.148 95.5868H154.887C154.673 95.5866 154.461 95.632 154.266 95.7199C154.071 95.8077 153.896 95.9361 153.754 96.0965C153.612 96.2568 153.506 96.4456 153.442 96.6501C153.379 96.8546 153.359 97.0704 153.385 97.283L161.805 164.65C161.85 165.017 162.027 165.354 162.304 165.599C162.581 165.844 162.937 165.979 163.307 165.979V165.979Z" fill="#F5F5F5"/>
<path d="M270.545 162.249L262.667 99.2039C262.652 99.101 262.6 99.007 262.521 98.9394C262.442 98.8717 262.342 98.835 262.238 98.8361H157.329C157.269 98.8339 157.209 98.845 157.154 98.8686C157.099 98.8922 157.049 98.9277 157.009 98.9726C156.969 99.0175 156.94 99.0706 156.923 99.1283C156.906 99.186 156.901 99.2467 156.91 99.3061L164.788 162.361C164.801 162.463 164.851 162.557 164.928 162.625C165.005 162.693 165.105 162.73 165.207 162.729H270.126C270.186 162.728 270.245 162.715 270.3 162.689C270.354 162.664 270.403 162.628 270.442 162.582C270.482 162.537 270.511 162.484 270.529 162.427C270.547 162.369 270.552 162.309 270.545 162.249Z" fill="#E0E0E0"/>
<path d="M230.613 184.606H205.456V184.289C205.456 183.625 205.72 182.989 206.189 182.519C206.659 182.05 207.295 181.786 207.959 181.786H228.109C228.773 181.786 229.41 182.05 229.88 182.519C230.349 182.989 230.613 183.625 230.613 184.289V184.606Z" fill="#FAFAFA"/>
<path d="M208.389 184.606H191.325V184.289C191.325 183.625 191.588 182.989 192.058 182.519C192.527 182.05 193.164 181.786 193.828 181.786H205.885C206.549 181.786 207.186 182.05 207.655 182.519C208.125 182.989 208.389 183.625 208.389 184.289V184.606Z" fill="#F0F0F0"/>
<path d="M61.9852 47.8687V47.8176C62.2202 47.0309 62.445 46.2339 62.6391 45.4369C62.9851 45.9878 63.4557 46.4496 64.0131 46.7851C64.5704 47.1205 65.1988 47.3203 65.8476 47.3681H66.1235C67.8299 47.2046 69.4648 45.5493 70.4968 42.9437C70.5168 42.8968 70.527 42.8464 70.527 42.7955C70.527 42.7446 70.5168 42.6942 70.4968 42.6473C70.4473 42.554 70.3628 42.4842 70.2618 42.4532C69.037 42.1428 67.7605 42.0942 66.5156 42.3108C65.2708 42.5274 64.0856 43.0042 63.0377 43.71C63.1909 42.9539 63.3238 42.1875 63.4362 41.4314C63.7056 41.4834 63.9792 41.5107 64.2536 41.5131C67.0329 41.5131 69.0765 39.0302 69.1787 38.9075C69.2147 38.8625 69.2396 38.8097 69.2514 38.7532C69.2632 38.6968 69.2616 38.6384 69.2467 38.5827C69.2317 38.527 69.2039 38.4756 69.1655 38.4327C69.1271 38.3897 69.0791 38.3563 69.0254 38.3353C68.3798 38.0148 67.6736 37.8345 66.9533 37.8064C66.233 37.7782 65.515 37.9027 64.8462 38.1719C64.1325 38.5349 63.5553 39.1192 63.2011 39.8374C62.6805 38.2385 61.7286 36.8143 60.4504 35.7217C59.1721 34.6291 57.6171 33.9106 55.9566 33.6453C55.905 33.6331 55.8514 33.6332 55.7999 33.6456C55.7484 33.6581 55.7006 33.6824 55.6603 33.7168C55.6174 33.7469 55.5822 33.7866 55.5574 33.8327C55.5325 33.8789 55.5188 33.9301 55.5172 33.9825C55.3741 36.5063 55.4559 39.6024 57.3462 41.0738C58.1369 41.6569 59.103 41.9525 60.0846 41.9116C60.964 41.8905 61.8367 41.753 62.68 41.5029C62.4101 43.329 62.0175 45.1349 61.505 46.9082C59.6557 44.3886 57.0323 42.5439 54.0356 41.6562C53.9409 41.6341 53.8413 41.6494 53.7576 41.6989C53.6738 41.7484 53.6124 41.8282 53.586 41.9219C53.0138 44.0983 53.3101 45.866 54.4341 47.0309C55.0057 47.5443 55.6748 47.9374 56.4016 48.1867C57.1284 48.436 57.8979 48.5364 58.6643 48.4818C59.4881 48.4766 60.3095 48.391 61.1167 48.2264C60.6466 49.7182 60.0949 51.1794 59.5737 52.569C58.4395 51.5472 55.0983 49.0131 51.4607 50.0758C51.363 50.1082 51.2821 50.178 51.2359 50.27C51.2159 50.3168 51.2056 50.3672 51.2056 50.4181C51.2056 50.4691 51.2159 50.5194 51.2359 50.5663C52.2577 52.9777 53.351 54.3163 54.7611 54.7761C55.1369 54.9 55.5302 54.9621 55.9259 54.96C57.0057 54.9142 58.0579 54.6055 58.9913 54.0608C58.2148 55.9103 57.3871 57.6371 56.6003 59.1698C55.6665 58.2175 54.4931 57.5345 53.2038 57.1929C51.9145 56.8512 50.5569 56.8635 49.274 57.2284C49.1865 57.2458 49.1086 57.2952 49.0556 57.3671C49.0027 57.4389 48.9785 57.528 48.9879 57.6167C49.0783 58.3895 49.3705 59.1249 49.835 59.749C50.2995 60.3732 50.9201 60.8641 51.6344 61.1726C52.1733 61.4043 52.7541 61.5226 53.3408 61.52C54.1546 61.5098 54.9539 61.303 55.6705 60.9171C54.8735 62.3987 54.1378 63.6351 53.5656 64.5752H46.6173C45.5138 62.6848 44.2365 60.3347 42.9899 57.6985C43.5706 57.8718 44.1722 57.9646 44.7781 57.9743C45.5232 57.9836 46.2605 57.8211 46.9327 57.4996C47.605 57.178 48.1941 56.706 48.6546 56.1201C49.115 55.5342 49.4344 54.8501 49.5878 54.1209C49.7413 53.3917 49.7248 52.6369 49.5397 51.9151C49.5158 51.8312 49.4621 51.759 49.3887 51.712C49.3153 51.6649 49.2273 51.6463 49.1412 51.6596C47.7222 51.798 46.3575 52.276 45.1623 53.0532C43.9671 53.8305 42.9767 54.884 42.2747 56.1249C41.4572 54.2856 40.6602 52.334 39.9654 50.3211C40.8498 50.8243 41.8406 51.1114 42.8571 51.1589C43.2605 51.1635 43.6616 51.0978 44.0424 50.9648C46.086 50.2904 47.2611 47.8279 48.2624 45.2734C48.285 45.2272 48.2967 45.1766 48.2967 45.1252C48.2967 45.0739 48.285 45.0232 48.2624 44.977C48.2389 44.9301 48.2058 44.8887 48.1653 44.8552C48.1249 44.8218 48.0779 44.7972 48.0274 44.7829C43.9402 43.6385 40.5785 47.5724 39.5362 48.9825C38.9913 47.2811 38.5376 45.5518 38.1773 43.802C39.0358 43.97 39.908 44.0589 40.7828 44.0676C41.6522 44.1312 42.5254 44.0152 43.3481 43.7269C44.1707 43.4387 44.9253 42.9842 45.5649 42.3919C46.8012 41.084 47.0976 39.1221 46.4334 36.7311C46.4216 36.6842 46.4005 36.6402 46.3712 36.6018C46.342 36.5633 46.3052 36.5311 46.2632 36.5073C46.2212 36.4834 46.1748 36.4683 46.1267 36.4629C46.0787 36.4574 46.0301 36.4618 45.9838 36.4757C42.723 37.4932 39.8845 39.5494 37.9014 42.3306L37.7481 41.4007C37.7373 41.3203 37.7016 41.2452 37.6459 41.1862C37.4774 40.5816 37.1839 40.0191 36.7843 39.5351C36.3848 39.051 35.8881 38.6563 35.3264 38.3762C34.5893 38.0918 33.8003 37.9666 33.0114 38.0089C32.2224 38.0512 31.4513 38.2599 30.7488 38.6214C30.6948 38.6448 30.6466 38.6798 30.6077 38.724C30.5689 38.7681 30.5403 38.8204 30.524 38.8769C30.5114 38.9324 30.5123 38.9901 30.5265 39.0452C30.5407 39.1003 30.5679 39.1512 30.6057 39.1937C30.7079 39.3265 32.9559 41.9832 35.9804 41.9832C36.3064 41.979 36.6313 41.9448 36.9511 41.881C37.0839 42.7495 37.2474 43.618 37.4313 44.4764C36.2661 43.7093 34.9514 43.1979 33.5741 42.976C32.1968 42.7541 30.7881 42.8266 29.4409 43.1889C29.3399 43.2199 29.2554 43.2897 29.2058 43.383C29.1856 43.4316 29.1752 43.4837 29.1752 43.5363C29.1752 43.5889 29.1856 43.641 29.2058 43.6896C30.3809 46.5302 32.1997 48.3285 34.0798 48.4818H34.3353C35.2856 48.4818 36.573 48.0424 37.8809 46.2952C38.396 48.2819 39.0168 50.2397 39.7406 52.1603C37.9729 51.3224 33.9981 49.8817 31.1575 52.0786C31.1184 52.1068 31.0855 52.1426 31.0607 52.1839C31.0358 52.2252 31.0196 52.2711 31.0129 52.3188C31.0062 52.3665 31.0092 52.4151 31.0218 52.4616C31.0343 52.5081 31.0562 52.5516 31.086 52.5895C32.9252 55.0929 34.6214 56.3088 36.2869 56.3088C37.6663 56.3088 38.9845 55.4403 40.3026 53.7236C41.0587 55.6038 41.8762 57.4021 42.6834 59.0574C40.9157 57.9641 38.9743 58.1378 36.6854 59.5786C36.6325 59.6103 36.5886 59.6552 36.5582 59.709C36.5278 59.7627 36.5117 59.8234 36.5117 59.8851C36.5075 59.9452 36.5195 60.0054 36.5465 60.0593C36.5735 60.1132 36.6144 60.1589 36.665 60.1916C38.0282 61.1742 39.638 61.758 41.3142 61.8776C42.1789 61.8948 43.0268 61.6372 43.7358 61.1419C44.3898 62.3987 45.0335 63.5534 45.6262 64.5854H42.4688V66.3838H43.6132L44.5635 75.9069H58.5519L59.492 66.3838H60.6466V64.5854H54.3626C55.0574 63.4307 55.9464 61.8878 56.8966 60.0792C56.925 60.0429 56.9459 60.0012 56.9579 59.9566C57.2032 59.4968 57.4382 59.0268 57.6834 58.5363C58.099 59.1651 58.6591 59.6852 59.3168 60.0532C59.9745 60.4212 60.7108 60.6263 61.4641 60.6515C61.6206 60.6616 61.7776 60.6616 61.9341 60.6515C62.7665 60.5571 63.5565 60.2341 64.2166 59.7183C64.8767 59.2025 65.3811 58.514 65.6739 57.7291C65.7041 57.6485 65.7042 57.5596 65.6742 57.4789C65.6442 57.3982 65.586 57.331 65.5104 57.2897C64.439 56.6845 63.239 56.3429 62.0095 56.2932C60.78 56.2434 59.5563 56.487 58.4395 57.0036C58.9709 55.8899 59.4614 54.6944 59.9927 53.458C60.0328 53.4121 60.0577 53.355 60.0642 53.2945C60.2073 52.9471 60.3401 52.5997 60.4831 52.2727C61.6991 53.8054 62.9048 54.5615 64.1616 54.5615C65.6841 54.5615 67.227 53.4375 68.8824 51.1181C68.9398 51.0405 68.9645 50.9435 68.9512 50.848C68.9378 50.7524 68.8874 50.6659 68.8108 50.6072C66.2052 48.6555 62.68 49.9941 61.0247 50.7706C61.3619 49.851 61.6684 48.9212 61.9545 47.9709L61.9852 47.8687Z" fill="#E0E0E0"/>
<path d="M354.23 43.5568H301.975V100.931H354.23V43.5568Z" fill="#E0E0E0"/>
<path d="M347.783 45.907C347.739 45.9174 347.694 45.9174 347.65 45.907C347.527 45.8252 335.184 38.4887 331.301 38.4887C327.418 38.4887 315.616 45.8252 315.494 45.8967C315.466 45.9152 315.435 45.9277 315.402 45.9336C315.369 45.9394 315.335 45.9385 315.302 45.9308C315.27 45.9232 315.239 45.909 315.212 45.889C315.186 45.8691 315.163 45.8439 315.146 45.815C315.112 45.7579 315.101 45.6896 315.116 45.6246C315.132 45.5597 315.172 45.5034 315.228 45.4676C315.719 45.161 327.234 37.9778 331.301 37.9778C335.368 37.9778 347.445 45.1304 347.956 45.4676C347.985 45.4843 348.011 45.5068 348.03 45.5336C348.05 45.5605 348.065 45.5911 348.072 45.6236C348.08 45.6562 348.081 45.6899 348.075 45.7228C348.069 45.7557 348.057 45.7871 348.038 45.815C348.009 45.8538 347.97 45.8832 347.924 45.8996C347.879 45.9159 347.83 45.9185 347.783 45.907Z" fill="#EBEBEB"/>
<path d="M359.881 43.5568H305.909V100.931H359.881V43.5568Z" fill="#F5F5F5"/>
<path d="M355.364 96.4043V48.0731H310.436V96.4043H355.364Z" fill="white"/>
<path d="M341.602 80.9457C346.41 76.1373 346.41 68.3413 341.602 63.5329C336.793 58.7245 328.997 58.7245 324.189 63.5329C319.381 68.3413 319.381 76.1372 324.189 80.9457C328.997 85.7541 336.793 85.7541 341.602 80.9457Z" fill="#E0E0E0"/>
<path d="M331.853 254.232H377.65C381.852 254.235 385.888 252.59 388.89 249.649C391.891 246.708 393.619 242.707 393.702 238.506L395.419 154.657C395.45 153.101 395.171 151.554 394.597 150.108C394.023 148.661 393.166 147.343 392.077 146.232C390.987 145.121 389.687 144.238 388.252 143.635C386.817 143.032 385.276 142.722 383.719 142.723H355.007C352.134 142.722 349.362 143.779 347.219 145.692C345.076 147.605 343.713 150.24 343.389 153.094L331.853 254.232Z" fill="#E6E6E6"/>
<path d="M356.846 254.232H308.045C307.438 254.232 306.856 253.99 306.427 253.561C305.997 253.132 305.756 252.55 305.756 251.943V251.728C305.756 250.064 306.417 248.468 307.594 247.292C308.77 246.115 310.366 245.454 312.03 245.454H356.846V254.232Z" fill="#E6E6E6"/>
<path d="M352.994 325.012C352.756 325.017 352.524 324.939 352.338 324.792C352.151 324.645 352.022 324.437 351.972 324.205L337.667 255.253H312.735L298.43 324.205C298.374 324.476 298.213 324.713 297.982 324.866C297.752 325.018 297.47 325.072 297.199 325.017C296.928 324.961 296.69 324.8 296.537 324.569C296.385 324.339 296.331 324.057 296.386 323.786L310.875 254.027C310.923 253.793 311.052 253.583 311.238 253.434C311.425 253.284 311.658 253.205 311.897 253.21H338.464C338.703 253.205 338.936 253.284 339.123 253.434C339.31 253.583 339.438 253.793 339.486 254.027L353.965 323.786C354.019 324.05 353.967 324.325 353.82 324.551C353.672 324.776 353.442 324.935 353.178 324.991C353.118 325.005 353.056 325.012 352.994 325.012V325.012Z" fill="#E6E6E6"/>
<path d="M337.452 325.012C337.385 325.022 337.316 325.022 337.248 325.012C337.116 324.985 336.991 324.932 336.88 324.857C336.769 324.782 336.674 324.686 336.6 324.574C336.526 324.462 336.474 324.337 336.449 324.205C336.423 324.073 336.424 323.937 336.451 323.806L350.94 254.048C350.988 253.813 351.116 253.603 351.303 253.454C351.49 253.305 351.723 253.225 351.962 253.23H378.529C378.768 253.225 379.001 253.305 379.188 253.454C379.374 253.603 379.503 253.813 379.55 254.048L394.029 323.806C394.057 323.94 394.058 324.078 394.032 324.213C394.006 324.347 393.954 324.475 393.878 324.59C393.803 324.704 393.706 324.803 393.592 324.879C393.479 324.956 393.351 325.01 393.217 325.037C393.083 325.065 392.945 325.066 392.81 325.04C392.676 325.014 392.548 324.961 392.433 324.886C392.319 324.811 392.221 324.713 392.144 324.6C392.067 324.487 392.013 324.359 391.986 324.225L377.681 255.274H352.728L338.423 324.225C338.371 324.445 338.248 324.642 338.072 324.784C337.896 324.926 337.678 325.006 337.452 325.012Z" fill="#E6E6E6"/>
<path d="M198.436 370.012C307.853 370.012 396.553 364.833 396.553 358.445C396.553 352.057 307.853 346.878 198.436 346.878C89.0195 346.878 0.31955 352.057 0.31955 358.445C0.31955 364.833 89.0195 370.012 198.436 370.012Z" fill="#F5F5F5"/>
<path d="M215.919 349.004C215.599 349.003 215.289 348.892 215.042 348.689C214.794 348.486 214.624 348.204 214.56 347.89L195.146 252.29H161.335L141.921 347.89C141.828 348.23 141.609 348.523 141.309 348.708C141.009 348.894 140.649 348.958 140.303 348.887C139.957 348.817 139.651 348.618 139.447 348.33C139.242 348.042 139.155 347.688 139.203 347.338L158.842 250.625C158.907 250.312 159.077 250.031 159.325 249.828C159.572 249.625 159.881 249.513 160.201 249.511H196.27C196.59 249.512 196.9 249.623 197.148 249.826C197.396 250.029 197.566 250.311 197.629 250.625L217.278 347.338C217.351 347.698 217.277 348.073 217.074 348.379C216.871 348.686 216.555 348.899 216.195 348.973L215.919 349.004Z" fill="#407BFF"/>
<path d="M161.652 349.004C161.332 349.001 161.023 348.889 160.776 348.686C160.528 348.484 160.358 348.203 160.293 347.89L140.878 252.29H107.067L87.6528 347.89C87.6272 348.078 87.5631 348.259 87.4647 348.422C87.3663 348.585 87.2356 348.725 87.0806 348.835C86.9256 348.945 86.7497 349.022 86.5637 349.062C86.3777 349.101 86.1857 349.102 85.9994 349.064C85.8131 349.026 85.6365 348.951 85.4806 348.842C85.3248 348.733 85.1928 348.594 85.093 348.432C84.9933 348.27 84.9277 348.089 84.9005 347.901C84.8733 347.713 84.885 347.521 84.9348 347.338L104.584 250.625C104.648 250.311 104.818 250.029 105.065 249.826C105.313 249.623 105.623 249.512 105.943 249.511H142.013C142.331 249.512 142.64 249.624 142.886 249.827C143.132 250.03 143.3 250.312 143.361 250.625L163.011 347.338C163.083 347.698 163.01 348.073 162.807 348.379C162.604 348.686 162.288 348.899 161.927 348.973L161.652 349.004Z" fill="#407BFF"/>
<path d="M169.244 250.911H107.118C101.416 250.912 95.9403 248.677 91.8673 244.686C87.7942 240.695 85.4484 235.267 85.3334 229.565L83.0241 135.151C82.9806 133.041 83.3586 130.943 84.1359 128.98C84.9132 127.018 86.0743 125.23 87.5511 123.722C89.0279 122.214 90.7908 121.015 92.7365 120.197C94.6822 119.378 96.7716 118.956 98.8824 118.955H137.833C141.732 118.958 145.493 120.394 148.4 122.991C151.308 125.587 153.158 129.163 153.6 133.036L169.244 250.911Z" fill="#407BFF"/>
<path d="M135.361 238.956H196.158C198.415 238.956 200.58 239.852 202.176 241.449C203.773 243.045 204.669 245.21 204.669 247.467V247.764C204.669 248.577 204.346 249.356 203.772 249.931C203.197 250.506 202.417 250.829 201.604 250.829H135.361V238.956Z" fill="#407BFF"/>
<g opacity="0.3">
<path d="M215.919 349.004C215.599 349.003 215.289 348.892 215.042 348.689C214.794 348.486 214.624 348.204 214.56 347.89L195.146 252.29H161.335L141.921 347.89C141.828 348.23 141.609 348.523 141.309 348.708C141.009 348.894 140.649 348.958 140.303 348.887C139.957 348.817 139.651 348.618 139.447 348.33C139.242 348.042 139.155 347.688 139.203 347.338L158.842 250.625C158.907 250.312 159.077 250.031 159.325 249.828C159.572 249.625 159.881 249.513 160.201 249.511H196.27C196.59 249.512 196.9 249.623 197.148 249.826C197.396 250.029 197.566 250.311 197.629 250.625L217.278 347.338C217.351 347.698 217.277 348.073 217.074 348.379C216.871 348.686 216.555 348.899 216.195 348.973L215.919 349.004Z" fill="black"/>
<path d="M161.652 349.004C161.332 349.001 161.023 348.889 160.776 348.686C160.528 348.484 160.358 348.203 160.293 347.89L140.878 252.29H107.067L87.6528 347.89C87.6272 348.078 87.5631 348.259 87.4647 348.422C87.3663 348.585 87.2356 348.725 87.0806 348.835C86.9256 348.945 86.7497 349.022 86.5637 349.062C86.3777 349.101 86.1857 349.102 85.9994 349.064C85.8131 349.026 85.6365 348.951 85.4806 348.842C85.3248 348.733 85.1928 348.594 85.093 348.432C84.9933 348.27 84.9277 348.089 84.9005 347.901C84.8733 347.713 84.885 347.521 84.9348 347.338L104.584 250.625C104.648 250.311 104.818 250.029 105.065 249.826C105.313 249.623 105.623 249.512 105.943 249.511H142.013C142.331 249.512 142.64 249.624 142.886 249.827C143.132 250.03 143.3 250.312 143.361 250.625L163.011 347.338C163.083 347.698 163.01 348.073 162.807 348.379C162.604 348.686 162.288 348.899 161.927 348.973L161.652 349.004Z" fill="black"/>
<path d="M169.244 250.911H107.118C101.416 250.912 95.9403 248.677 91.8673 244.686C87.7942 240.695 85.4484 235.267 85.3334 229.565L83.0241 135.151C82.9806 133.041 83.3586 130.943 84.1359 128.98C84.9132 127.018 86.0743 125.23 87.5511 123.722C89.0279 122.214 90.7908 121.015 92.7365 120.197C94.6822 119.378 96.7716 118.956 98.8824 118.955H137.833C141.732 118.958 145.493 120.394 148.4 122.991C151.308 125.587 153.158 129.163 153.6 133.036L169.244 250.911Z" fill="black"/>
<path d="M135.361 238.956H196.158C198.415 238.956 200.58 239.852 202.176 241.449C203.773 243.045 204.669 245.21 204.669 247.467V247.764C204.669 248.577 204.346 249.356 203.772 249.931C203.197 250.506 202.417 250.829 201.604 250.829H135.361V238.956Z" fill="black"/>
</g>
<path d="M151.955 113.744C151.955 113.744 160.64 125.086 155.02 147.668C149.4 170.25 120.401 157.988 118.644 137.634C116.6 113.642 143.535 130.185 148.276 108.85L151.955 113.744Z" fill="#263238"/>
<path d="M145.65 107.01C141.88 109.667 140.388 113.53 144.557 117.31C148.726 121.091 154.673 120.968 156.471 119.415C158.269 117.862 157.912 109.974 157.912 109.974L145.65 107.01Z" fill="#407BFF"/>
<path opacity="0.8" d="M145.65 107.01C141.88 109.667 140.388 113.53 144.557 117.31C148.726 121.091 154.673 120.968 156.471 119.415C158.269 117.862 157.912 109.974 157.912 109.974L145.65 107.01Z" fill="white"/>
<path d="M193.266 157.273C193.368 157.733 193.542 158.448 193.706 159.051L194.196 160.972C194.543 162.259 194.921 163.547 195.32 164.834C196.076 167.43 196.914 170.015 197.793 172.6C198.671 175.185 199.571 177.709 200.552 180.325C201.032 181.602 201.512 182.889 202.023 184.167L202.616 185.699C202.734 185.962 202.889 186.206 203.075 186.425C204.53 187.896 206.302 189.015 208.256 189.695C210.642 190.655 213.103 191.421 215.613 191.984C218.208 192.586 220.875 193.087 223.573 193.506C226.27 193.925 229.039 194.262 231.696 194.528L231.788 200.025C225.959 200.628 220.083 200.628 214.254 200.025C211.207 199.711 208.195 199.126 205.252 198.278C203.658 197.797 202.106 197.185 200.613 196.449C198.893 195.613 197.32 194.506 195.953 193.169C195.16 192.379 194.473 191.489 193.91 190.522C193.757 190.277 193.624 190.001 193.481 189.746L193.215 189.194L192.745 188.172C192.112 186.875 191.478 185.577 190.896 184.259C189.71 181.622 188.556 178.966 187.524 176.258C186.492 173.55 185.48 170.822 184.622 168.084C184.203 166.674 183.794 165.274 183.416 163.833L182.854 161.677C182.691 160.9 182.537 160.257 182.374 159.337L193.266 157.273Z" fill="#E58A7B"/>
<path d="M189.792 145.665C194.175 146.779 197.231 164.804 197.231 164.804L185.163 172.978C185.163 172.978 173.586 154.79 176.989 149.977C180.473 145.032 183.395 144.071 189.792 145.665Z" fill="#407BFF"/>
<path opacity="0.5" d="M189.792 145.665C194.175 146.779 197.231 164.804 197.231 164.804L185.163 172.978C185.163 172.978 173.586 154.79 176.989 149.977C180.473 145.032 183.395 144.071 189.792 145.665Z" fill="white"/>
<path opacity="0.2" d="M188.218 150.202L177.724 158.519C179.768 163.572 182.254 168.434 185.153 173.049L193.521 167.358L188.218 150.202Z" fill="#407BFF"/>
<path d="M189.792 145.665C189.792 145.665 194.901 147.443 184.683 209.804H141.543C142.268 192.239 142.288 181.408 133.9 145.349C139.94 144.104 146.063 143.298 152.22 142.937C158.748 142.472 165.301 142.472 171.829 142.937C180.248 143.744 189.792 145.665 189.792 145.665Z" fill="#407BFF"/>
<path opacity="0.5" d="M189.792 145.665C189.792 145.665 194.901 147.443 184.683 209.804H141.543C142.268 192.239 142.288 181.408 133.9 145.349C139.94 144.104 146.063 143.298 152.22 142.937C158.748 142.472 165.301 142.472 171.829 142.937C180.248 143.744 189.792 145.665 189.792 145.665Z" fill="white"/>
<path d="M230.112 194.477L237.643 186.834L238.665 197.603C238.665 197.603 233.014 201.425 229.111 199.371L230.112 194.477Z" fill="#E58A7B"/>
<path d="M246.533 185.699L246.87 194.753L238.654 197.603L237.663 186.834L246.533 185.699Z" fill="#E58A7B"/>
<path d="M233.648 339.092H244.274L245.909 314.477H235.283L233.648 339.092Z" fill="#E58A7B"/>
<path d="M192.52 339.092H203.147L206.56 314.477H195.933L192.52 339.092Z" fill="#E58A7B"/>
<path d="M203.811 337.856H191.866C191.66 337.851 191.46 337.923 191.304 338.057C191.147 338.19 191.046 338.377 191.018 338.581L189.659 348.033C189.635 348.272 189.661 348.513 189.736 348.741C189.81 348.969 189.932 349.179 190.093 349.357C190.254 349.535 190.45 349.677 190.669 349.775C190.888 349.872 191.126 349.923 191.366 349.923C195.524 349.852 197.496 349.606 202.779 349.606C206.008 349.606 214.295 349.944 218.76 349.944C223.225 349.944 223.46 345.529 221.601 345.131C213.273 343.333 208.389 340.87 205.579 338.51C205.086 338.089 204.459 337.857 203.811 337.856Z" fill="#263238"/>
<path d="M245.102 337.856H233.178C232.972 337.853 232.773 337.926 232.617 338.059C232.461 338.193 232.359 338.378 232.329 338.581L230.97 348.033C230.946 348.271 230.972 348.513 231.047 348.741C231.122 348.969 231.243 349.179 231.404 349.357C231.565 349.535 231.761 349.677 231.98 349.775C232.2 349.872 232.437 349.923 232.677 349.923C236.836 349.852 238.808 349.606 244.09 349.606C247.329 349.606 254.002 349.944 258.467 349.944C262.932 349.944 263.167 345.529 261.308 345.131C252.98 343.332 249.7 340.87 246.9 338.51C246.398 338.085 245.76 337.853 245.102 337.856V337.856Z" fill="#263238"/>
<path d="M181.321 99.3982C185.143 99.6434 187.084 118.812 175.875 117.699C164.666 116.585 181.321 99.3982 181.321 99.3982Z" fill="#263238"/>
<path d="M245.909 314.477L245.061 327.168H234.434L235.272 314.477H245.909Z" fill="#CF6F64"/>
<path d="M195.933 314.477H206.57L204.802 327.168H194.165L195.933 314.477Z" fill="#CF6F64"/>
<path opacity="0.2" d="M138.212 165.396C139.233 170.628 139.959 175.144 140.511 179.211L143.034 159.684L138.212 165.396Z" fill="#407BFF"/>
<path d="M154.162 120.907C155.398 127.211 156.634 138.768 152.22 142.978C152.22 142.978 153.947 149.374 165.667 149.374C178.552 149.374 171.798 142.978 171.798 142.978C164.758 141.302 164.942 136.081 166.168 131.186L154.162 120.907Z" fill="#E58A7B"/>
<path d="M163.337 150.744L167.261 149.334L166.74 148.261L163.337 150.744Z" fill="#263238"/>
<path d="M170.95 149.926L167.261 149.334L168.058 148.138L170.95 149.926Z" fill="#263238"/>
<path d="M153.651 140.004L150.984 142.6C150.904 142.682 150.859 142.792 150.859 142.906C150.859 143.021 150.904 143.131 150.984 143.213L162.224 156.016C162.758 152.975 164.387 150.235 166.802 148.312C157.503 144.797 155.081 141.159 154.254 140.137C154.235 140.078 154.2 140.025 154.154 139.983C154.108 139.941 154.051 139.911 153.99 139.898C153.93 139.885 153.866 139.887 153.807 139.906C153.747 139.925 153.693 139.959 153.651 140.004V140.004Z" fill="#407BFF"/>
<path d="M169.714 141.966L173.024 142.865C173.123 142.893 173.213 142.946 173.285 143.02C173.357 143.093 173.408 143.185 173.433 143.284C174.368 147.484 174.192 151.854 172.922 155.965C172.452 154.228 170.878 150.069 168.058 148.138C171.124 146.023 169.887 143.295 169.448 142.263C169.434 142.224 169.43 142.183 169.438 142.142C169.445 142.102 169.464 142.065 169.491 142.034C169.519 142.004 169.554 141.981 169.593 141.969C169.632 141.957 169.674 141.956 169.714 141.966Z" fill="#407BFF"/>
<path d="M159.077 125.096L166.229 131.176C165.932 132.315 165.73 133.477 165.626 134.65C162.939 134.262 159.25 131.319 158.964 128.519C158.789 127.381 158.827 126.221 159.077 125.096V125.096Z" fill="#CF6F64"/>
<path d="M153.477 104.293C152.261 114.766 151.515 119.18 155.807 125.434C162.244 134.844 175.385 134.047 179.707 124.146C183.6 115.236 184.928 99.6229 175.528 93.6556C173.46 92.3357 171.089 91.5664 168.64 91.4209C166.191 91.2755 163.745 91.7586 161.536 92.8245C159.326 93.8904 157.426 95.5036 156.015 97.5108C154.605 99.518 153.731 101.853 153.477 104.293V104.293Z" fill="#E58A7B"/>
<path d="M177.428 86.9935C160.109 80.1577 147.101 87.8723 144.414 98.8362C140.194 115.859 153.671 117.055 153.671 117.055L155.357 112.702C157.779 114.163 164.553 113.519 162.51 100.88C161.304 93.7272 170.357 103.69 181.842 102.576C184.897 102.28 189.077 91.5916 177.428 86.9935Z" fill="#263238"/>
<path d="M183.324 91.2033C181.045 87.6986 176.386 84.6945 166.73 83.2742C166.73 83.2742 171.747 84.4084 173.372 88.0766C174.996 91.7449 186.073 95.4234 183.324 91.2033Z" fill="#263238"/>
<path d="M150.146 113.356C150.075 114.363 150.204 115.374 150.525 116.332C150.846 117.289 151.353 118.174 152.016 118.935C153.804 120.979 156.154 119.722 156.89 117.269C157.544 115.052 157.411 111.333 155.02 110.209C152.629 109.085 150.34 110.863 150.146 113.356Z" fill="#E58A7B"/>
<path d="M184.714 209.845C184.714 209.845 255.974 216.476 255.279 248.877C254.554 282.597 247.34 324.715 247.34 324.715H232.616C232.616 324.715 231.359 289.075 230.93 255.877C230.715 238.588 161.856 235.124 161.856 235.124L152.966 209.845H184.714Z" fill="#263238"/>
<path d="M173.31 209.845C173.31 209.845 219.363 225.121 220.528 244.024C222.663 278.826 207.367 324.746 207.367 324.746H192.868C192.868 324.746 193.695 294.296 195.422 262.764C197.609 223.138 127.697 262.212 141.543 209.875L173.31 209.845Z" fill="#263238"/>
<path d="M168.63 110.004C168.477 110.842 168.804 111.609 169.356 111.711C169.908 111.813 170.47 111.2 170.623 110.362C170.776 109.524 170.449 108.748 169.897 108.656C169.346 108.564 168.804 109.156 168.63 110.004Z" fill="#263238"/>
<path d="M178.164 111.711C178.011 112.549 178.338 113.315 178.889 113.417C179.441 113.519 180.013 112.906 180.167 112.068C180.32 111.231 179.993 110.454 179.441 110.362C178.889 110.27 178.317 110.863 178.164 111.711Z" fill="#263238"/>
<path d="M179.186 110.362L181.321 110.137C181.321 110.137 180.044 111.537 179.186 110.362Z" fill="#263238"/>
<path d="M175.385 112.702C175.793 114.761 176.481 116.755 177.428 118.628C176.947 118.848 176.424 118.961 175.895 118.961C175.367 118.961 174.844 118.848 174.363 118.628L175.385 112.702Z" fill="#DF5753"/>
<path d="M170.848 121.357C169.726 121.179 168.663 120.739 167.743 120.073C166.824 119.408 166.074 118.535 165.555 117.525C165.538 117.486 165.536 117.441 165.552 117.401C165.567 117.361 165.597 117.328 165.637 117.31C165.677 117.296 165.722 117.298 165.762 117.315C165.801 117.332 165.833 117.363 165.851 117.402C166.342 118.356 167.05 119.182 167.918 119.814C168.785 120.446 169.789 120.865 170.848 121.04C170.89 121.05 170.927 121.075 170.952 121.111C170.977 121.147 170.987 121.191 170.981 121.234C170.973 121.265 170.956 121.294 170.933 121.315C170.909 121.337 170.88 121.351 170.848 121.357V121.357Z" fill="#263238"/>
<path d="M166.393 106.234C166.348 106.236 166.304 106.227 166.264 106.21C166.223 106.192 166.187 106.165 166.158 106.132C166.127 106.103 166.102 106.068 166.085 106.03C166.068 105.991 166.06 105.949 166.06 105.907C166.06 105.865 166.068 105.823 166.085 105.784C166.102 105.746 166.127 105.711 166.158 105.682C166.708 105.144 167.38 104.747 168.116 104.523C168.852 104.299 169.631 104.255 170.388 104.395C170.468 104.419 170.536 104.472 170.578 104.544C170.619 104.616 170.632 104.702 170.613 104.783C170.603 104.824 170.586 104.863 170.561 104.897C170.536 104.932 170.504 104.961 170.468 104.982C170.432 105.004 170.392 105.019 170.35 105.025C170.308 105.031 170.265 105.029 170.225 105.018C169.572 104.903 168.901 104.945 168.268 105.143C167.635 105.34 167.059 105.686 166.587 106.152C166.532 106.199 166.464 106.227 166.393 106.234Z" fill="#263238"/>
<path d="M183.375 107.91C183.312 107.912 183.249 107.895 183.196 107.86C183.143 107.825 183.102 107.775 183.079 107.716C182.829 107.102 182.438 106.557 181.937 106.123C181.436 105.69 180.84 105.381 180.197 105.222C180.114 105.207 180.04 105.161 179.99 105.092C179.941 105.024 179.92 104.938 179.932 104.855C179.947 104.769 179.995 104.693 180.066 104.644C180.137 104.594 180.224 104.574 180.31 104.589C181.058 104.762 181.754 105.114 182.337 105.614C182.921 106.114 183.375 106.747 183.661 107.46C183.696 107.539 183.698 107.628 183.667 107.708C183.637 107.789 183.576 107.854 183.498 107.889L183.375 107.91Z" fill="#263238"/>
<path d="M140.347 160.768C139.417 163.833 138.416 166.898 137.527 170.045C136.638 173.193 135.698 176.258 134.891 179.375C134.083 182.491 133.317 185.577 132.745 188.571C132.469 190.083 132.214 191.585 132.07 192.995C131.989 193.7 131.948 194.364 131.938 194.977C131.938 195.12 131.938 194.977 131.835 194.742C131.711 194.465 131.538 194.213 131.325 193.996C130.803 193.547 130.609 193.629 130.844 193.7C131.272 193.804 131.712 193.849 132.152 193.833C133.528 193.786 134.896 193.611 136.239 193.312C139.283 192.641 142.282 191.785 145.221 190.747C151.26 188.704 157.391 186.21 163.358 183.666L165.994 188.479C160.333 192.19 154.415 195.495 148.286 198.37C145.113 199.867 141.838 201.14 138.487 202.181C136.622 202.749 134.705 203.136 132.765 203.336C131.554 203.46 130.331 203.429 129.128 203.244C128.329 203.124 127.549 202.901 126.808 202.58C125.85 202.165 124.983 201.569 124.254 200.822C122.837 199.329 122.025 197.362 121.975 195.304C121.924 194.283 121.914 193.261 121.975 192.341C122.047 190.451 122.22 188.663 122.455 186.915C122.946 183.421 123.579 180.049 124.356 176.697C125.132 173.346 125.96 170.107 126.869 166.857C127.779 163.608 128.76 160.42 129.935 157.171L140.347 160.768Z" fill="#E58A7B"/>
<path d="M207.449 339.644C206.507 339.621 205.571 339.49 204.659 339.256C204.625 339.249 204.594 339.232 204.569 339.208C204.544 339.183 204.528 339.152 204.521 339.118C204.515 339.084 204.518 339.049 204.532 339.017C204.546 338.985 204.569 338.958 204.598 338.939C204.955 338.704 208.143 336.64 209.359 337.181C209.487 337.239 209.596 337.33 209.675 337.446C209.755 337.561 209.801 337.696 209.809 337.835C209.86 338.062 209.851 338.298 209.783 338.52C209.715 338.742 209.59 338.943 209.421 339.102C208.848 339.509 208.149 339.701 207.449 339.644ZM205.15 339.01C207.122 339.419 208.603 339.368 209.176 338.837C209.3 338.716 209.392 338.565 209.442 338.399C209.492 338.232 209.499 338.056 209.462 337.886C209.458 337.806 209.432 337.728 209.387 337.662C209.342 337.595 209.279 337.542 209.206 337.508C208.43 337.161 206.274 338.315 205.15 339.01V339.01Z" fill="#407BFF"/>
<path d="M204.7 339.266H204.608C204.58 339.249 204.556 339.226 204.54 339.197C204.524 339.168 204.515 339.135 204.516 339.102C204.516 338.98 204.516 335.955 205.661 334.954C205.795 334.825 205.957 334.73 206.134 334.675C206.311 334.62 206.499 334.607 206.682 334.637C206.866 334.636 207.045 334.698 207.189 334.813C207.332 334.929 207.431 335.09 207.469 335.271C207.684 336.374 205.906 338.632 204.792 339.266H204.7ZM206.498 334.954C206.274 334.955 206.058 335.043 205.896 335.199C205.088 335.914 204.925 337.938 204.874 338.745C205.896 338.009 207.265 336.149 207.091 335.322C207.091 335.189 206.989 335.015 206.621 334.964L206.498 334.954Z" fill="#407BFF"/>
<path d="M249.097 339.644C247.974 339.619 246.856 339.492 245.756 339.266C245.72 339.257 245.687 339.237 245.662 339.21C245.637 339.183 245.62 339.149 245.613 339.113C245.608 339.075 245.615 339.037 245.633 339.003C245.651 338.97 245.68 338.944 245.715 338.929C246.185 338.683 250.385 336.538 251.662 337.232C251.773 337.294 251.867 337.382 251.935 337.489C252.002 337.596 252.042 337.719 252.05 337.845C252.079 338.058 252.055 338.275 251.98 338.477C251.905 338.678 251.782 338.858 251.621 339C250.878 339.497 249.987 339.724 249.097 339.644ZM246.349 339.01C247.718 339.245 250.436 339.583 251.376 338.745C251.493 338.635 251.583 338.499 251.638 338.348C251.693 338.197 251.712 338.036 251.693 337.876C251.692 337.807 251.672 337.739 251.636 337.68C251.601 337.62 251.549 337.572 251.488 337.539C250.65 337.089 247.83 338.285 246.349 339.01V339.01Z" fill="#407BFF"/>
<path d="M245.797 339.266C245.764 339.276 245.728 339.276 245.695 339.266C245.67 339.246 245.65 339.221 245.636 339.193C245.621 339.165 245.614 339.134 245.613 339.102C245.613 338.98 245.868 336.149 247.176 335.015C247.36 334.859 247.573 334.742 247.803 334.672C248.033 334.601 248.276 334.579 248.515 334.606C249.169 334.668 249.353 334.995 249.404 335.25C249.588 336.425 247.115 338.673 245.868 339.235L245.797 339.266ZM248.321 334.954C247.985 334.952 247.661 335.076 247.411 335.301C246.451 336.098 246.114 338.009 246.011 338.775C247.35 338.029 249.179 336.108 249.077 335.322C249.077 335.24 249.077 335.015 248.515 334.964L248.321 334.954Z" fill="#407BFF"/>
<path d="M163.113 183.83L173.188 181.275L168.385 190.951C168.385 190.951 161.57 191.248 159.322 187.447L163.113 183.83Z" fill="#E58A7B"/>
<path d="M181.331 184.943L176.876 192.832L168.385 190.951L173.188 181.275L181.331 184.943Z" fill="#E58A7B"/>
<path d="M169.642 108.656L171.778 108.431C171.778 108.431 170.459 109.831 169.642 108.656Z" fill="#263238"/>
<path d="M140.899 207.311L140.551 211.173C140.408 211.479 140.756 211.786 141.256 211.786H184.928C185.317 211.786 185.633 211.592 185.664 211.347L186.052 207.484C186.052 207.219 185.735 206.994 185.317 206.994H141.604C141.469 206.982 141.334 207.006 141.21 207.061C141.087 207.116 140.98 207.202 140.899 207.311V207.311Z" fill="#407BFF"/>
<path d="M146.774 212.205H145.599C145.364 212.205 145.19 212.082 145.201 211.939L145.752 206.912C145.752 206.769 145.977 206.646 146.212 206.646H147.346C147.581 206.646 147.755 206.769 147.745 206.912L147.193 211.939C147.203 212.082 146.999 212.205 146.774 212.205Z" fill="#263238"/>
<path d="M181.638 212.205H180.463C180.228 212.205 180.054 212.082 180.064 211.939L180.616 206.912C180.616 206.769 180.841 206.646 181.076 206.646H182.241C182.476 206.646 182.65 206.769 182.639 206.912L182.088 211.939C182.088 212.082 181.863 212.205 181.638 212.205Z" fill="#263238"/>
<path d="M164.206 212.205H163.031C162.796 212.205 162.622 212.082 162.632 211.939L163.184 206.912C163.184 206.769 163.409 206.646 163.644 206.646H164.809C165.044 206.646 165.218 206.769 165.207 206.912L164.656 211.939C164.635 212.082 164.441 212.205 164.206 212.205Z" fill="#263238"/>
<path d="M133.899 145.389C129.567 146.708 124.376 161.595 124.376 161.595L138.324 175.216C138.324 175.216 147.275 161.166 145.476 155.577C143.566 149.752 138.835 143.898 133.899 145.389Z" fill="#407BFF"/>
<path opacity="0.5" d="M133.899 145.389C129.567 146.708 124.376 161.595 124.376 161.595L138.324 175.216C138.324 175.216 147.275 161.166 145.476 155.577C143.566 149.752 138.835 143.898 133.899 145.389Z" fill="white"/>
<path d="M365.664 199.228H284.37V357.352H365.664V199.228Z" fill="#407BFF"/>
<path opacity="0.6" d="M365.664 199.228H284.37V357.352H365.664V199.228Z" fill="white"/>
<path d="M208.174 199.228H126.88V357.352H208.174V199.228Z" fill="#407BFF"/>
<path opacity="0.6" d="M208.174 199.228H126.88V357.352H208.174V199.228Z" fill="white"/>
<path d="M368.709 199.228H362.006V357.352H368.709V199.228Z" fill="#407BFF"/>
<path opacity="0.3" d="M368.709 199.228H362.006V357.352H368.709V199.228Z" fill="black"/>
<path d="M209.145 211.091L370.783 211.091V199.228L209.145 199.228V211.091Z" fill="#407BFF"/>
<path opacity="0.3" d="M209.145 211.091L370.783 211.091V199.228L209.145 199.228V211.091Z" fill="black"/>
<path d="M211.229 199.228H204.526V357.352H211.229V199.228Z" fill="#407BFF"/>
<path opacity="0.3" d="M211.229 199.228H204.526V357.352H211.229V199.228Z" fill="black"/>
<path d="M208.757 237.055L365.358 237.055V202.896L208.757 202.896V237.055Z" fill="#407BFF"/>
<path opacity="0.3" d="M208.757 237.055L365.358 237.055V202.896L208.757 202.896V237.055Z" fill="black"/>
<path d="M365.705 361.95H320.572C317.508 361.947 314.57 360.729 312.403 358.562C310.237 356.395 309.018 353.457 309.016 350.393V207.995C309.016 205.285 307.939 202.686 306.023 200.77C304.107 198.854 301.508 197.777 298.798 197.777H285.289V196.755H298.787C301.768 196.755 304.627 197.94 306.735 200.047C308.843 202.155 310.027 205.014 310.027 207.995V350.393C310.03 353.186 311.141 355.864 313.116 357.839C315.091 359.815 317.769 360.925 320.562 360.928H365.705C366.473 360.93 367.222 360.688 367.846 360.239C368.469 359.79 368.934 359.155 369.175 358.426C369.417 357.696 369.421 356.909 369.189 356.177C368.957 355.445 368.499 354.805 367.882 354.348L368.484 353.53C369.273 354.115 369.857 354.934 370.153 355.87C370.45 356.806 370.444 357.812 370.136 358.744C369.828 359.676 369.235 360.488 368.439 361.063C367.644 361.639 366.687 361.949 365.705 361.95Z" fill="#407BFF"/>
<path opacity="0.3" d="M365.705 361.95H320.572C317.508 361.947 314.57 360.729 312.403 358.562C310.237 356.395 309.018 353.457 309.016 350.393V207.995C309.016 205.285 307.939 202.686 306.023 200.77C304.107 198.854 301.508 197.777 298.798 197.777H285.289V196.755H298.787C301.768 196.755 304.627 197.94 306.735 200.047C308.843 202.155 310.027 205.014 310.027 207.995V350.393C310.03 353.186 311.141 355.864 313.116 357.839C315.091 359.815 317.769 360.925 320.562 360.928H365.705C366.473 360.93 367.222 360.688 367.846 360.239C368.469 359.79 368.934 359.155 369.175 358.426C369.417 357.696 369.421 356.909 369.189 356.177C368.957 355.445 368.499 354.805 367.882 354.348L368.484 353.53C369.273 354.115 369.857 354.934 370.153 355.87C370.45 356.806 370.444 357.812 370.136 358.744C369.828 359.676 369.235 360.488 368.439 361.063C367.644 361.639 366.687 361.949 365.705 361.95Z" fill="black"/>
<path d="M372.285 245.884H371.264V265.635H372.285V245.884Z" fill="#407BFF"/>
<path opacity="0.3" d="M372.285 245.884H371.264V265.635H372.285V245.884Z" fill="black"/>
<path d="M372.285 234.225H371.264V239.415H372.285V234.225Z" fill="#407BFF"/>
<path opacity="0.3" d="M372.285 234.225H371.264V239.415H372.285V234.225Z" fill="black"/>
<path d="M297.449 152.021H221.693L210.718 196.755H286.464L297.449 152.021Z" fill="#407BFF"/>
<path opacity="0.4" d="M297.449 152.021H221.693L210.718 196.755H286.464L297.449 152.021Z" fill="white"/>
<path d="M213.038 196.755L212.731 199.228H183.007L183.314 196.755H213.038Z" fill="#407BFF"/>
<path opacity="0.4" d="M213.038 196.755L212.731 199.228H183.007L183.314 196.755H213.038Z" fill="white"/>
<path d="M288.794 196.755L288.488 199.228H212.731L213.038 196.755H288.794Z" fill="#407BFF"/>
<path opacity="0.5" d="M288.794 196.755L288.488 199.228H212.731L213.038 196.755H288.794Z" fill="black"/>
<path d="M299.778 152.021H224.022L213.048 196.755H288.794L299.778 152.021Z" fill="#407BFF"/>
<path opacity="0.5" d="M299.778 152.021H224.022L213.048 196.755H288.794L299.778 152.021Z" fill="black"/>
<path d="M329.033 187.958C329.033 187.958 317.885 168.738 333.314 153.441C333.314 153.441 337.35 156.078 337.289 159.572C337.228 163.067 332.967 164.007 333.876 166.949C334.785 169.892 338.821 172.804 336.175 175.247C333.529 177.689 336.604 179.855 336.42 182.838C336.236 185.822 329.033 187.958 329.033 187.958Z" fill="#407BFF"/>
<path d="M329.881 189.715C329.881 189.715 334.397 167.961 314.901 158.325C314.901 158.325 311.897 162.096 313.072 165.478C314.247 168.86 318.57 168.319 318.631 171.415C318.692 174.511 315.79 178.516 319.07 179.998C322.35 181.479 320.092 184.514 321.226 187.293C322.36 190.073 329.881 189.715 329.881 189.715Z" fill="#407BFF"/>
<path opacity="0.5" d="M329.881 189.715C329.881 189.715 334.397 167.961 314.901 158.325C314.901 158.325 311.897 162.096 313.072 165.478C314.247 168.86 318.57 168.319 318.631 171.415C318.692 174.511 315.79 178.516 319.07 179.998C322.35 181.479 320.092 184.514 321.226 187.293C322.36 190.073 329.881 189.715 329.881 189.715Z" fill="black"/>
<path d="M312.796 184.892C312.796 184.892 313.174 199.197 327.388 199.197C341.601 199.197 341.969 184.892 341.969 184.892H312.796Z" fill="#407BFF"/>
<path opacity="0.5" d="M312.796 184.892C312.796 184.892 313.174 199.197 327.388 199.197C341.601 199.197 341.969 184.892 341.969 184.892H312.796Z" fill="black"/>
<path d="M236.396 91.1624L224.257 75.4778L212.118 91.1624H217.83V111.466H230.684V91.1624H236.396Z" fill="#407BFF"/>
<path d="M272.006 109.606C272.006 102.018 275.02 94.7408 280.386 89.3753C285.751 84.0098 293.028 80.9955 300.616 80.9955V88.4444C297.839 88.4431 295.089 88.9889 292.523 90.0507C289.957 91.1126 287.625 92.6696 285.661 94.6329C283.697 96.5961 282.138 98.9271 281.075 101.493C280.012 104.058 279.465 106.808 279.465 109.585L272.006 109.606Z" fill="#407BFF"/>
<path d="M272.006 109.606H279.465C279.465 115.216 281.694 120.596 285.66 124.562C289.627 128.529 295.007 130.757 300.616 130.757C304.328 130.764 307.974 129.784 311.182 127.917L314.922 134.425C310.572 136.937 305.638 138.259 300.616 138.259C295.594 138.258 290.66 136.936 286.311 134.425C281.961 131.914 278.35 128.302 275.839 123.952C273.328 119.603 272.006 114.669 272.006 109.647V109.606Z" fill="#407BFF"/>
<path opacity="0.5" d="M272.006 109.606H279.465C279.465 115.216 281.694 120.596 285.66 124.562C289.627 128.529 295.007 130.757 300.616 130.757C304.328 130.764 307.974 129.784 311.182 127.917L314.922 134.425C310.572 136.937 305.638 138.259 300.616 138.259C295.594 138.258 290.66 136.936 286.311 134.425C281.961 131.914 278.35 128.302 275.839 123.952C273.328 119.603 272.006 114.669 272.006 109.647V109.606Z" fill="white"/>
<path d="M300.616 88.4444V80.9751C306.935 80.9509 313.083 83.0189 318.103 86.8564C323.122 90.6939 326.73 96.085 328.364 102.188C329.997 108.292 329.564 114.764 327.133 120.596C324.701 126.428 320.407 131.29 314.922 134.425L311.192 127.957C315.255 125.645 318.436 122.05 320.239 117.737C322.041 113.424 322.363 108.635 321.155 104.119C319.946 99.6034 317.275 95.6155 313.559 92.7794C309.842 89.9432 305.291 88.4188 300.616 88.4444V88.4444Z" fill="#407BFF"/>
<path opacity="0.7" d="M300.616 88.4444V80.9751C306.935 80.9509 313.083 83.0189 318.103 86.8564C323.122 90.6939 326.73 96.085 328.364 102.188C329.997 108.292 329.564 114.764 327.133 120.596C324.701 126.428 320.407 131.29 314.922 134.425L311.192 127.957C315.255 125.645 318.436 122.05 320.239 117.737C322.041 113.424 322.363 108.635 321.155 104.119C319.946 99.6034 317.275 95.6155 313.559 92.7794C309.842 89.9432 305.291 88.4188 300.616 88.4444V88.4444Z" fill="black"/>
<path d="M273.753 39.3981H247.687C246.758 39.3981 245.866 39.7673 245.209 40.4246C244.552 41.0819 244.182 41.9733 244.182 42.9028V91.1012C244.19 92.0254 244.563 92.909 245.22 93.5596C245.876 94.2103 246.763 94.5753 247.687 94.5753H281.049C281.977 94.5726 282.866 94.2021 283.521 93.5452C284.176 92.8882 284.543 91.9983 284.543 91.0705V50.1985L273.753 39.3981Z" fill="#263238"/>
<path d="M272.221 89.783H250.548C250.142 89.783 249.752 89.6215 249.465 89.334C249.177 89.0466 249.016 88.6568 249.016 88.2503C249.018 87.8455 249.181 87.4583 249.468 87.1731C249.755 86.8878 250.144 86.7278 250.548 86.7278H272.231C272.636 86.7278 273.024 86.8878 273.311 87.1731C273.598 87.4583 273.761 87.8455 273.764 88.2503V88.2503C273.761 88.6577 273.597 89.0475 273.308 89.3347C273.019 89.6218 272.628 89.783 272.221 89.783V89.783Z" fill="#407BFF"/>
<path d="M262.003 47.2965H250.548C250.144 47.2965 249.755 47.1365 249.468 46.8512C249.181 46.566 249.018 46.1788 249.016 45.774V45.774C249.016 45.3675 249.177 44.9777 249.465 44.6902C249.752 44.4028 250.142 44.2413 250.548 44.2413H262.013C262.419 44.2413 262.809 44.4028 263.097 44.6902C263.384 44.9777 263.546 45.3675 263.546 45.774C263.544 45.9753 263.503 46.1744 263.425 46.3598C263.347 46.5452 263.233 46.7135 263.089 46.8548C262.946 46.9962 262.776 47.108 262.59 47.1838C262.404 47.2595 262.204 47.2979 262.003 47.2965V47.2965Z" fill="#407BFF"/>
<path d="M269.492 53.3661H250.548C250.144 53.3661 249.755 53.206 249.468 52.9208C249.181 52.6356 249.018 52.2483 249.016 51.8436V51.8436C249.016 51.4371 249.177 51.0473 249.465 50.7598C249.752 50.4724 250.142 50.3109 250.548 50.3109H269.503C269.907 50.3136 270.295 50.4763 270.58 50.7634C270.865 51.0506 271.025 51.4389 271.025 51.8436V51.8436C271.025 52.0444 270.985 52.2432 270.908 52.4286C270.831 52.614 270.718 52.7823 270.576 52.9238C270.433 53.0653 270.264 53.1772 270.078 53.2531C269.892 53.3291 269.693 53.3674 269.492 53.3661Z" fill="#407BFF"/>
<path d="M278.198 59.4356H250.548C250.144 59.4356 249.755 59.2755 249.468 58.9903C249.181 58.705 249.018 58.3178 249.016 57.9131V57.9131C249.016 57.5066 249.177 57.1167 249.465 56.8293C249.752 56.5419 250.142 56.3804 250.548 56.3804H278.208C278.615 56.3804 279.005 56.5419 279.292 56.8293C279.58 57.1167 279.741 57.5066 279.741 57.9131V57.9131C279.74 58.1143 279.699 58.3134 279.621 58.4988C279.542 58.6843 279.428 58.8525 279.285 58.9939C279.142 59.1352 278.972 59.247 278.786 59.3228C278.599 59.3986 278.399 59.4369 278.198 59.4356V59.4356Z" fill="#407BFF"/>
<path d="M278.198 65.505H262.115C261.71 65.505 261.322 65.3449 261.035 65.0597C260.748 64.7745 260.585 64.3873 260.582 63.9825C260.582 63.576 260.744 63.1862 261.031 62.8987C261.319 62.6113 261.709 62.4498 262.115 62.4498H278.198C278.605 62.4498 278.995 62.6113 279.282 62.8987C279.569 63.1862 279.731 63.576 279.731 63.9825V63.9825C279.728 64.3873 279.566 64.7745 279.278 65.0597C278.991 65.3449 278.603 65.505 278.198 65.505V65.505Z" fill="#407BFF"/>
<path d="M254.738 65.505H250.548C250.144 65.505 249.755 65.3449 249.468 65.0597C249.181 64.7745 249.018 64.3873 249.016 63.9825C249.016 63.576 249.177 63.1862 249.465 62.8987C249.752 62.6113 250.142 62.4498 250.548 62.4498H254.748C255.154 62.4498 255.544 62.6113 255.832 62.8987C256.119 63.1862 256.281 63.576 256.281 63.9825C256.279 64.1838 256.238 64.3829 256.16 64.5683C256.082 64.7537 255.968 64.922 255.824 65.0633C255.681 65.2047 255.511 65.3165 255.325 65.3923C255.139 65.468 254.939 65.5064 254.738 65.505V65.505Z" fill="#407BFF"/>
<path d="M278.198 71.5745H250.548C250.142 71.5745 249.752 71.413 249.465 71.1256C249.177 70.8381 249.016 70.4483 249.016 70.0418C249.018 69.6371 249.181 69.2498 249.468 68.9646C249.755 68.6793 250.144 68.5193 250.548 68.5193H278.208C278.613 68.5193 279.001 68.6793 279.289 68.9646C279.576 69.2498 279.738 69.6371 279.741 70.0418V70.0418C279.741 70.2439 279.701 70.4441 279.623 70.6307C279.546 70.8173 279.432 70.9867 279.289 71.1292C279.145 71.2716 278.975 71.3843 278.788 71.4608C278.601 71.5372 278.4 71.5758 278.198 71.5745V71.5745Z" fill="#407BFF"/>
<path d="M267.52 77.644H250.548C250.142 77.644 249.752 77.4826 249.465 77.1951C249.177 76.9077 249.016 76.5178 249.016 76.1113C249.018 75.7066 249.181 75.3194 249.468 75.0342C249.755 74.7489 250.144 74.5889 250.548 74.5889H267.531C267.935 74.5889 268.324 74.7489 268.611 75.0342C268.898 75.3194 269.061 75.7066 269.063 76.1113V76.1113C269.063 76.3135 269.023 76.5136 268.946 76.7003C268.868 76.8869 268.754 77.0563 268.611 77.1988C268.467 77.3412 268.297 77.4539 268.11 77.5303C267.923 77.6067 267.723 77.6454 267.52 77.644V77.644Z" fill="#407BFF"/>
<path d="M278.198 77.644H273.661C273.257 77.6413 272.869 77.4787 272.584 77.1915C272.299 76.9044 272.139 76.5161 272.139 76.1113C272.139 75.7076 272.299 75.3203 272.585 75.0348C272.87 74.7493 273.258 74.5889 273.661 74.5889H278.198C278.603 74.5889 278.991 74.7489 279.278 75.0342C279.565 75.3194 279.728 75.7066 279.731 76.1113V76.1113C279.731 76.5178 279.569 76.9077 279.282 77.1951C278.995 77.4826 278.605 77.644 278.198 77.644V77.644Z" fill="#407BFF"/>
<path d="M278.198 83.7135H250.548C250.142 83.7135 249.752 83.552 249.465 83.2646C249.177 82.9772 249.016 82.5873 249.016 82.1808C249.018 81.7761 249.181 81.3888 249.468 81.1036C249.755 80.8184 250.144 80.6583 250.548 80.6583H278.208C278.613 80.6583 279.001 80.8184 279.289 81.1036C279.576 81.3888 279.738 81.7761 279.741 82.1808V82.1808C279.741 82.3829 279.701 82.5831 279.623 82.7697C279.546 82.9563 279.432 83.1257 279.289 83.2682C279.145 83.4107 278.975 83.5234 278.788 83.5998C278.601 83.6762 278.4 83.7148 278.198 83.7135V83.7135Z" fill="#407BFF"/>
<g opacity="0.5">
<path d="M272.221 89.783H250.548C250.142 89.783 249.752 89.6215 249.465 89.334C249.177 89.0466 249.016 88.6568 249.016 88.2503C249.018 87.8455 249.181 87.4583 249.468 87.1731C249.755 86.8878 250.144 86.7278 250.548 86.7278H272.231C272.636 86.7278 273.024 86.8878 273.311 87.1731C273.598 87.4583 273.761 87.8455 273.764 88.2503V88.2503C273.761 88.6577 273.597 89.0475 273.308 89.3347C273.019 89.6218 272.628 89.783 272.221 89.783V89.783Z" fill="white"/>
</g>
<g opacity="0.5">
<path d="M262.003 47.2965H250.548C250.144 47.2965 249.755 47.1365 249.468 46.8512C249.181 46.566 249.018 46.1788 249.016 45.774V45.774C249.016 45.3675 249.177 44.9777 249.465 44.6902C249.752 44.4028 250.142 44.2413 250.548 44.2413H262.013C262.419 44.2413 262.809 44.4028 263.097 44.6902C263.384 44.9777 263.546 45.3675 263.546 45.774C263.544 45.9753 263.503 46.1744 263.425 46.3598C263.347 46.5452 263.233 46.7135 263.089 46.8548C262.946 46.9962 262.776 47.108 262.59 47.1838C262.404 47.2595 262.204 47.2979 262.003 47.2965V47.2965Z" fill="white"/>
</g>
<g opacity="0.5">
<path d="M269.492 53.3661H250.548C250.144 53.3661 249.755 53.206 249.468 52.9208C249.181 52.6356 249.018 52.2483 249.016 51.8436V51.8436C249.016 51.4371 249.177 51.0473 249.465 50.7598C249.752 50.4724 250.142 50.3109 250.548 50.3109H269.503C269.907 50.3136 270.295 50.4763 270.58 50.7634C270.865 51.0506 271.025 51.4389 271.025 51.8436V51.8436C271.025 52.0444 270.985 52.2432 270.908 52.4286C270.831 52.614 270.718 52.7823 270.576 52.9238C270.433 53.0653 270.264 53.1772 270.078 53.2531C269.892 53.3291 269.693 53.3674 269.492 53.3661Z" fill="white"/>
</g>
<g opacity="0.5">
<path d="M278.198 59.4356H250.548C250.144 59.4356 249.755 59.2755 249.468 58.9903C249.181 58.705 249.018 58.3178 249.016 57.9131V57.9131C249.016 57.5066 249.177 57.1167 249.465 56.8293C249.752 56.5419 250.142 56.3804 250.548 56.3804H278.208C278.615 56.3804 279.005 56.5419 279.292 56.8293C279.58 57.1167 279.741 57.5066 279.741 57.9131V57.9131C279.74 58.1143 279.699 58.3134 279.621 58.4988C279.542 58.6843 279.428 58.8525 279.285 58.9939C279.142 59.1352 278.972 59.247 278.786 59.3228C278.599 59.3986 278.399 59.4369 278.198 59.4356V59.4356Z" fill="white"/>
</g>
<g opacity="0.5">
<path d="M278.198 65.505H262.115C261.71 65.505 261.322 65.3449 261.035 65.0597C260.748 64.7745 260.585 64.3873 260.582 63.9825C260.582 63.576 260.744 63.1862 261.031 62.8987C261.319 62.6113 261.709 62.4498 262.115 62.4498H278.198C278.605 62.4498 278.995 62.6113 279.282 62.8987C279.569 63.1862 279.731 63.576 279.731 63.9825V63.9825C279.728 64.3873 279.566 64.7745 279.278 65.0597C278.991 65.3449 278.603 65.505 278.198 65.505V65.505Z" fill="white"/>
</g>
<g opacity="0.5">
<path d="M254.738 65.505H250.548C250.144 65.505 249.755 65.3449 249.468 65.0597C249.181 64.7745 249.018 64.3873 249.016 63.9825C249.016 63.576 249.177 63.1862 249.465 62.8987C249.752 62.6113 250.142 62.4498 250.548 62.4498H254.748C255.154 62.4498 255.544 62.6113 255.832 62.8987C256.119 63.1862 256.281 63.576 256.281 63.9825C256.279 64.1838 256.238 64.3829 256.16 64.5683C256.082 64.7537 255.968 64.922 255.824 65.0633C255.681 65.2047 255.511 65.3165 255.325 65.3923C255.139 65.468 254.939 65.5064 254.738 65.505V65.505Z" fill="white"/>
</g>
<g opacity="0.5">
<path d="M278.198 71.5745H250.548C250.142 71.5745 249.752 71.413 249.465 71.1256C249.177 70.8381 249.016 70.4483 249.016 70.0418C249.018 69.6371 249.181 69.2498 249.468 68.9646C249.755 68.6793 250.144 68.5193 250.548 68.5193H278.208C278.613 68.5193 279.001 68.6793 279.289 68.9646C279.576 69.2498 279.738 69.6371 279.741 70.0418V70.0418C279.741 70.2439 279.701 70.4441 279.623 70.6307C279.546 70.8173 279.432 70.9867 279.289 71.1292C279.145 71.2716 278.975 71.3843 278.788 71.4608C278.601 71.5372 278.4 71.5758 278.198 71.5745V71.5745Z" fill="white"/>
</g>
<g opacity="0.5">
<path d="M267.52 77.644H250.548C250.142 77.644 249.752 77.4826 249.465 77.1951C249.177 76.9077 249.016 76.5178 249.016 76.1113C249.018 75.7066 249.181 75.3194 249.468 75.0342C249.755 74.7489 250.144 74.5889 250.548 74.5889H267.531C267.935 74.5889 268.324 74.7489 268.611 75.0342C268.898 75.3194 269.061 75.7066 269.063 76.1113V76.1113C269.063 76.3135 269.023 76.5136 268.946 76.7003C268.868 76.8869 268.754 77.0563 268.611 77.1988C268.467 77.3412 268.297 77.4539 268.11 77.5303C267.923 77.6067 267.723 77.6454 267.52 77.644V77.644Z" fill="white"/>
</g>
<g opacity="0.5">
<path d="M278.198 77.644H273.661C273.257 77.6413 272.869 77.4787 272.584 77.1915C272.299 76.9044 272.139 76.5161 272.139 76.1113C272.139 75.7076 272.299 75.3203 272.585 75.0348C272.87 74.7493 273.258 74.5889 273.661 74.5889H278.198C278.603 74.5889 278.991 74.7489 279.278 75.0342C279.565 75.3194 279.728 75.7066 279.731 76.1113V76.1113C279.731 76.5178 279.569 76.9077 279.282 77.1951C278.995 77.4826 278.605 77.644 278.198 77.644V77.644Z" fill="white"/>
</g>
<g opacity="0.5">
<path d="M278.198 83.7135H250.548C250.142 83.7135 249.752 83.552 249.465 83.2646C249.177 82.9772 249.016 82.5873 249.016 82.1808C249.018 81.7761 249.181 81.3888 249.468 81.1036C249.755 80.8184 250.144 80.6583 250.548 80.6583H278.208C278.613 80.6583 279.001 80.8184 279.289 81.1036C279.576 81.3888 279.738 81.7761 279.741 82.1808V82.1808C279.741 82.3829 279.701 82.5831 279.623 82.7697C279.546 82.9563 279.432 83.1257 279.289 83.2682C279.145 83.4107 278.975 83.5234 278.788 83.5998C278.601 83.6762 278.4 83.7148 278.198 83.7135V83.7135Z" fill="white"/>
</g>
<path d="M273.753 39.3981V46.6937C273.752 47.1544 273.842 47.6107 274.017 48.0365C274.193 48.4624 274.451 48.8493 274.777 49.175C275.103 49.5007 275.489 49.7588 275.915 49.9345C276.341 50.1101 276.797 50.1998 277.258 50.1985H284.544L273.753 39.3981Z" fill="#407BFF"/>
<path opacity="0.5" d="M273.753 39.3981V46.6937C273.752 47.1544 273.842 47.6107 274.017 48.0365C274.193 48.4624 274.451 48.8493 274.777 49.175C275.103 49.5007 275.489 49.7588 275.915 49.9345C276.341 50.1101 276.797 50.1998 277.258 50.1985H284.544L273.753 39.3981Z" fill="white"/>
</svg>
