<svg width="420" height="355" viewBox="0 0 420 355" fill="none" xmlns="http://www.w3.org/2000/svg">
<path d="M419.356 324.365H385.029V324.624H419.356V324.365Z" fill="#EBEBEB"/>
<path d="M296.348 327.185H287.342V327.444H296.348V327.185Z" fill="#EBEBEB"/>
<path d="M383.992 314.747H364.102V315.006H383.992V314.747Z" fill="#EBEBEB"/>
<path d="M52.1885 316.488H7.42358V316.747H52.1885V316.488Z" fill="#EBEBEB"/>
<path d="M67.9842 316.488H61.4233V316.747H67.9842V316.488Z" fill="#EBEBEB"/>
<path d="M186.411 320.862H89.3147V321.121H186.411V320.862Z" fill="#EBEBEB"/>
<path d="M374.737 65.2905L340.295 45.2556H313.761L278.75 64.3473V194.196H374.737V65.2905Z" fill="#E0E0E0"/>
<path d="M277.765 65.2904L278.75 64.3472C291.503 52.0564 308.539 45.2096 326.251 45.2555V45.2555C343.963 45.2096 360.998 52.0564 373.752 64.3472L374.788 65.2904V194.196H277.765V65.2904ZM368.31 68.0474C356.829 57.5279 341.823 51.6927 326.251 51.6927C310.679 51.6927 295.672 57.5279 284.191 68.0474V187.769H368.31V68.0474Z" fill="#FAFAFA"/>
<path d="M328.665 188.537H323.835V145.44H282.978V140.621H323.835V96.5399H282.978V91.7204H323.835V50.8525H328.665V91.7204H369.523V96.5399H328.665V140.621H369.523V145.44H328.665V188.537Z" fill="#F0F0F0"/>
<path d="M274.541 63.974L275.484 63.0412C288.96 49.5828 307.226 42.0233 326.271 42.0233C345.316 42.0233 363.583 49.5828 377.058 63.0412L378.001 63.974V197.409H274.541V63.974ZM371.523 66.6585C359.342 54.9848 343.122 48.4676 326.251 48.4676C309.379 48.4676 293.159 54.9848 280.978 66.6585V191.034H371.523V66.6585Z" fill="#F0F0F0"/>
<path d="M146.569 65.2905L112.127 45.2556H85.5938L50.582 64.3473V194.196H146.569V65.2905Z" fill="#E0E0E0"/>
<path d="M49.5972 65.2904L50.5818 64.3472C63.3356 52.0564 80.3708 45.2096 98.083 45.2555C115.795 45.2096 132.83 52.0564 145.584 64.3472L146.621 65.2904V194.196H49.5972V65.2904ZM140.143 68.0474C128.661 57.5279 113.655 51.6927 98.083 51.6927C82.5112 51.6927 67.5046 57.5279 56.0232 68.0474V187.769H140.143V68.0474Z" fill="#FAFAFA"/>
<path d="M100.498 188.537H95.6683V145.44H54.8108V140.621H95.6683V96.5399H54.8108V91.7204H95.6683V50.8525H100.498V91.7204H141.356V96.5399H100.498V140.621H141.356V145.44H100.498V188.537Z" fill="#F0F0F0"/>
<path d="M46.3325 63.974L47.2757 63.0412C60.7511 49.5828 79.0174 42.0233 98.0625 42.0233C117.108 42.0233 135.374 49.5828 148.849 63.0412L149.792 63.974V197.409H46.3325V63.974ZM143.315 66.6585C131.133 54.9848 114.914 48.4676 98.0418 48.4676C81.1699 48.4676 64.9502 54.9848 52.769 66.6585V191.034H143.315V66.6585Z" fill="#F0F0F0"/>
<path d="M52.9658 299.521H30.5781V308.373H52.9658V299.521Z" fill="#F5F5F5"/>
<path d="M28.6088 299.521H18.3997V308.373H28.6088V299.521Z" fill="#F5F5F5"/>
<path d="M77.302 299.521H54.9143V308.373H77.302V299.521Z" fill="#F5F5F5"/>
<path d="M101.648 299.521H79.2607V308.373H101.648V299.521Z" fill="#F5F5F5"/>
<path d="M125.995 299.521H103.607V308.373H125.995V299.521Z" fill="#F5F5F5"/>
<path d="M150.331 299.521H127.944V308.373H150.331V299.521Z" fill="#F5F5F5"/>
<path d="M174.678 299.521H152.29V308.373H174.678V299.521Z" fill="#F5F5F5"/>
<path d="M199.014 299.521H176.626V308.373H199.014V299.521Z" fill="#F5F5F5"/>
<path d="M223.361 299.521H200.973V308.373H223.361V299.521Z" fill="#F5F5F5"/>
<path d="M247.707 299.521H225.319V308.373H247.707V299.521Z" fill="#F5F5F5"/>
<path d="M272.043 299.521H249.656V308.373H272.043V299.521Z" fill="#F5F5F5"/>
<path d="M296.39 299.521H274.002V308.373H296.39V299.521Z" fill="#F5F5F5"/>
<path d="M320.737 299.521H298.349V308.373H320.737V299.521Z" fill="#F5F5F5"/>
<path d="M345.073 299.521H322.685V308.373H345.073V299.521Z" fill="#F5F5F5"/>
<path d="M369.419 299.521H347.032V308.373H369.419V299.521Z" fill="#F5F5F5"/>
<path d="M393.766 299.521H371.378V308.373H393.766V299.521Z" fill="#F5F5F5"/>
<path d="M405.924 299.521H395.714V308.373H405.924V299.521Z" fill="#F5F5F5"/>
<path d="M40.7873 288.431H18.3997V297.283H40.7873V288.431Z" fill="#F5F5F5"/>
<path d="M65.134 288.431H42.7463V297.283H65.134V288.431Z" fill="#F5F5F5"/>
<path d="M89.4807 288.431H67.093V297.283H89.4807V288.431Z" fill="#F5F5F5"/>
<path d="M113.817 288.431H91.4292V297.283H113.817V288.431Z" fill="#F5F5F5"/>
<path d="M138.163 288.431H115.776V297.283H138.163V288.431Z" fill="#F5F5F5"/>
<path d="M162.51 288.431H140.122V297.283H162.51V288.431Z" fill="#F5F5F5"/>
<path d="M186.846 288.431H164.458V297.283H186.846V288.431Z" fill="#F5F5F5"/>
<path d="M211.193 288.431H188.805V297.283H211.193V288.431Z" fill="#F5F5F5"/>
<path d="M235.529 288.431H213.141V297.283H235.529V288.431Z" fill="#F5F5F5"/>
<path d="M259.875 288.431H237.488V297.283H259.875V288.431Z" fill="#F5F5F5"/>
<path d="M284.222 288.431H261.834V297.283H284.222V288.431Z" fill="#F5F5F5"/>
<path d="M308.558 288.431H286.17V297.283H308.558V288.431Z" fill="#F5F5F5"/>
<path d="M332.905 288.431H310.517V297.283H332.905V288.431Z" fill="#F5F5F5"/>
<path d="M357.251 288.431H334.864V297.283H357.251V288.431Z" fill="#F5F5F5"/>
<path d="M381.588 288.431H359.2V297.283H381.588V288.431Z" fill="#F5F5F5"/>
<path d="M405.934 288.431H383.547V297.283H405.934V288.431Z" fill="#F5F5F5"/>
<path d="M52.9658 277.341H30.5781V286.192H52.9658V277.341Z" fill="#F5F5F5"/>
<path d="M28.6088 277.341H18.3997V286.192H28.6088V277.341Z" fill="#F5F5F5"/>
<path d="M77.302 277.341H54.9143V286.192H77.302V277.341Z" fill="#F5F5F5"/>
<path d="M101.648 277.341H79.2607V286.192H101.648V277.341Z" fill="#F5F5F5"/>
<path d="M125.995 277.341H103.607V286.192H125.995V277.341Z" fill="#F5F5F5"/>
<path d="M150.331 277.341H127.944V286.192H150.331V277.341Z" fill="#F5F5F5"/>
<path d="M174.678 277.341H152.29V286.192H174.678V277.341Z" fill="#F5F5F5"/>
<path d="M199.014 277.341H176.626V286.192H199.014V277.341Z" fill="#F5F5F5"/>
<path d="M223.361 277.341H200.973V286.192H223.361V277.341Z" fill="#F5F5F5"/>
<path d="M247.707 277.341H225.319V286.192H247.707V277.341Z" fill="#F5F5F5"/>
<path d="M272.043 277.341H249.656V286.192H272.043V277.341Z" fill="#F5F5F5"/>
<path d="M296.39 277.341H274.002V286.192H296.39V277.341Z" fill="#F5F5F5"/>
<path d="M320.737 277.341H298.349V286.192H320.737V277.341Z" fill="#F5F5F5"/>
<path d="M345.073 277.341H322.685V286.192H345.073V277.341Z" fill="#F5F5F5"/>
<path d="M369.419 277.341H347.032V286.192H369.419V277.341Z" fill="#F5F5F5"/>
<path d="M393.766 277.341H371.378V286.192H393.766V277.341Z" fill="#F5F5F5"/>
<path d="M405.924 277.341H395.714V286.192H405.924V277.341Z" fill="#F5F5F5"/>
<path d="M40.7873 266.251H18.3997V275.102H40.7873V266.251Z" fill="#F5F5F5"/>
<path d="M65.134 266.251H42.7463V275.102H65.134V266.251Z" fill="#F5F5F5"/>
<path d="M89.4807 266.251H67.093V275.102H89.4807V266.251Z" fill="#F5F5F5"/>
<path d="M113.817 266.251H91.4292V275.102H113.817V266.251Z" fill="#F5F5F5"/>
<path d="M138.163 266.251H115.776V275.102H138.163V266.251Z" fill="#F5F5F5"/>
<path d="M162.51 266.251H140.122V275.102H162.51V266.251Z" fill="#F5F5F5"/>
<path d="M186.846 266.251H164.458V275.102H186.846V266.251Z" fill="#F5F5F5"/>
<path d="M211.193 266.251H188.805V275.102H211.193V266.251Z" fill="#F5F5F5"/>
<path d="M235.529 266.251H213.141V275.102H235.529V266.251Z" fill="#F5F5F5"/>
<path d="M259.875 266.251H237.488V275.102H259.875V266.251Z" fill="#F5F5F5"/>
<path d="M284.222 266.251H261.834V275.102H284.222V266.251Z" fill="#F5F5F5"/>
<path d="M308.558 266.251H286.17V275.102H308.558V266.251Z" fill="#F5F5F5"/>
<path d="M332.905 266.251H310.517V275.102H332.905V266.251Z" fill="#F5F5F5"/>
<path d="M357.251 266.251H334.864V275.102H357.251V266.251Z" fill="#F5F5F5"/>
<path d="M381.588 266.251H359.2V275.102H381.588V266.251Z" fill="#F5F5F5"/>
<path d="M405.934 266.251H383.547V275.102H405.934V266.251Z" fill="#F5F5F5"/>
<path d="M52.9658 255.16H30.5781V264.012H52.9658V255.16Z" fill="#F5F5F5"/>
<path d="M28.6088 255.16H18.3997V264.012H28.6088V255.16Z" fill="#F5F5F5"/>
<path d="M77.302 255.16H54.9143V264.012H77.302V255.16Z" fill="#F5F5F5"/>
<path d="M101.648 255.16H79.2607V264.012H101.648V255.16Z" fill="#F5F5F5"/>
<path d="M125.995 255.16H103.607V264.012H125.995V255.16Z" fill="#F5F5F5"/>
<path d="M150.331 255.16H127.944V264.012H150.331V255.16Z" fill="#F5F5F5"/>
<path d="M174.678 255.16H152.29V264.012H174.678V255.16Z" fill="#F5F5F5"/>
<path d="M199.014 255.16H176.626V264.012H199.014V255.16Z" fill="#F5F5F5"/>
<path d="M223.361 255.16H200.973V264.012H223.361V255.16Z" fill="#F5F5F5"/>
<path d="M247.707 255.16H225.319V264.012H247.707V255.16Z" fill="#F5F5F5"/>
<path d="M272.043 255.16H249.656V264.012H272.043V255.16Z" fill="#F5F5F5"/>
<path d="M296.39 255.16H274.002V264.012H296.39V255.16Z" fill="#F5F5F5"/>
<path d="M320.737 255.16H298.349V264.012H320.737V255.16Z" fill="#F5F5F5"/>
<path d="M345.073 255.16H322.685V264.012H345.073V255.16Z" fill="#F5F5F5"/>
<path d="M369.419 255.16H347.032V264.012H369.419V255.16Z" fill="#F5F5F5"/>
<path d="M393.766 255.16H371.378V264.012H393.766V255.16Z" fill="#F5F5F5"/>
<path d="M405.924 255.16H395.714V264.012H405.924V255.16Z" fill="#F5F5F5"/>
<path d="M40.7873 244.07H18.3997V252.922H40.7873V244.07Z" fill="#F5F5F5"/>
<path d="M65.134 244.07H42.7463V252.922H65.134V244.07Z" fill="#F5F5F5"/>
<path d="M89.4807 244.07H67.093V252.922H89.4807V244.07Z" fill="#F5F5F5"/>
<path d="M113.817 244.07H91.4292V252.922H113.817V244.07Z" fill="#F5F5F5"/>
<path d="M138.163 244.07H115.776V252.922H138.163V244.07Z" fill="#F5F5F5"/>
<path d="M162.51 244.07H140.122V252.922H162.51V244.07Z" fill="#F5F5F5"/>
<path d="M186.846 244.07H164.458V252.922H186.846V244.07Z" fill="#F5F5F5"/>
<path d="M211.193 244.07H188.805V252.922H211.193V244.07Z" fill="#F5F5F5"/>
<path d="M235.529 244.07H213.141V252.922H235.529V244.07Z" fill="#F5F5F5"/>
<path d="M259.875 244.07H237.488V252.922H259.875V244.07Z" fill="#F5F5F5"/>
<path d="M284.222 244.07H261.834V252.922H284.222V244.07Z" fill="#F5F5F5"/>
<path d="M308.558 244.07H286.17V252.922H308.558V244.07Z" fill="#F5F5F5"/>
<path d="M332.905 244.07H310.517V252.922H332.905V244.07Z" fill="#F5F5F5"/>
<path d="M357.251 244.07H334.864V252.922H357.251V244.07Z" fill="#F5F5F5"/>
<path d="M381.588 244.07H359.2V252.922H381.588V244.07Z" fill="#F5F5F5"/>
<path d="M405.934 244.07H383.547V252.922H405.934V244.07Z" fill="#F5F5F5"/>
<path d="M212.167 354.495C323.154 354.495 413.127 349.242 413.127 342.763C413.127 336.283 323.154 331.03 212.167 331.03C101.18 331.03 11.2065 336.283 11.2065 342.763C11.2065 349.242 101.18 354.495 212.167 354.495Z" fill="#F5F5F5"/>
<path d="M231.654 231.95C274.292 189.312 274.292 120.182 231.654 77.5439C189.016 34.906 119.886 34.906 77.2485 77.5439C34.6105 120.182 34.6105 189.312 77.2485 231.95C119.886 274.587 189.016 274.587 231.654 231.95Z" fill="#407BFF"/>
<path opacity="0.4" d="M227.257 227.552C267.466 187.343 267.466 122.151 227.257 81.9413C187.047 41.7319 121.855 41.7319 81.6458 81.9413C41.4364 122.151 41.4364 187.343 81.6458 227.552C121.855 267.761 187.047 267.761 227.257 227.552Z" fill="white"/>
<path opacity="0.7" d="M254.921 154.748C254.938 176.818 247.693 198.281 234.302 215.824C220.911 233.368 202.12 246.018 180.827 251.823C159.533 257.628 136.922 256.265 116.48 247.944C96.0387 239.623 78.903 224.807 67.717 205.781C56.531 186.756 51.9162 164.578 54.5846 142.67C57.253 120.762 67.0563 100.34 82.482 84.556C97.9078 68.7719 118.099 58.5022 139.94 55.3313C161.781 52.1605 184.059 56.2648 203.336 67.0109C218.96 75.7266 231.977 88.4514 241.044 103.874C250.112 119.296 254.902 136.857 254.921 154.748Z" fill="white"/>
<path opacity="0.2" d="M154.446 45.5665C132.853 45.5686 111.744 51.9737 93.7911 63.9719C75.8377 75.9702 61.8452 93.0227 53.5832 112.973C45.3211 132.924 43.1604 154.876 47.3743 176.054C51.5883 197.233 61.9876 216.686 77.2573 231.954C92.527 247.222 111.981 257.62 133.16 261.832C154.339 266.044 176.291 263.881 196.241 255.617C216.19 247.353 233.242 233.359 245.238 215.405C257.235 197.45 263.638 176.341 263.638 154.748C263.638 140.409 260.813 126.211 255.326 112.964C249.838 99.7164 241.795 87.6799 231.656 77.5413C221.516 67.4028 209.479 59.3607 196.231 53.8745C182.983 48.3882 168.785 45.5652 154.446 45.5665ZM154.446 261.742C133.282 261.742 112.593 255.466 94.9964 243.708C77.3993 231.95 63.6843 215.237 55.5857 195.684C47.487 176.131 45.3686 154.615 49.4982 133.858C53.6279 113.101 63.8201 94.0345 78.786 79.07C93.7519 64.1056 112.819 53.9152 133.577 49.7875C154.334 45.6599 175.85 47.7804 195.402 55.881C214.955 63.9815 231.666 77.6982 243.422 95.2963C255.179 112.895 261.453 133.584 261.451 154.748C261.451 168.799 258.683 182.713 253.305 195.695C247.928 208.677 240.046 220.472 230.109 230.408C220.173 240.343 208.377 248.224 195.394 253.601C182.412 258.977 168.498 261.743 154.446 261.742V261.742Z" fill="black"/>
<path d="M203.337 67.0109L154.447 155.504V54.2831C171.566 54.256 188.404 58.6394 203.337 67.0109V67.0109Z" fill="#407BFF"/>
<path opacity="0.5" d="M203.337 67.0109L154.447 155.504V54.2831C171.566 54.256 188.404 58.6394 203.337 67.0109V67.0109Z" fill="white"/>
<g opacity="0.7">
<path d="M157.69 60.5227L159.307 60.5953L158.851 67.9334L163.401 68.2133L163.308 69.5814L157.151 69.1979L157.69 60.5227Z" fill="white"/>
<path d="M163.515 65.7776L164.22 60.9062L165.827 61.1446L165.122 65.9435C164.863 67.7158 165.547 68.5968 166.946 68.8041C168.345 69.0114 169.237 68.3584 169.496 66.5861L170.2 61.7769L171.776 62.0153L171.061 66.8763C170.698 69.3845 169.081 70.5454 166.728 70.2033C164.376 69.8613 163.142 68.3066 163.515 65.7776Z" fill="white"/>
<path d="M180.938 64.2126L178.865 72.6701L177.57 72.3488L174.326 65.4667L172.906 71.188L171.351 70.8045L173.424 62.3469L174.72 62.6682L177.964 69.5504L179.384 63.8187L180.938 64.2126Z" fill="white"/>
<path d="M180.576 68.6485C180.924 67.7947 181.516 67.0619 182.277 66.5407C183.038 66.0196 183.935 65.733 184.857 65.7165C185.779 65.6999 186.686 65.9541 187.465 66.4476C188.244 66.9411 188.861 67.6523 189.24 68.493L187.924 69.0734C187.754 68.6707 187.501 68.3084 187.181 68.0101C186.861 67.7119 186.482 67.4844 186.069 67.3425C185.675 67.122 185.237 66.99 184.787 66.9557C184.337 66.9214 183.884 66.9857 183.461 67.1439C183.038 67.3022 182.655 67.5507 182.338 67.8721C182.02 68.1936 181.777 68.5803 181.624 69.0054C181.472 69.4304 181.413 69.8836 181.454 70.3335C181.494 70.7833 181.632 71.219 181.858 71.6101C182.083 72.0013 182.391 72.3386 182.761 72.5986C183.13 72.8586 183.552 73.0351 183.996 73.1156C184.408 73.2686 184.849 73.3303 185.287 73.2963C185.726 73.2623 186.152 73.1334 186.535 72.9187L187.199 74.2039C186.376 74.6167 185.45 74.7802 184.536 74.6742C183.621 74.5682 182.757 74.1974 182.051 73.6074C181.344 73.0173 180.825 72.2337 180.557 71.3528C180.29 70.4718 180.285 69.5319 180.545 68.6485H180.576Z" fill="white"/>
<path d="M197.584 70.877L193.915 78.7749L192.443 78.0908L194.018 74.712L189.935 72.8152L188.328 76.1941L186.867 75.51L190.536 67.6122L191.997 68.2962L190.484 71.5611L194.568 73.4578L196.081 70.193L197.584 70.877Z" fill="white"/>
</g>
<path d="M154.457 158.479C154.326 158.489 154.194 158.489 154.063 158.479C153.079 158.377 152.176 157.889 151.552 157.121C150.928 156.353 150.634 155.369 150.736 154.385L157.234 91.5856C157.278 91.0928 157.42 90.6137 157.651 90.1762C157.882 89.7386 158.198 89.3514 158.58 89.037C158.962 88.7226 159.402 88.4873 159.876 88.3449C160.35 88.2024 160.847 88.1555 161.34 88.2071C161.832 88.2586 162.309 88.4075 162.742 88.6451C163.176 88.8826 163.559 89.2041 163.867 89.5909C164.176 89.9776 164.405 90.4219 164.54 90.8978C164.675 91.3737 164.714 91.8717 164.655 92.3629L158.136 155.131C158.04 156.043 157.612 156.888 156.933 157.505C156.255 158.122 155.374 158.469 154.457 158.479V158.479Z" fill="#263238"/>
<path d="M159.68 105.65H159.556C159.393 105.634 159.235 105.585 159.091 105.507C158.948 105.429 158.821 105.323 158.718 105.196C158.614 105.069 158.538 104.923 158.491 104.766C158.445 104.609 158.43 104.445 158.447 104.282L159.732 91.8447C159.766 91.5162 159.93 91.2148 160.186 91.0068C160.443 90.7988 160.772 90.7013 161.1 90.7356C161.429 90.77 161.73 90.9335 161.938 91.19C162.146 91.4466 162.244 91.7753 162.209 92.1038L160.924 104.541C160.888 104.846 160.742 105.128 160.513 105.332C160.284 105.537 159.987 105.65 159.68 105.65V105.65Z" fill="#407BFF"/>
<g opacity="0.2">
<path d="M154.457 158.479C154.326 158.489 154.194 158.489 154.063 158.479C153.079 158.377 152.176 157.889 151.552 157.121C150.928 156.353 150.634 155.369 150.736 154.385L157.234 91.5856C157.278 91.0928 157.42 90.6137 157.651 90.1762C157.882 89.7386 158.198 89.3514 158.58 89.037C158.962 88.7226 159.402 88.4873 159.876 88.3449C160.35 88.2024 160.847 88.1555 161.34 88.2071C161.832 88.2586 162.309 88.4075 162.742 88.6451C163.176 88.8826 163.559 89.2041 163.867 89.5909C164.176 89.9776 164.405 90.4219 164.54 90.8978C164.675 91.3737 164.714 91.8717 164.655 92.3629L158.136 155.131C158.04 156.043 157.612 156.888 156.933 157.505C156.255 158.122 155.374 158.469 154.457 158.479V158.479Z" fill="white"/>
<path d="M159.681 105.65H159.556C159.394 105.634 159.236 105.585 159.092 105.507C158.948 105.429 158.821 105.323 158.718 105.196C158.615 105.069 158.538 104.923 158.492 104.766C158.445 104.609 158.43 104.445 158.447 104.282L159.733 91.8447C159.767 91.5162 159.93 91.2148 160.187 91.0068C160.444 90.7988 160.772 90.7013 161.101 90.7356C161.429 90.77 161.731 90.9335 161.939 91.19C162.147 91.4466 162.244 91.7753 162.21 92.1038L160.924 104.541C160.889 104.846 160.743 105.128 160.513 105.332C160.284 105.537 159.988 105.65 159.681 105.65V105.65Z" fill="white"/>
</g>
<path d="M154.446 71.3538C154.309 71.3538 154.177 71.2991 154.08 71.202C153.983 71.1048 153.928 70.973 153.928 70.8355V59.3515C153.931 59.2149 153.986 59.0846 154.083 58.988C154.179 58.8914 154.31 58.8359 154.446 58.8333C154.584 58.8333 154.715 58.8878 154.813 58.985C154.91 59.0822 154.964 59.214 154.964 59.3515V70.8355C154.964 70.973 154.91 71.1048 154.813 71.202C154.715 71.2991 154.584 71.3538 154.446 71.3538Z" fill="#263238"/>
<path d="M154.446 250.662C154.31 250.66 154.179 250.604 154.083 250.508C153.986 250.411 153.931 250.281 153.928 250.144V238.65C153.931 238.513 153.986 238.383 154.083 238.286C154.179 238.19 154.31 238.134 154.446 238.131C154.584 238.131 154.715 238.186 154.813 238.283C154.91 238.38 154.964 238.512 154.964 238.65V250.144C154.964 250.282 154.91 250.413 154.813 250.511C154.715 250.608 154.584 250.662 154.446 250.662Z" fill="#263238"/>
<path d="M249.843 155.266H238.359C238.221 155.266 238.089 155.211 237.992 155.114C237.895 155.017 237.84 154.885 237.84 154.748C237.84 154.61 237.895 154.478 237.992 154.381C238.089 154.284 238.221 154.229 238.359 154.229H249.843C249.98 154.229 250.112 154.284 250.209 154.381C250.306 154.478 250.361 154.61 250.361 154.748C250.361 154.885 250.306 155.017 250.209 155.114C250.112 155.211 249.98 155.266 249.843 155.266V155.266Z" fill="#263238"/>
<path d="M70.5443 155.266H59.0602C58.9228 155.266 58.791 155.211 58.6938 155.114C58.5966 155.017 58.542 154.885 58.542 154.748C58.542 154.61 58.5966 154.478 58.6938 154.381C58.791 154.284 58.9228 154.229 59.0602 154.229H70.5443C70.6817 154.229 70.8135 154.284 70.9107 154.381C71.0079 154.478 71.0625 154.61 71.0625 154.748C71.0625 154.885 71.0079 155.017 70.9107 155.114C70.8135 155.211 70.6817 155.266 70.5443 155.266Z" fill="#263238"/>
<path d="M113.589 81.9775C113.497 81.977 113.407 81.9516 113.329 81.9042C113.25 81.8567 113.186 81.7889 113.143 81.708L107.546 71.675C107.479 71.5554 107.462 71.414 107.499 71.2819C107.536 71.1498 107.624 71.0377 107.743 70.9702C107.864 70.9066 108.006 70.8927 108.137 70.9314C108.269 70.9701 108.38 71.0583 108.448 71.1775L114.045 81.2105C114.109 81.3307 114.125 81.4711 114.088 81.6025C114.051 81.7338 113.965 81.8459 113.848 81.9153C113.768 81.9566 113.679 81.9779 113.589 81.9775Z" fill="#263238"/>
<path d="M200.901 238.588C200.808 238.585 200.718 238.558 200.638 238.511C200.558 238.464 200.492 238.398 200.445 238.318L194.858 228.285C194.791 228.165 194.774 228.024 194.811 227.892C194.848 227.76 194.936 227.648 195.055 227.58C195.175 227.513 195.316 227.496 195.448 227.533C195.58 227.57 195.692 227.658 195.76 227.777L201.357 237.81C201.39 237.87 201.41 237.936 201.418 238.004C201.425 238.071 201.419 238.14 201.4 238.206C201.38 238.271 201.348 238.332 201.305 238.385C201.262 238.438 201.209 238.482 201.149 238.515C201.076 238.564 200.989 238.589 200.901 238.588V238.588Z" fill="#263238"/>
<path d="M71.1354 201.72C71.0424 201.72 70.9512 201.694 70.8711 201.647C70.7911 201.6 70.7249 201.532 70.6793 201.451C70.6447 201.392 70.6222 201.327 70.6134 201.259C70.6046 201.191 70.6095 201.122 70.6279 201.057C70.6463 200.991 70.6777 200.929 70.7204 200.876C70.7631 200.823 70.8161 200.778 70.8763 200.746L80.9092 195.149C81.0307 195.086 81.172 195.072 81.3035 195.11C81.435 195.149 81.5463 195.237 81.614 195.356C81.6812 195.476 81.6981 195.617 81.6612 195.75C81.6243 195.882 81.5365 195.994 81.4171 196.061L71.3841 201.648C71.31 201.696 71.2236 201.721 71.1354 201.72Z" fill="#263238"/>
<path d="M227.714 114.408C227.622 114.408 227.532 114.383 227.454 114.335C227.375 114.288 227.311 114.22 227.268 114.139C227.201 114.019 227.184 113.878 227.221 113.746C227.258 113.614 227.346 113.502 227.465 113.434L237.498 107.848C237.618 107.78 237.759 107.763 237.891 107.8C238.023 107.837 238.135 107.925 238.203 108.044C238.267 108.165 238.283 108.305 238.246 108.436C238.209 108.568 238.123 108.68 238.006 108.749L227.973 114.336C227.895 114.384 227.805 114.409 227.714 114.408V114.408Z" fill="#263238"/>
<path d="M195.304 81.9775C195.217 81.9766 195.132 81.9553 195.055 81.9153C194.936 81.8478 194.848 81.7357 194.811 81.6036C194.774 81.4715 194.791 81.3301 194.858 81.2105L200.445 71.1775C200.512 71.0583 200.624 70.9701 200.755 70.9314C200.887 70.8927 201.028 70.9066 201.149 70.9702C201.209 71.0027 201.262 71.0468 201.305 71.0999C201.348 71.153 201.38 71.214 201.4 71.2795C201.419 71.345 201.425 71.4137 201.418 71.4815C201.41 71.5494 201.39 71.6151 201.357 71.675L195.76 81.708C195.716 81.7905 195.65 81.8593 195.57 81.9069C195.489 81.9544 195.397 81.9789 195.304 81.9775Z" fill="#263238"/>
<path d="M108.002 238.588C107.91 238.589 107.82 238.564 107.743 238.515C107.683 238.483 107.63 238.438 107.587 238.385C107.544 238.332 107.513 238.27 107.495 238.204C107.476 238.139 107.471 238.07 107.48 238.002C107.489 237.934 107.511 237.869 107.546 237.81L113.143 227.777C113.214 227.665 113.326 227.585 113.454 227.553C113.583 227.521 113.719 227.539 113.834 227.604C113.95 227.669 114.036 227.776 114.075 227.903C114.114 228.029 114.103 228.166 114.045 228.285L108.448 238.318C108.403 238.398 108.338 238.464 108.26 238.511C108.182 238.559 108.093 238.585 108.002 238.588Z" fill="#263238"/>
<path d="M237.768 201.72C237.679 201.721 237.593 201.695 237.519 201.648L227.486 196.061C227.366 195.994 227.279 195.882 227.242 195.749C227.205 195.617 227.222 195.476 227.289 195.356C227.322 195.296 227.366 195.243 227.419 195.2C227.472 195.158 227.533 195.126 227.598 195.106C227.664 195.087 227.732 195.081 227.8 195.088C227.868 195.096 227.934 195.116 227.994 195.149L238.027 200.746C238.146 200.813 238.234 200.926 238.271 201.058C238.308 201.19 238.291 201.331 238.224 201.451C238.178 201.532 238.112 201.599 238.032 201.647C237.952 201.694 237.861 201.719 237.768 201.72Z" fill="#263238"/>
<path d="M81.1578 114.409C81.0696 114.409 80.9832 114.384 80.909 114.336L70.876 108.749C70.7643 108.678 70.6841 108.567 70.652 108.438C70.6198 108.31 70.6381 108.174 70.7032 108.058C70.7682 107.943 70.875 107.857 71.0016 107.817C71.1282 107.778 71.265 107.789 71.3839 107.848L81.4169 113.434C81.5363 113.502 81.6241 113.614 81.661 113.746C81.6979 113.878 81.681 114.019 81.6138 114.139C81.57 114.222 81.5042 114.29 81.4237 114.338C81.3433 114.386 81.2512 114.41 81.1578 114.409Z" fill="#263238"/>
<path d="M154.446 158.479C153.796 158.481 153.156 158.312 152.591 157.99C152.026 157.668 151.555 157.203 151.226 156.642C150.896 156.08 150.72 155.443 150.714 154.792C150.708 154.142 150.873 153.501 151.192 152.934L189.22 84.5272C189.452 84.0876 189.769 83.6988 190.153 83.3835C190.537 83.0683 190.981 82.8329 191.457 82.6914C191.934 82.5498 192.434 82.5049 192.928 82.5592C193.422 82.6135 193.9 82.766 194.334 83.0076C194.768 83.2493 195.15 83.5753 195.457 83.9665C195.763 84.3577 195.989 84.8062 196.119 85.2857C196.25 85.7651 196.284 86.2659 196.219 86.7587C196.153 87.2514 195.99 87.726 195.739 88.1548L157.711 156.562C157.387 157.143 156.913 157.627 156.339 157.964C155.765 158.301 155.112 158.479 154.446 158.479Z" fill="#263238"/>
<path d="M160.054 154.748C160.054 155.857 159.725 156.941 159.109 157.863C158.493 158.785 157.617 159.504 156.592 159.928C155.568 160.353 154.44 160.464 153.352 160.247C152.265 160.031 151.266 159.497 150.481 158.713C149.697 157.929 149.163 156.929 148.947 155.842C148.73 154.754 148.842 153.627 149.266 152.602C149.69 151.577 150.409 150.702 151.331 150.086C152.253 149.469 153.337 149.141 154.446 149.141C155.934 149.141 157.36 149.731 158.411 150.783C159.463 151.834 160.054 153.261 160.054 154.748V154.748Z" fill="#263238"/>
<path opacity="0.2" d="M154.446 157.867C153.831 157.867 153.23 157.685 152.719 157.343C152.207 157.002 151.809 156.516 151.574 155.948C151.338 155.38 151.277 154.755 151.397 154.151C151.517 153.548 151.813 152.994 152.248 152.559C152.682 152.124 153.237 151.828 153.84 151.708C154.443 151.588 155.068 151.65 155.636 151.885C156.204 152.121 156.69 152.519 157.032 153.03C157.373 153.542 157.556 154.143 157.556 154.758C157.556 155.583 157.228 156.374 156.645 156.957C156.062 157.54 155.271 157.867 154.446 157.867Z" fill="white"/>
<path d="M185.914 99.4318C185.704 99.4294 185.497 99.3761 185.312 99.2763C185.024 99.1168 184.81 98.8492 184.719 98.5324C184.628 98.2156 184.666 97.8755 184.825 97.5868L191.438 85.7919C191.508 85.6339 191.61 85.4923 191.738 85.376C191.865 85.2597 192.016 85.1712 192.18 85.1163C192.343 85.0614 192.517 85.0412 192.689 85.057C192.861 85.0728 193.028 85.1242 193.179 85.208C193.33 85.2919 193.462 85.4062 193.566 85.5438C193.67 85.6815 193.745 85.8393 193.785 86.0073C193.825 86.1754 193.83 86.3499 193.798 86.5198C193.767 86.6897 193.701 86.8513 193.604 86.9942L187.043 98.7995C186.931 98.9985 186.766 99.1627 186.567 99.2742C186.368 99.3857 186.142 99.4402 185.914 99.4318V99.4318Z" fill="#407BFF"/>
<path d="M78.8155 315.193H78.0071C78.0071 313.99 79.0435 285.664 83.9357 280.875C88.8278 276.087 94.9533 280.803 95.0155 280.875L94.4972 281.497C94.2796 281.311 89.0454 277.061 84.4954 281.497C79.9453 285.933 78.8259 314.903 78.8155 315.193Z" fill="#407BFF"/>
<path d="M78.4629 320.872L77.6544 320.8C77.6544 320.458 80.8364 286.41 68.5024 272.252L69.114 271.713C81.6241 286.14 78.4629 320.53 78.4629 320.872Z" fill="#407BFF"/>
<path d="M78.8052 317.234C78.7015 315.628 76.328 277.786 85.8013 269.07L86.3506 269.661C77.1572 278.118 79.5825 316.799 79.6136 317.183L78.8052 317.234Z" fill="#407BFF"/>
<path d="M77.603 317.214C77.603 316.955 77.3024 291.53 70.5654 287.664C69.9905 287.288 69.3338 287.055 68.6504 286.985C67.967 286.914 67.2766 287.009 66.6372 287.26C62.6882 288.898 60.5842 296.443 60.5635 296.516L59.7861 296.308C59.8691 295.977 62.0145 288.296 66.3366 286.514C67.0883 286.212 67.9012 286.096 68.7073 286.173C69.5134 286.251 70.2891 286.52 70.9696 286.959C78.1108 291.105 78.401 316.146 78.4114 317.203L77.603 317.214Z" fill="#407BFF"/>
<path d="M80.3805 317.234C80.3805 316.416 79.2818 297.137 84.7543 289.996C86.2054 288.11 87.8637 287.208 89.5635 287.332C93.4503 287.602 96.4664 292.867 96.5908 293.085L95.886 293.489C95.886 293.437 92.9631 288.379 89.5117 288.141C88.0503 288.037 86.6718 288.825 85.3659 290.494C80.0799 297.396 81.1474 316.996 81.1578 317.193L80.3805 317.234Z" fill="#407BFF"/>
<path d="M79.2925 319.898L78.484 319.847C78.484 319.38 81.9251 273.444 76.2556 265.785L76.9086 265.297C82.7542 273.206 79.4376 318.002 79.2925 319.898Z" fill="#407BFF"/>
<path d="M64.7609 291.084C64.7609 291.084 68.2538 292.37 67.2174 295.417C66.1809 298.464 55.1115 303.481 55.1115 303.481C55.1115 303.481 50.4785 299.231 54.728 292.318C58.9775 285.405 64.6677 288.898 64.7609 291.084Z" fill="#407BFF"/>
<path opacity="0.2" d="M64.7609 291.084C64.7609 291.084 68.2538 292.37 67.2174 295.417C66.1809 298.464 55.1115 303.481 55.1115 303.481C55.1115 303.481 50.4785 299.231 54.728 292.318C58.9775 285.405 64.6677 288.898 64.7609 291.084Z" fill="white"/>
<path d="M79.9763 285.28C79.9763 285.28 76.2451 285.125 76.0378 288.39C75.8305 291.654 84.1118 300.496 84.1118 300.496C84.1118 300.496 90.0197 298.35 88.7552 290.338C87.4907 282.326 80.8988 283.311 79.9763 285.28Z" fill="#407BFF"/>
<path opacity="0.2" d="M79.9763 285.28C79.9763 285.28 76.2451 285.125 76.0378 288.39C75.8305 291.654 84.1118 300.496 84.1118 300.496C84.1118 300.496 90.0197 298.35 88.7552 290.338C87.4907 282.326 80.8988 283.311 79.9763 285.28Z" fill="white"/>
<path d="M83.1273 269.961C83.1273 269.961 80.6502 269.692 80.8471 268.179C81.044 266.665 90.5069 262.768 96.0831 269.07C96.0831 269.07 92.5177 275.206 87.3457 275.289C82.1738 275.372 83.1273 269.961 83.1273 269.961Z" fill="#407BFF"/>
<path opacity="0.2" d="M83.1273 269.961C83.1273 269.961 80.6502 269.692 80.8471 268.179C81.044 266.665 90.5069 262.768 96.0831 269.07C96.0831 269.07 92.5177 275.206 87.3457 275.289C82.1738 275.372 83.1273 269.961 83.1273 269.961Z" fill="white"/>
<path d="M78.4632 266.23C78.4632 266.23 80.7123 267.318 81.3342 265.929C81.9561 264.54 76.0068 256.228 67.9327 258.622C67.9327 258.622 67.715 265.722 72.0786 268.521C76.4421 271.319 78.4632 266.23 78.4632 266.23Z" fill="#407BFF"/>
<path opacity="0.2" d="M78.4632 266.23C78.4632 266.23 80.7123 267.318 81.3342 265.929C81.9561 264.54 76.0068 256.228 67.9327 258.622C67.9327 258.622 67.715 265.722 72.0786 268.521C76.4421 271.319 78.4632 266.23 78.4632 266.23Z" fill="white"/>
<path d="M90.2684 289.861C90.2684 289.861 88.5478 288.473 90.4031 287.789C92.2584 287.104 101.338 287.301 101.431 296.298C101.431 296.298 90.8488 298.06 89.5428 294.629C88.2369 291.199 90.2684 289.861 90.2684 289.861Z" fill="#407BFF"/>
<path opacity="0.2" d="M90.2684 289.861C90.2684 289.861 88.5478 288.473 90.4031 287.789C92.2584 287.104 101.338 287.301 101.431 296.298C101.431 296.298 90.8488 298.06 89.5428 294.629C88.2369 291.199 90.2684 289.861 90.2684 289.861Z" fill="white"/>
<path d="M68.6996 269.682C68.6996 269.682 70.4098 268.293 68.5649 267.609C66.7199 266.925 57.6301 267.132 57.5369 276.118C57.5369 276.118 68.1088 277.88 69.4251 274.449C70.7414 271.019 68.6996 269.682 68.6996 269.682Z" fill="#407BFF"/>
<path opacity="0.2" d="M68.6996 269.682C68.6996 269.682 70.4098 268.293 68.5649 267.609C66.7199 266.925 57.6301 267.132 57.5369 276.118C57.5369 276.118 68.1088 277.88 69.4251 274.449C70.7414 271.019 68.6996 269.682 68.6996 269.682Z" fill="white"/>
<path d="M74.3174 276.926C74.3174 276.926 74.4729 275.247 73.1151 275.89C71.7573 276.532 67.0207 281.663 71.9232 286.513C71.9232 286.513 78.5358 281.611 77.3439 279.072C76.1519 276.532 74.3174 276.926 74.3174 276.926Z" fill="#407BFF"/>
<path opacity="0.2" d="M74.3174 276.926C74.3174 276.926 74.4729 275.247 73.1151 275.89C71.7573 276.532 67.0207 281.663 71.9232 286.513C71.9232 286.513 78.5358 281.611 77.3439 279.072C76.1519 276.532 74.3174 276.926 74.3174 276.926Z" fill="white"/>
<path d="M91.8024 279.29C91.8024 279.29 90.7659 277.942 92.2792 277.776C93.7924 277.611 100.509 279.404 98.9333 286.12C98.9333 286.12 90.7452 285.508 90.3928 282.72C90.0404 279.932 91.8024 279.29 91.8024 279.29Z" fill="#407BFF"/>
<path opacity="0.2" d="M91.8024 279.29C91.8024 279.29 90.7659 277.942 92.2792 277.776C93.7924 277.611 100.509 279.404 98.9333 286.12C98.9333 286.12 90.7452 285.508 90.3928 282.72C90.0404 279.932 91.8024 279.29 91.8024 279.29Z" fill="white"/>
<path d="M64.1081 342.151H92.2274L95.2643 311.358H61.0713L64.1081 342.151Z" fill="#407BFF"/>
<path opacity="0.5" d="M64.1081 342.151H92.2274L95.2643 311.358H61.0713L64.1081 342.151Z" fill="white"/>
<path d="M59.5686 314.747H96.7673V307.948H59.5686V314.747Z" fill="#407BFF"/>
<path opacity="0.2" d="M59.5686 314.747H96.7673V307.948H59.5686V314.747Z" fill="white"/>
<path d="M316.943 54.8325H293.529C291.393 54.8325 289.345 55.681 287.835 57.1913C286.324 58.7016 285.476 60.75 285.476 62.8859V85.6881C285.479 87.8222 286.328 89.8679 287.838 91.376C289.348 92.884 291.395 93.7311 293.529 93.7311H302.857L305.335 102.23L308.268 93.7311H316.943C319.076 93.7311 321.122 92.8837 322.63 91.3753C324.138 89.867 324.986 87.8212 324.986 85.6881V62.8859C324.987 61.8288 324.78 60.7818 324.377 59.8048C323.973 58.8277 323.381 57.9399 322.634 57.1919C321.887 56.444 321 55.8506 320.023 55.4457C319.047 55.0409 318 54.8325 316.943 54.8325V54.8325Z" fill="#407BFF"/>
<path opacity="0.7" d="M316.943 54.8325H293.529C291.393 54.8325 289.345 55.681 287.835 57.1913C286.324 58.7016 285.476 60.75 285.476 62.8859V85.6881C285.479 87.8222 286.328 89.8679 287.838 91.376C289.348 92.884 291.395 93.7311 293.529 93.7311H302.857L305.335 102.23L308.268 93.7311H316.943C319.076 93.7311 321.122 92.8837 322.63 91.3753C324.138 89.867 324.986 87.8212 324.986 85.6881V62.8859C324.987 61.8288 324.78 60.7818 324.377 59.8048C323.973 58.8277 323.381 57.9399 322.634 57.1919C321.887 56.444 321 55.8506 320.023 55.4457C319.047 55.0409 318 54.8325 316.943 54.8325V54.8325Z" fill="white"/>
<path d="M297.095 69.7059C299.168 66.3062 303.117 67.55 305.2 70.1412C307.211 67.4982 311.16 66.1508 313.284 69.4986C316.86 75.1369 309.709 80.4955 306.33 82.5995C305.946 82.8482 305.635 83.0452 305.366 83.2006L304.392 82.6306C300.95 80.6095 293.674 75.4375 297.095 69.7059Z" fill="#407BFF"/>
<path d="M365.657 178.13H361.19L348.752 251.118H353.219L365.657 178.13Z" fill="#263238"/>
<path d="M349.073 178.13H344.606L332.169 251.118H336.636L349.073 178.13Z" fill="#263238"/>
<path d="M332.49 178.13H328.023L315.585 251.118H320.053L332.49 178.13Z" fill="#263238"/>
<path opacity="0.4" d="M365.657 178.13H361.19L348.752 251.118H353.219L365.657 178.13Z" fill="white"/>
<path opacity="0.4" d="M349.073 178.13H344.606L332.169 251.118H336.636L349.073 178.13Z" fill="white"/>
<path opacity="0.4" d="M332.49 178.13H328.023L315.585 251.118H320.053L332.49 178.13Z" fill="white"/>
<path d="M357.935 186.557C350.742 182.204 340.761 182.204 331.215 186.557C326.396 188.63 320.685 189.273 318.166 186.225C313.865 181.748 321.41 168.471 335.9 164.263C346.265 161.288 356.536 161.288 365.294 164.263C377.514 168.471 377.887 181.748 371.171 186.225C366.994 189.273 361.615 188.671 357.935 186.557Z" fill="#407BFF"/>
<path opacity="0.4" d="M357.935 186.557C350.742 182.204 340.761 182.204 331.215 186.557C326.396 188.63 320.685 189.273 318.166 186.225C313.865 181.748 321.41 168.471 335.9 164.263C346.265 161.288 356.536 161.288 365.294 164.263C377.514 168.471 377.887 181.748 371.171 186.225C366.994 189.273 361.615 188.671 357.935 186.557Z" fill="white"/>
<path d="M293.104 245.086H352.089C353.464 245.086 354.782 245.632 355.754 246.604C356.726 247.576 357.272 248.894 357.272 250.268V257.202H287.922V250.268C287.922 248.894 288.468 247.576 289.44 246.604C290.412 245.632 291.73 245.086 293.104 245.086Z" fill="#407BFF"/>
<path opacity="0.4" d="M293.104 245.086H352.089C353.464 245.086 354.782 245.632 355.754 246.604C356.726 247.576 357.272 248.894 357.272 250.268V257.202H287.922V250.268C287.922 248.894 288.468 247.576 289.44 246.604C290.412 245.632 291.73 245.086 293.104 245.086Z" fill="white"/>
<path d="M327.474 253.015L327.101 269.153L325.401 342.151H319.794L318.104 269.153L317.731 253.015H327.474Z" fill="#263238"/>
<path opacity="0.4" d="M327.474 253.015L327.101 269.153L325.401 342.151H319.794L318.104 269.153L317.731 253.015H327.474Z" fill="white"/>
<path opacity="0.2" d="M327.474 253.015L327.101 269.599H318.104L317.731 253.015H327.474Z" fill="black"/>
<path d="M357.925 341.892L352.742 254.155H344.274L351.53 341.892H357.925Z" fill="#263238"/>
<path opacity="0.4" d="M351.519 341.892H357.914L353.219 262.032L352.753 254.052H344.285L344.938 262.032L351.519 341.892Z" fill="white"/>
<path opacity="0.2" d="M344.285 254.052L344.938 262.343H353.219L352.753 254.052H344.285Z" fill="black"/>
<path d="M293.674 341.892L300.93 254.155H292.462L287.279 341.892H293.674Z" fill="#263238"/>
<path opacity="0.4" d="M293.685 341.892L300.266 262.032L300.919 254.052H292.451L291.985 262.032L287.29 341.892H293.685Z" fill="white"/>
<path opacity="0.2" d="M300.919 254.052L300.266 262.343H291.985L292.451 254.052H300.919Z" fill="black"/>
<path d="M358.515 251.118H286.678C285.527 251.118 284.595 252.051 284.595 253.201V255.088C284.595 256.238 285.527 257.171 286.678 257.171H358.515C359.666 257.171 360.599 256.238 360.599 255.088V253.201C360.599 252.051 359.666 251.118 358.515 251.118Z" fill="#263238"/>
<path opacity="0.6" d="M358.515 251.118H286.678C285.527 251.118 284.595 252.051 284.595 253.201V255.088C284.595 256.238 285.527 257.171 286.678 257.171H358.515C359.666 257.171 360.599 256.238 360.599 255.088V253.201C360.599 252.051 359.666 251.118 358.515 251.118Z" fill="white"/>
<path d="M316.031 115.59C322.861 125.395 324.074 138.797 322.436 141.813C320.799 144.829 292.171 146.466 292.171 146.466C292.171 146.466 294.607 143.129 293.001 126.204C291.394 109.278 316.031 115.59 316.031 115.59Z" fill="#263238"/>
<path d="M303.096 164.47C300.152 170.284 297.126 176.089 292.234 180.659C290.915 181.674 289.407 182.414 287.798 182.836C280.883 184.843 273.804 186.231 266.643 186.982C266.033 187.03 265.425 186.861 264.926 186.505C264.428 186.149 264.071 185.629 263.919 185.035C263.767 184.442 263.828 183.814 264.094 183.262C264.359 182.71 264.81 182.269 265.368 182.017C271.587 179.364 278.49 177.053 284.595 174.41C285.149 174.177 285.682 173.9 286.191 173.58L286.056 173.663C285.953 173.746 285.994 173.663 286.004 173.663C288.254 170.668 291.975 163.174 293.882 159.775C297.219 153.97 305.822 158.365 303.096 164.48V164.47Z" fill="#E9B376"/>
<path d="M287.165 167.476C288.216 169.6 289.642 171.517 291.373 173.135C292.968 174.653 294.906 175.762 297.022 176.368C297.584 176.518 298.155 176.629 298.732 176.7C306.547 177.623 299.769 153.825 299.769 153.825C293.933 155.795 292.192 159.785 287.165 167.476Z" fill="#407BFF"/>
<path opacity="0.2" d="M291.373 173.135C292.968 174.653 294.906 175.762 297.022 176.368L298.898 160.459C298.898 160.345 299.333 155.888 299.281 155.764C299.23 155.639 293.736 158.562 291.373 173.135Z" fill="black"/>
<path d="M295.83 135.273C291.798 131.946 285.103 121.436 294.006 114.098C305.106 104.935 313.854 110.936 317.959 118.586C322.063 126.235 319.793 134.019 311.139 136.558C302.484 139.097 298.618 137.574 295.83 135.273Z" fill="#263238"/>
<path d="M229.786 309.668L235.518 310.757C235.518 310.757 266.819 235.737 271.794 235.52C276.769 235.302 327.535 258.643 340.253 245.698C352.97 232.752 334.573 201.555 334.573 201.555C334.573 201.555 303.977 197.191 301.665 204.104C301.099 206.147 300.667 208.224 300.37 210.323C300.028 212.396 299.789 214.21 299.789 214.21C298.836 213.971 268.125 206.043 256.019 214.21C243.706 222.543 229.786 309.668 229.786 309.668Z" fill="#EBB376"/>
<path d="M318.27 248.817C318.27 248.817 316.197 248.817 284.066 247.366C284.066 247.366 290.016 302.486 292.638 332.522L285.942 332.895C285.942 332.895 258.994 254.839 259.201 244.63C259.409 234.421 271.245 231.415 271.245 231.415C271.245 231.415 294.047 244.63 318.27 248.817Z" fill="#EBB376"/>
<path d="M318.238 248.817C317.907 248.817 314.652 248.817 289.611 247.625L290.098 240.422C299.16 244.195 308.591 247.009 318.238 248.817Z" fill="#263238"/>
<path opacity="0.2" d="M268.364 278.253C263.109 257.14 260.476 246.174 263.109 241.065C264.88 237.89 267.691 235.423 271.069 234.079C277.91 244.713 299.219 247.978 299.779 248.071C315.596 248.766 317.959 248.797 318.239 248.797C308.592 246.983 299.162 244.17 290.099 240.401C283.636 237.796 277.339 234.795 271.245 231.415C271.245 231.415 259.533 234.411 259.284 244.63C259.181 248.776 263.638 264.323 268.934 281.228C268.797 280.227 268.607 279.234 268.364 278.253V278.253Z" fill="black"/>
<path d="M223.568 306.237C223.458 306.087 223.399 305.905 223.399 305.719C223.399 305.533 223.458 305.351 223.568 305.201C223.631 305.08 223.72 304.975 223.827 304.891C223.934 304.807 224.058 304.746 224.19 304.714C224.892 304.604 225.612 304.697 226.263 304.983C225.631 304.424 225.112 303.802 225.226 303.325C225.278 303.014 225.537 302.817 225.993 302.724C226.191 302.676 226.396 302.673 226.595 302.714C226.794 302.755 226.981 302.84 227.144 302.962C228.232 303.75 228.481 305.999 228.491 306.072C228.501 306.109 228.501 306.148 228.491 306.186C228.491 306.186 228.491 306.186 228.491 306.237C228.476 306.263 228.455 306.284 228.429 306.3V306.3C228.402 306.31 228.373 306.31 228.346 306.3C227.402 306.503 226.441 306.618 225.475 306.642C225.147 306.715 224.807 306.717 224.477 306.647C224.148 306.578 223.838 306.438 223.568 306.237ZM224.335 305.201C224.264 305.214 224.198 305.243 224.14 305.286C224.082 305.33 224.036 305.385 224.003 305.45C223.827 305.771 223.92 305.895 223.951 305.937C224.283 306.372 226.024 306.279 227.465 306.04C226.553 305.615 225.081 305.014 224.356 305.201H224.335ZM226.035 303.211C225.9 303.211 225.672 303.304 225.651 303.429C225.579 303.833 226.688 304.838 227.869 305.647C227.778 304.798 227.415 304.001 226.833 303.377C226.675 303.257 226.482 303.192 226.284 303.19L226.035 303.211Z" fill="#263238"/>
<path d="M279.298 332.688C279.166 332.568 279.073 332.411 279.033 332.237C278.992 332.063 279.005 331.88 279.07 331.714C279.142 331.452 279.313 331.229 279.547 331.092C280.201 330.814 280.92 330.728 281.62 330.843C280.874 330.46 280.211 329.983 280.179 329.506C280.179 329.188 280.376 328.929 280.77 328.729C280.951 328.634 281.151 328.58 281.355 328.571C281.559 328.562 281.763 328.598 281.952 328.677C283.196 329.175 284.025 331.299 284.025 331.393C284.035 331.43 284.035 331.469 284.025 331.507C284.03 331.524 284.03 331.542 284.025 331.558C284.014 331.589 283.996 331.618 283.973 331.641H283.911C282.725 332.266 281.436 332.673 280.107 332.844C279.828 332.883 279.543 332.828 279.298 332.688V332.688ZM279.796 331.507C279.732 331.538 279.675 331.583 279.631 331.638C279.586 331.694 279.554 331.759 279.537 331.828C279.454 332.191 279.537 332.274 279.609 332.305C280.034 332.657 281.682 332.139 283.05 331.548C282.024 331.33 280.449 331.113 279.796 331.507ZM280.957 329.154C280.832 329.216 280.635 329.34 280.635 329.465C280.635 329.879 281.983 330.574 283.341 331.071C283.035 330.268 282.479 329.585 281.755 329.123C281.638 329.08 281.516 329.055 281.392 329.05C281.241 329.055 281.093 329.09 280.957 329.154V329.154Z" fill="#263238"/>
<path d="M238.389 307.803C238.555 307.077 229.538 305.512 229.538 305.512C229.538 305.512 222.739 309.751 217.1 309.72C211.462 309.689 213.69 313.586 219.619 315.017L234.285 318.551C238.535 319.567 236.762 315.338 238.389 307.803Z" fill="#263238"/>
<path d="M294.048 330.553C294.048 329.807 284.896 330.553 284.896 330.553C284.896 330.553 279.351 336.336 273.909 337.684C268.468 339.031 271.556 342.275 277.651 342.203L292.742 342.016C297.064 341.913 294.317 338.254 294.048 330.553Z" fill="#263238"/>
<path d="M334.573 201.555C334.573 201.555 303.977 197.191 301.666 204.104C301.1 206.147 300.667 208.224 300.37 210.323C300.028 212.396 299.79 214.21 299.79 214.21L297.23 213.598L293.322 244.102C310.227 249.533 332.635 253.43 340.264 245.687C352.96 232.773 334.573 201.555 334.573 201.555Z" fill="#263238"/>
<path opacity="0.3" d="M299.79 214.23L317.679 217.962C317.679 217.962 307.791 212.5 300.37 210.344C300.028 212.458 299.79 214.23 299.79 214.23Z" fill="black"/>
<path d="M333.143 196.839L334.563 201.606L301.665 204.135L300.795 198.507L333.143 196.839Z" fill="#263238"/>
<path opacity="0.2" d="M333.143 196.839L334.563 201.606L301.665 204.135L300.795 198.507L333.143 196.839Z" fill="black"/>
<path d="M323.452 204.81L325.081 204.642L324.23 196.363L322.601 196.531L323.452 204.81Z" fill="#263238"/>
<path d="M308.831 203.99L316.041 203.526L315.689 198.065L308.48 198.529L308.831 203.99Z" fill="white"/>
<path d="M303.272 205.682L304.901 205.514L304.05 197.235L302.421 197.403L303.272 205.682Z" fill="#263238"/>
<path d="M295.446 211.899L298.39 212.78L295.446 245.293H291.498L295.446 211.899Z" fill="#263238"/>
<path opacity="0.4" d="M295.446 211.899L298.39 212.78L295.446 245.293H291.498L295.446 211.899Z" fill="white"/>
<path d="M288.741 239.852V248.776L291.498 249.139L291.985 241.168L288.741 239.852Z" fill="#263238"/>
<path opacity="0.3" d="M288.741 239.852V248.776L291.498 249.139L291.985 241.168L288.741 239.852Z" fill="white"/>
<path d="M293.353 168.056C293.27 174.482 298.442 188.568 300.992 199.45L333.122 196.839C332.449 193.397 332.086 188.288 332.573 179.965C332.832 175.093 333.392 169.113 334.325 161.723C334.459 160.624 334.604 159.505 334.76 158.344C334.964 157.169 334.902 155.962 334.578 154.814C334.254 153.665 333.676 152.604 332.888 151.709C332.099 150.813 331.119 150.107 330.02 149.641C328.922 149.175 327.733 148.961 326.541 149.016C325.183 149.068 323.742 149.161 322.281 149.306C317.114 149.673 311.981 150.411 306.92 151.514C305.272 151.897 303.573 152.364 301.945 152.83C296.12 154.551 293.426 162.034 293.353 168.056Z" fill="#407BFF"/>
<path d="M313.46 133.148C313.668 138.33 314.818 147.544 318.902 149.731C318.902 149.731 314.186 150.467 306.464 159.391C302.443 156.282 304.111 154.364 304.111 154.364C309.117 151.4 308.04 147.41 306.236 143.917L313.46 133.148Z" fill="#EBB376"/>
<path opacity="0.2" d="M310.506 137.532L306.226 143.917C306.664 144.733 307.028 145.586 307.314 146.466C309.273 145.534 311.522 142.372 311.232 140.134C311.15 139.23 310.904 138.348 310.506 137.532V137.532Z" fill="black"/>
<path d="M313.326 121.913C315.254 129.883 316.238 133.22 313.512 138.496C309.429 146.363 299.219 146.985 294.949 139.75C291.104 133.231 288.606 121.291 295.302 115.818C296.771 114.606 298.526 113.789 300.4 113.444C302.274 113.1 304.205 113.239 306.01 113.85C307.814 114.46 309.434 115.521 310.714 116.932C311.994 118.343 312.893 120.057 313.326 121.913Z" fill="#FFB573"/>
<path d="M304.847 115.974C303.262 119.259 310.299 126.867 314.611 127.447C321.773 123.146 309.594 106.2 304.847 115.974Z" fill="#263238"/>
<path d="M294.524 114.398C291.881 116.367 290.378 122.524 290.482 124.67C294.929 124.006 305.055 116.378 305.055 116.378C305.055 116.378 313.347 116.036 308.237 113.414C303.127 110.791 294.524 114.398 294.524 114.398Z" fill="#263238"/>
<path d="M294.752 131.262C294.949 131.904 294.752 132.516 294.348 132.65C293.944 132.785 293.436 132.36 293.25 131.728C293.063 131.096 293.25 130.474 293.643 130.339C294.037 130.204 294.555 130.629 294.752 131.262Z" fill="#263238"/>
<path d="M293.84 130.318H292.171C292.171 130.318 293.322 131.303 293.84 130.318Z" fill="#263238"/>
<path d="M296.856 130.505C296.732 132.134 296.383 133.739 295.82 135.273C296.216 135.406 296.637 135.451 297.052 135.405C297.467 135.358 297.868 135.221 298.224 135.003L296.856 130.505Z" fill="#ED893E"/>
<path d="M317.648 128.442C317.605 129.231 317.406 130.004 317.063 130.715C316.719 131.427 316.238 132.064 315.648 132.588C314.062 133.967 312.372 132.775 312.051 130.806C311.771 129.033 312.248 126.183 314.207 125.561C314.633 125.433 315.085 125.412 315.521 125.501C315.957 125.591 316.364 125.787 316.705 126.073C317.046 126.359 317.311 126.725 317.476 127.139C317.64 127.552 317.7 128 317.648 128.442V128.442Z" fill="#FFB573"/>
<path d="M303.925 125.478C303.85 125.514 303.765 125.526 303.683 125.511C303.602 125.496 303.526 125.455 303.469 125.395C302.972 124.993 302.396 124.7 301.778 124.534C301.16 124.367 300.515 124.333 299.883 124.431C299.783 124.439 299.685 124.408 299.607 124.346C299.53 124.283 299.479 124.194 299.464 124.096C299.45 123.997 299.473 123.897 299.53 123.815C299.586 123.733 299.672 123.675 299.769 123.654C299.872 123.654 302.505 123.26 304.039 124.846C304.076 124.882 304.105 124.926 304.125 124.974C304.145 125.022 304.156 125.074 304.156 125.126C304.156 125.178 304.145 125.229 304.125 125.277C304.105 125.325 304.076 125.369 304.039 125.405C304.007 125.437 303.968 125.462 303.925 125.478V125.478Z" fill="#263238"/>
<path d="M291.094 127.385C291.016 127.421 290.929 127.431 290.846 127.413C290.762 127.396 290.687 127.351 290.631 127.287C290.575 127.223 290.541 127.142 290.535 127.057C290.529 126.972 290.55 126.887 290.596 126.815C290.93 126.284 291.387 125.84 291.928 125.523C292.469 125.205 293.079 125.023 293.706 124.991C293.808 124.994 293.906 125.036 293.977 125.11C294.049 125.183 294.089 125.282 294.089 125.385C294.089 125.487 294.049 125.586 293.977 125.66C293.906 125.733 293.808 125.776 293.706 125.779V125.779C293.215 125.813 292.739 125.963 292.317 126.217C291.895 126.471 291.54 126.822 291.28 127.24C291.234 127.305 291.169 127.356 291.094 127.385V127.385Z" fill="#263238"/>
<path d="M301.956 129.054C302.153 129.686 301.956 130.308 301.552 130.432C301.147 130.557 300.639 130.152 300.443 129.51C300.246 128.867 300.443 128.256 300.847 128.131C301.251 128.007 301.759 128.411 301.956 129.054Z" fill="#263238"/>
<path d="M301.043 128.111H299.375C299.375 128.111 300.525 129.085 301.043 128.111Z" fill="#263238"/>
<path d="M300.121 138.05C301.242 138.696 302.315 139.42 303.334 140.217L303.842 139.75C306.091 137.625 306.433 135.894 306.133 134.568C305.965 133.949 305.656 133.378 305.231 132.899C304.997 132.62 304.725 132.376 304.422 132.174C303.904 134.018 301.956 136.164 300.878 137.263C300.422 137.781 300.121 138.05 300.121 138.05Z" fill="#263238"/>
<path d="M300.878 137.294L301.842 137.905C303.915 135.905 305.179 134.205 305.231 132.93C304.997 132.651 304.725 132.407 304.422 132.205C303.904 134.07 301.956 136.257 300.878 137.294Z" fill="white"/>
<path d="M303.842 139.75C306.091 137.625 306.433 135.894 306.133 134.568C305.271 135.381 304.568 136.348 304.06 137.418C303.743 138.153 303.666 138.969 303.842 139.75Z" fill="#DE5753"/>
<path d="M267.338 182.09L258.611 180.97L258.87 188.661C258.87 188.661 264.86 190.299 267.908 186.184L267.338 182.09Z" fill="#FFB573"/>
<path d="M252.755 183.188L254.32 188.879L258.87 188.661L258.611 180.97L252.755 183.188Z" fill="#FFB573"/>
<path opacity="0.2" d="M317.886 169.341C321.089 174.897 327.131 178.317 332.594 179.965C332.853 175.094 333.412 169.113 334.345 161.723C330.386 158.002 325.432 155.784 320.073 157.712C320.073 157.712 314.642 163.713 317.886 169.341Z" fill="black"/>
<path d="M334.148 158.831C330.458 166.46 320.83 186.712 311.761 187.656C300.598 187.78 297.395 171.072 296.763 162.615C296.714 161.979 296.901 161.347 297.29 160.842C297.678 160.336 298.24 159.993 298.867 159.877C299.494 159.761 300.141 159.881 300.685 160.214C301.228 160.548 301.629 161.07 301.81 161.682C303.267 165.988 305.116 170.151 307.335 174.119C308.168 175.684 309.323 177.054 310.724 178.141C311.035 178.307 311.19 178.4 311.408 178.379C311.626 178.358 310.952 178.265 310.724 178.317C310.206 178.369 310.216 178.452 310.372 178.317C312.08 176.679 313.558 174.817 314.766 172.782C318.434 166.833 321.786 160.696 324.81 154.395C327.919 148.436 336.781 152.623 334.138 158.842L334.148 158.831Z" fill="#E9B376"/>
<path d="M326.562 149.058C330.707 148.021 340.647 153.929 333.931 172.212C333.931 172.212 319.296 168.481 317.99 164.211C316.684 159.94 326.562 149.058 326.562 149.058Z" fill="#407BFF"/>
<path d="M297.769 147.285C297.783 147.473 297.836 147.657 297.924 147.824C298.015 147.992 298.139 148.14 298.289 148.26C298.439 148.379 298.61 148.467 298.795 148.519C298.929 148.559 299.069 148.584 299.209 148.591L298.764 158.956C298.764 159.079 298.813 159.198 298.9 159.286C298.988 159.373 299.106 159.422 299.23 159.422C299.354 159.422 299.472 159.373 299.56 159.286C299.647 159.198 299.696 159.079 299.696 158.956L300.132 148.591C300.273 148.611 300.416 148.611 300.557 148.591C300.934 148.508 301.265 148.281 301.479 147.959C301.58 147.8 301.65 147.625 301.686 147.441C301.692 147.351 301.692 147.261 301.686 147.171V146.974V146.197C301.686 145.16 301.583 144.124 301.479 143.087C301.282 144.124 301.137 145.16 301.002 146.197L300.919 146.974V147.161C300.925 147.199 300.925 147.237 300.919 147.275C300.89 147.344 300.848 147.408 300.795 147.461C300.65 147.627 300.494 147.648 300.215 147.638C300.21 147.617 300.21 147.596 300.215 147.575L299.997 143.046L299.385 147.544C299.095 147.544 298.95 147.544 298.815 147.316C298.765 147.264 298.729 147.2 298.712 147.13C298.712 147.13 298.712 147.057 298.712 147.016V146.819V146.041C298.712 145.005 298.608 143.968 298.504 142.932C298.308 143.968 298.162 145.005 298.028 146.041L297.945 146.819V147.016C297.88 147.102 297.821 147.192 297.769 147.285V147.285Z" fill="#263238"/>
<path opacity="0.4" d="M297.769 147.285C297.783 147.473 297.836 147.657 297.924 147.824C298.015 147.992 298.139 148.14 298.289 148.26C298.439 148.379 298.61 148.467 298.795 148.519C298.929 148.559 299.069 148.584 299.209 148.591L298.764 158.956C298.764 159.079 298.813 159.198 298.9 159.286C298.988 159.373 299.106 159.422 299.23 159.422C299.354 159.422 299.472 159.373 299.56 159.286C299.647 159.198 299.696 159.079 299.696 158.956L300.132 148.591C300.273 148.611 300.416 148.611 300.557 148.591C300.934 148.508 301.265 148.281 301.479 147.959C301.58 147.8 301.65 147.625 301.686 147.441C301.692 147.351 301.692 147.261 301.686 147.171V146.974V146.197C301.686 145.16 301.583 144.124 301.479 143.087C301.282 144.124 301.137 145.16 301.002 146.197L300.919 146.974V147.161C300.925 147.199 300.925 147.237 300.919 147.275C300.89 147.344 300.848 147.408 300.795 147.461C300.65 147.627 300.494 147.648 300.215 147.638C300.21 147.617 300.21 147.596 300.215 147.575L299.997 143.046L299.385 147.544C299.095 147.544 298.95 147.544 298.815 147.316C298.765 147.264 298.729 147.2 298.712 147.13C298.712 147.13 298.712 147.057 298.712 147.016V146.819V146.041C298.712 145.005 298.608 143.968 298.504 142.932C298.308 143.968 298.162 145.005 298.028 146.041L297.945 146.819V147.016C297.88 147.102 297.821 147.192 297.769 147.285V147.285Z" fill="white"/>
<path d="M296.276 143.564C296.276 143.564 300.536 145.399 302.889 144.186C305.241 142.974 303.396 139.885 301.23 139.087C301.166 139.061 301.1 139.041 301.033 139.025C300.88 139.218 300.687 139.375 300.467 139.486C300.246 139.597 300.005 139.659 299.758 139.667C299.054 139.584 298.276 140.6 298.328 140.704C298.38 140.807 297.406 141.139 296.846 141.326C296.286 141.512 296.276 143.564 296.276 143.564Z" fill="#407BFF"/>
<path opacity="0.4" d="M296.276 143.564C296.276 143.564 300.536 145.399 302.889 144.186C303.085 143.77 303.218 143.326 303.282 142.87C303.365 142.269 302.992 142.466 302.93 142.093C302.812 141.676 302.587 141.297 302.277 140.994C301.998 140.767 301.703 140.559 301.396 140.372C301.2 140.127 301.091 139.825 301.085 139.512C301.124 139.367 301.173 139.225 301.23 139.087C301.166 139.061 301.1 139.041 301.033 139.025C300.88 139.218 300.687 139.375 300.467 139.486C300.246 139.597 300.005 139.659 299.758 139.667C299.054 139.584 298.276 140.6 298.328 140.704C298.38 140.807 297.406 141.139 296.846 141.326C296.286 141.512 296.276 143.564 296.276 143.564Z" fill="white"/>
<path opacity="0.2" d="M296.276 143.564C296.71 143.544 297.139 143.463 297.551 143.326C297.727 143.191 297.934 143.326 298.224 143.15C298.592 143.065 298.967 143.013 299.344 142.994C299.593 142.932 299.344 142.248 299.479 141.958C299.613 141.668 300.069 142.134 300.225 142.051C300.585 141.814 300.867 141.475 301.033 141.077C301.199 140.61 301.261 140.382 300.919 140.04C300.577 139.698 301.344 139.18 301.033 139.066C300.88 139.259 300.687 139.417 300.467 139.528C300.246 139.639 300.005 139.7 299.758 139.709C299.054 139.626 298.276 140.641 298.328 140.745C298.38 140.849 297.406 141.18 296.846 141.367C296.286 141.554 296.276 143.564 296.276 143.564Z" fill="black"/>
<path d="M293.612 154.655L292.711 157.038C292.543 157.481 292.482 157.957 292.535 158.427C292.587 158.898 292.75 159.349 293.011 159.744L295.499 163.475C295.99 164.208 296.648 164.813 297.42 165.24C298.191 165.667 299.053 165.904 299.935 165.931H301.044C302.816 162.086 301.894 156.603 301.894 156.603L301.811 155.017C301.8 154.691 301.725 154.37 301.59 154.073C301.455 153.776 301.262 153.508 301.023 153.286C300.784 153.063 300.504 152.89 300.198 152.776C299.892 152.663 299.567 152.611 299.24 152.623L296.131 152.758C295.571 152.791 295.034 152.989 294.585 153.326C294.137 153.664 293.799 154.126 293.612 154.655V154.655Z" fill="#EBB376"/>
<path d="M250.029 176.296C246.37 171.497 246.37 168.388 246.37 168.388L252.983 176.679L261.917 187.894C261.976 187.951 262.023 188.021 262.053 188.098C262.083 188.175 262.097 188.257 262.093 188.339C262.089 188.422 262.067 188.503 262.029 188.576C261.992 188.65 261.939 188.714 261.874 188.766C261.809 188.817 261.734 188.854 261.654 188.874C261.574 188.894 261.49 188.897 261.409 188.882C261.328 188.867 261.251 188.835 261.183 188.788C261.115 188.741 261.058 188.68 261.015 188.609L255.076 181.146C253.106 179.859 251.394 178.214 250.029 176.296V176.296Z" fill="#263238"/>
<path opacity="0.4" d="M250.029 176.296C246.37 171.497 246.37 168.388 246.37 168.388L252.983 176.679L261.917 187.894C261.976 187.951 262.023 188.021 262.053 188.098C262.083 188.175 262.097 188.257 262.093 188.339C262.089 188.422 262.067 188.503 262.029 188.576C261.992 188.65 261.939 188.714 261.874 188.766C261.809 188.817 261.734 188.854 261.654 188.874C261.574 188.894 261.49 188.897 261.409 188.882C261.328 188.867 261.251 188.835 261.183 188.788C261.115 188.741 261.058 188.68 261.015 188.609L255.076 181.146C253.106 179.859 251.394 178.214 250.029 176.296V176.296Z" fill="white"/>
<path d="M243.198 168.958H250.143C250.143 168.958 249.873 175.798 249.407 177.249C248.94 178.701 248.37 181.074 248.37 186.93H241.675C241.675 181.074 241.094 178.711 240.638 177.249C240.182 175.788 239.913 168.958 239.913 168.958H243.198Z" fill="#407BFF"/>
<path opacity="0.4" d="M243.198 168.958H250.143C250.143 168.958 249.873 175.798 249.407 177.249C248.94 178.701 248.37 181.074 248.37 186.93H241.675C241.675 181.074 241.094 178.711 240.638 177.249C240.182 175.788 239.913 168.958 239.913 168.958H243.198Z" fill="white"/>
<path opacity="0.4" d="M249.189 175.114C249.147 175.772 249.047 176.424 248.889 177.063C248.37 178.68 247.852 181.043 247.852 186.391H242.224C242.224 181.074 241.654 178.711 241.136 177.063C240.988 176.422 240.888 175.77 240.835 175.114H249.189Z" fill="white"/>
<path d="M231.947 185.852L234.082 185.428L232.681 178.383L230.547 178.807L231.947 185.852Z" fill="#407BFF"/>
<path d="M229.491 185.816L231.54 185.082L229.118 178.321L227.069 179.055L229.491 185.816Z" fill="#407BFF"/>
<path d="M226.981 185.858L228.817 184.689L224.959 178.631L223.123 179.8L226.981 185.858Z" fill="#407BFF"/>
<path d="M224.542 185.865L225.872 184.142L220.188 179.752L218.857 181.475L224.542 185.865Z" fill="#407BFF"/>
<path d="M221.371 186.816H231.59C233.128 186.814 234.623 186.305 235.842 185.368C237.062 184.432 237.939 183.119 238.338 181.634V181.582H214.592V181.634C214.996 183.122 215.878 184.437 217.103 185.374C218.329 186.31 219.828 186.817 221.371 186.816V186.816Z" fill="#263238"/>
<path d="M243.738 342.151L242.774 194.247H251.19L250.226 342.151H243.738Z" fill="#263238"/>
<path opacity="0.4" d="M250.236 342.151H243.738L242.94 220.128L242.774 194.507H251.2L251.034 220.128L250.236 342.151Z" fill="white"/>
<path opacity="0.2" d="M251.2 194.507L251.034 220.418H242.94L242.774 194.507H251.2Z" fill="black"/>
<path d="M310.434 342.151L299.81 194.247H308.237L316.922 342.151H310.434Z" fill="#263238"/>
<path opacity="0.5" d="M310.434 342.151L300.37 202.135L299.81 194.507H308.237L308.693 202.135L316.933 342.151H310.434Z" fill="white"/>
<path opacity="0.2" d="M308.693 201.762H300.37L299.81 194.507H308.237L308.693 201.762Z" fill="black"/>
<path d="M177.041 342.151L185.726 194.247H194.153L183.529 342.151H177.041Z" fill="#263238"/>
<path opacity="0.5" d="M183.529 342.151H177.041L185.27 202.135L185.726 194.507H194.153L193.593 202.135L183.529 342.151Z" fill="white"/>
<path opacity="0.2" d="M185.726 194.507H194.153L193.593 201.762H185.27L185.726 194.507Z" fill="black"/>
<path d="M179 190.267H314.912V195.978C314.912 196.272 314.854 196.563 314.741 196.835C314.629 197.107 314.464 197.353 314.256 197.561C314.048 197.769 313.801 197.934 313.53 198.047C313.258 198.159 312.967 198.217 312.673 198.217H181.291C180.997 198.217 180.705 198.159 180.434 198.047C180.162 197.934 179.915 197.769 179.708 197.561C179.5 197.353 179.335 197.107 179.222 196.835C179.11 196.563 179.052 196.272 179.052 195.978V190.267H179Z" fill="#263238"/>
<path opacity="0.6" d="M179 190.267H314.912V195.978C314.912 196.272 314.854 196.563 314.741 196.835C314.629 197.107 314.464 197.353 314.256 197.561C314.048 197.769 313.801 197.934 313.53 198.047C313.258 198.159 312.967 198.217 312.673 198.217H181.291C180.997 198.217 180.705 198.159 180.434 198.047C180.162 197.934 179.915 197.769 179.708 197.561C179.5 197.353 179.335 197.107 179.222 196.835C179.11 196.563 179.052 196.272 179.052 195.978V190.267H179Z" fill="white"/>
<path opacity="0.2" d="M314.911 190.267H179.052V194.247H314.911V190.267Z" fill="black"/>
<path d="M318.85 191.304H175.113C174.819 191.304 174.528 191.246 174.256 191.134C173.985 191.021 173.738 190.856 173.53 190.648C173.322 190.44 173.157 190.194 173.045 189.922C172.932 189.65 172.874 189.359 172.874 189.065V189.065C172.874 188.771 172.932 188.48 173.045 188.208C173.157 187.937 173.322 187.69 173.53 187.482C173.738 187.274 173.985 187.109 174.256 186.997C174.528 186.884 174.819 186.826 175.113 186.826H318.85C319.144 186.826 319.435 186.884 319.707 186.997C319.978 187.109 320.225 187.274 320.433 187.482C320.641 187.69 320.806 187.937 320.918 188.208C321.031 188.48 321.089 188.771 321.089 189.065V189.065C321.089 189.359 321.031 189.65 320.918 189.922C320.806 190.194 320.641 190.44 320.433 190.648C320.225 190.856 319.978 191.021 319.707 191.134C319.435 191.246 319.144 191.304 318.85 191.304V191.304Z" fill="#263238"/>
<path opacity="0.6" d="M318.85 191.304H175.113C174.819 191.304 174.528 191.246 174.256 191.134C173.985 191.021 173.738 190.856 173.53 190.648C173.322 190.44 173.157 190.194 173.045 189.922C172.932 189.65 172.874 189.359 172.874 189.065V189.065C172.874 188.771 172.932 188.48 173.045 188.208C173.157 187.937 173.322 187.69 173.53 187.482C173.738 187.274 173.985 187.109 174.256 186.997C174.528 186.884 174.819 186.826 175.113 186.826H318.85C319.144 186.826 319.435 186.884 319.707 186.997C319.978 187.109 320.225 187.274 320.433 187.482C320.641 187.69 320.806 187.937 320.918 188.208C321.031 188.48 321.089 188.771 321.089 189.065V189.065C321.089 189.359 321.031 189.65 320.918 189.922C320.806 190.194 320.641 190.44 320.433 190.648C320.225 190.856 319.978 191.021 319.707 191.134C319.435 191.246 319.144 191.304 318.85 191.304V191.304Z" fill="white"/>
<path d="M261.482 185.811C263.555 187.345 269.172 186.982 275.681 181.841C276.08 181.59 276.381 181.212 276.535 180.767C276.69 180.323 276.688 179.839 276.531 179.395C276.158 178.431 274.977 177.571 272.873 177.322C268.955 176.887 261.699 180.431 260.736 183.707C260.613 184.091 260.62 184.504 260.754 184.884C260.889 185.264 261.145 185.59 261.482 185.811V185.811Z" fill="#407BFF"/>
<path opacity="0.2" d="M261.482 185.811C263.555 187.345 269.172 186.982 275.681 181.841C276.08 181.59 276.381 181.212 276.535 180.767C276.69 180.323 276.688 179.839 276.531 179.395C276.158 178.431 274.977 177.571 272.873 177.322C268.955 176.887 261.699 180.431 260.736 183.707C260.613 184.091 260.62 184.504 260.754 184.884C260.889 185.264 261.145 185.59 261.482 185.811V185.811Z" fill="white"/>
<path opacity="0.2" d="M272.572 181.25C271.111 180.691 266.84 182.401 266.011 184.484C265.182 186.567 273.526 181.613 272.572 181.25Z" fill="black"/>
<path opacity="0.4" d="M261.482 185.811C261.71 185.286 261.836 184.724 261.855 184.152C261.855 183.323 262.518 182.878 263.461 183.116C264.404 183.354 264.011 182.079 264.239 181.686C264.779 181.105 265.52 180.753 266.312 180.701C267.203 180.701 267.141 180.38 267.421 179.602C267.7 178.825 268.758 178.566 269.317 178.566C269.877 178.566 270.851 178.929 271.39 178.327C271.929 177.726 272.427 177.706 273.795 178.327C274.647 178.853 275.573 179.247 276.541 179.499C276.168 178.535 274.987 177.674 272.883 177.426C268.965 176.99 261.71 180.535 260.746 183.81C260.646 184.179 260.664 184.569 260.796 184.928C260.927 185.286 261.167 185.594 261.482 185.811V185.811Z" fill="black"/>
<path d="M273.847 186.111C276.272 186.184 279.962 186.049 282.636 185.904C284.47 185.811 285.828 185.717 285.942 185.686C286.035 185.52 285.403 184.816 285.942 183.945C286.481 183.074 285.942 182.504 285.662 182.37C285.383 182.235 284.844 182.463 284.781 182.038C284.698 181.715 284.558 181.41 284.367 181.136C283.757 181.061 283.16 180.9 282.594 180.659H281.931C278.889 180.716 275.859 181.063 272.883 181.696C272.382 181.773 271.909 181.971 271.502 182.272C271.096 182.574 270.769 182.97 270.551 183.427C270.095 184.639 271.245 186.008 273.847 186.111Z" fill="#407BFF"/>
<path opacity="0.4" d="M273.847 186.111C276.272 186.184 279.962 186.049 282.636 185.904C284.47 185.811 285.828 185.717 285.942 185.686C286.035 185.52 285.403 184.816 285.942 183.945C286.481 183.074 285.942 182.504 285.662 182.37C285.383 182.235 284.844 182.463 284.781 182.038C284.698 181.715 284.558 181.41 284.367 181.136C283.757 181.061 283.16 180.9 282.594 180.659H281.931C281.537 180.732 281.154 181.53 281.154 181.53C281.154 181.53 281.91 181.768 281.568 182.028C281.226 182.287 281.019 182.795 280.677 183.064C280.335 183.334 279.371 182.836 278.759 183.064C278.148 183.292 276.231 183.924 275.826 183.676C275.422 183.427 273.432 183.085 272.821 183.562C272.461 183.729 272.067 183.805 271.671 183.785C271.276 183.766 270.891 183.65 270.551 183.448C270.095 184.639 271.245 186.008 273.847 186.111Z" fill="white"/>
<path opacity="0.2" d="M281.226 183.779C281.434 184.256 281.703 184.049 281.869 184.598C282.038 185.004 282.285 185.374 282.595 185.686C282.584 185.758 282.584 185.832 282.595 185.904C282.729 186.381 283.32 187.303 285.901 185.686C285.994 185.52 285.362 184.816 285.901 183.945C286.44 183.074 285.901 182.504 285.621 182.37C285.341 182.235 284.802 182.463 284.74 182.038C284.657 181.715 284.516 181.41 284.325 181.136C283.715 181.061 283.119 180.9 282.553 180.659C281.061 181.447 281.869 181.965 281.796 182.37C281.724 182.774 282.024 183.406 281.631 183.406C281.237 183.406 281.019 183.292 281.226 183.779Z" fill="black"/>
<path d="M256.413 186.909H287.912C289.293 186.817 290.601 186.258 291.622 185.323H252.703C253.724 186.258 255.032 186.817 256.413 186.909V186.909Z" fill="#263238"/>
</svg>
